<svg width="48" height="48" viewBox="0 0 48 48" fill="none" xmlns="http://www.w3.org/2000/svg">
<g id="Box Add">
<path id="icon" d="M31.7993 41.02C31.8393 41.08 31.8993 41.1201 31.9393 41.1801C33.3793 42.9001 35.5593 44 37.9993 44C40.0193 44 41.8593 43.26 43.2593 42C43.8793 41.48 44.4193 40.84 44.8393 40.12C45.5793 38.92 45.9993 37.5 45.9993 36C45.9993 33.9 45.1793 32.0001 43.8593 30.5601C43.6593 30.3401 43.4393 30.1199 43.1993 29.9399M31.7993 41.02C31.5593 40.74 31.3393 40.44 31.1593 40.12C30.4193 38.92 29.9993 37.5 29.9993 36C29.9993 33.48 31.1593 31.22 32.9993 29.76C34.3793 28.66 36.1193 28 37.9993 28C39.9993 28 41.7993 28.7199 43.1993 29.9399M31.7993 41.02L28.1393 43.0401C25.8593 44.3201 22.1393 44.3201 19.8593 43.0401L9.17929 37.12C6.75929 35.78 4.7793 32.4201 4.7793 29.6601V18.34C4.7793 15.58 6.75929 12.22 9.17929 10.88L19.8593 4.96C22.1393 3.68 25.8593 3.68 28.1393 4.96L38.8193 10.88C41.2393 12.22 43.2193 15.58 43.2193 18.34V29.6601C43.2193 29.7601 43.2193 29.8399 43.1993 29.9399M40.9793 35.96H35.0193M37.9993 33.04V39.02M6.33929 14.88L23.9993 25.1L41.5393 14.9399M23.9993 43.22V25.08" stroke="#292D32" stroke-width="3" stroke-linecap="round" stroke-linejoin="round"/>
</g>
</svg>
