<svg width="145" height="39" viewBox="0 0 145 39" fill="none" xmlns="http://www.w3.org/2000/svg">
<path d="M135.984 33.8633H140.12C142.677 33.8633 144.75 31.7902 144.75 29.2329V8.22074C144.75 5.66348 142.677 3.59041 140.12 3.59041H135.984C133.427 3.59041 131.353 5.66348 131.353 8.22074V29.2329C131.353 31.7902 133.427 33.8633 135.984 33.8633Z" fill="#B8DE19"/>
<path d="M60.9282 18.5901V18.4875C61.6869 17.9122 62.2405 17.2467 62.5763 16.4848C62.9153 15.7292 63.0863 14.7776 63.0863 13.6208C63.0863 11.643 62.4643 10.082 61.2205 8.9345C59.9797 7.79325 58.3471 7.21484 56.3165 7.21484H48.2126C47.7555 7.21484 47.4352 7.31745 47.2486 7.51647C47.0589 7.7155 46.9688 8.07312 46.9688 8.58311V29.558C46.9688 30.0493 47.0589 30.3945 47.2486 30.5904C47.4321 30.7894 47.7524 30.8921 48.2126 30.8921H56.8078C59.0126 30.8921 60.7447 30.3167 62.0041 29.1724C63.2698 28.0249 63.901 26.411 63.901 24.3213C63.901 21.5412 62.909 19.6287 60.9282 18.587V18.5901ZM52.0686 11.8483H55.9589C56.615 11.8483 57.1281 12.0566 57.5106 12.4671C57.8931 12.8776 58.0828 13.4871 58.0828 14.2832C58.0828 15.0793 57.8931 15.7167 57.5106 16.1179C57.1281 16.519 56.615 16.7181 55.9589 16.7181H52.0686V11.8483ZM58.2165 25.5745C57.7998 26.0098 57.2338 26.2244 56.5186 26.2244H52.0718V21.0841H56.5186C57.237 21.0841 57.8029 21.3018 58.2165 21.734C58.6332 22.1694 58.8384 22.8193 58.8384 23.6869C58.8384 24.5078 58.6301 25.136 58.2165 25.5714V25.5745Z" fill="white"/>
<path d="M78.1519 14.7724C77.1288 13.6249 75.4185 13.0527 73.0209 13.0527C70.0387 13.0527 67.9895 14.2282 66.8762 16.5885C66.7425 16.8777 66.6834 17.1327 66.6834 17.3534C66.6834 17.7546 66.9539 18.0749 67.5012 18.3206L69.1027 19.0202C69.3608 19.1571 69.5941 19.2224 69.7931 19.2224C69.9641 19.2224 70.1196 19.1664 70.2471 19.0576C70.3808 18.9456 70.5207 18.7559 70.6731 18.4854C71.1302 17.6209 71.8952 17.1886 72.9619 17.1886C73.702 17.1886 74.2275 17.3535 74.5323 17.6893C74.8339 18.0189 74.9894 18.6253 74.9894 19.4867V20.5906C74.2679 20.5191 73.6149 20.488 73.0272 20.488C70.5643 20.488 68.8073 20.9078 67.75 21.7381C66.6927 22.5746 66.1641 23.9553 66.1641 25.8927C66.1641 27.83 66.6989 29.2263 67.7656 30.0939C68.8322 30.9615 70.5643 31.3968 72.9619 31.3968C75.5336 31.3968 77.4181 31.1045 78.6153 30.5292C79.0538 30.3302 79.3429 30.1001 79.4829 29.8451C79.6259 29.5901 79.6943 29.1734 79.6943 28.595V19.7603C79.6943 17.5805 79.1812 15.9168 78.155 14.7755L78.1519 14.7724ZM74.9863 27.1552C74.9863 27.3107 74.9303 27.4009 74.8215 27.4257C74.3861 27.5159 73.6989 27.5563 72.7628 27.5563C72.088 27.5563 71.5967 27.4257 71.2888 27.1552C70.981 26.8909 70.8317 26.4649 70.8317 25.8896C70.8317 25.3143 70.9934 24.8509 71.3075 24.5742C71.6185 24.2943 72.1285 24.1543 72.8281 24.1543C73.4781 24.1543 74.1964 24.1792 74.9863 24.2259V27.1583V27.1552Z" fill="white"/>
<path d="M96.4438 13.8163C96.279 13.6421 95.9898 13.5519 95.5762 13.5519H93.0262C92.6095 13.5519 92.3265 13.6421 92.1773 13.8163C92.0249 13.9966 91.9503 14.3076 91.9503 14.7523V25.7606C91.3843 25.9161 90.7375 25.9907 90.0192 25.9907C89.192 25.9907 88.598 25.7886 88.2404 25.3719C87.8766 24.9614 87.6962 24.299 87.6962 23.3879V14.7492C87.6962 14.3045 87.6154 13.9935 87.4505 13.8131C87.2888 13.639 87.0028 13.5488 86.5861 13.5488H84.0361C83.6194 13.5488 83.3364 13.639 83.1871 13.8131C83.0317 13.9935 82.957 14.3045 82.957 14.7492V23.5527C82.957 25.7575 83.4919 27.446 84.5616 28.6215C85.6283 29.8001 87.2391 30.3909 89.3941 30.3909C90.3332 30.3909 91.1822 30.3101 91.9472 30.1546V31.6566C91.9472 32.5926 91.773 33.2767 91.4247 33.709C91.0765 34.1443 90.5198 34.3558 89.7579 34.3558C89.2355 34.3558 88.7659 34.2563 88.3524 34.0573C87.9357 33.8551 87.6309 33.5566 87.4381 33.1554C87.2857 32.8911 87.1458 32.7014 87.0121 32.5895C86.8784 32.4775 86.7291 32.4247 86.5549 32.4247C86.3373 32.4247 86.0729 32.4993 85.7713 32.6548L83.9397 33.5908C83.4173 33.8551 83.1561 34.191 83.1561 34.5921C83.1561 34.8564 83.2556 35.1581 83.4484 35.4939C84.6487 37.5619 86.782 38.5943 89.8543 38.5943C92.2084 38.5943 93.9374 37.9381 95.0382 36.6258C96.139 35.3136 96.6894 33.51 96.6894 31.2212V14.7492C96.6894 14.3045 96.6055 13.9935 96.4438 13.8131V13.8163Z" fill="white"/>
<path d="M114.667 7.49782C114.493 7.30813 114.163 7.21484 113.685 7.21484H101.952C101.495 7.21484 101.174 7.31745 100.985 7.51647C100.801 7.7155 100.711 8.06067 100.711 8.5489V29.558C100.711 30.0493 100.801 30.3945 100.985 30.5904C101.174 30.7894 101.495 30.8921 101.952 30.8921H104.567C105.024 30.8921 105.344 30.7894 105.531 30.5904C105.714 30.3914 105.811 30.0462 105.811 29.558V21.7216H112.183C112.64 21.7216 112.96 21.6221 113.15 21.4199C113.333 21.2209 113.43 20.8633 113.43 20.3533V18.2543C113.43 17.7629 113.336 17.4177 113.15 17.2218C112.96 17.0228 112.64 16.9202 112.183 16.9202H105.811V12.0193H113.688C114.163 12.0193 114.496 11.9198 114.67 11.7177C114.844 11.5187 114.928 11.161 114.928 10.6511V8.55201C114.928 8.04202 114.844 7.68751 114.67 7.50093L114.667 7.49782Z" fill="white"/>
<path d="M122.069 7.06534C121.82 6.7637 121.357 6.61133 120.682 6.61133H119.112C118.437 6.61133 117.973 6.7637 117.725 7.06534C117.476 7.36387 117.352 7.92361 117.352 8.74457V9.27944C117.352 10.1253 117.47 10.685 117.709 10.9649C117.946 11.2448 118.418 11.3847 119.112 11.3847H120.682C121.382 11.3847 121.848 11.2417 122.088 10.9649C122.324 10.685 122.445 10.1253 122.445 9.27944V8.74457C122.445 7.92361 122.318 7.36076 122.069 7.06534ZM122.022 13.8165C121.848 13.6423 121.531 13.5522 121.074 13.5522H118.72C118.284 13.5522 117.98 13.6423 117.806 13.8165C117.631 13.9968 117.547 14.3078 117.547 14.7525V29.6915C117.547 30.1393 117.631 30.4471 117.806 30.6275C117.98 30.8078 118.288 30.898 118.72 30.898H121.074C121.531 30.898 121.848 30.8078 122.022 30.6275C122.196 30.4471 122.28 30.1424 122.28 29.6915V14.7525C122.28 14.3078 122.196 13.9968 122.022 13.8165Z" fill="white"/>
<path d="M141.006 26.7524C140.643 26.3325 140.158 26.1211 139.539 26.1211C138.855 26.1211 138.373 26.3232 138.096 26.7213C137.816 27.1224 137.639 27.6324 137.558 28.2543C137.511 28.7177 137.421 29.0629 137.3 29.2961C137.178 29.5293 136.964 29.6506 136.662 29.6506C136.361 29.6506 136.158 29.5573 136.015 29.3707C135.879 29.181 135.807 28.8887 135.807 28.4876C135.807 27.9403 136.062 27.5516 136.566 27.3277C136.64 27.2997 136.693 27.2655 136.728 27.2344C136.756 27.2002 136.771 27.1628 136.771 27.1224C136.771 27.0758 136.762 27.0229 136.734 26.9669L136.532 26.4632C136.479 26.3263 136.401 26.261 136.292 26.261C136.249 26.261 136.19 26.2766 136.109 26.3077C135.642 26.5191 135.288 26.7928 135.058 27.1349C134.821 27.4738 134.703 27.9278 134.703 28.4938C134.703 28.9851 134.787 29.4049 134.952 29.7501C135.117 30.0984 135.353 30.3627 135.652 30.5431C135.95 30.7234 136.298 30.8136 136.693 30.8136C137.185 30.8136 137.567 30.7017 137.841 30.4778C138.114 30.2601 138.298 29.9927 138.404 29.6755C138.503 29.3645 138.584 28.9851 138.64 28.5529C138.687 28.1424 138.774 27.8252 138.895 27.6137C139.013 27.3961 139.215 27.2935 139.508 27.2935C139.834 27.2935 140.08 27.3961 140.235 27.6044C140.391 27.8128 140.472 28.1237 140.472 28.5342C140.472 28.8327 140.4 29.0815 140.254 29.2899C140.108 29.5013 139.896 29.6568 139.623 29.7563C139.542 29.7905 139.48 29.8216 139.442 29.8558C139.405 29.89 139.386 29.9305 139.386 29.9896C139.386 30.0144 139.402 30.0611 139.424 30.1326L139.613 30.6706C139.657 30.8074 139.735 30.8789 139.853 30.8789C139.887 30.8789 139.937 30.8696 140.008 30.8509C141.038 30.5213 141.551 29.747 141.551 28.5373C141.551 27.7723 141.37 27.1815 141.013 26.7617L141.006 26.7524Z" fill="#0C1F0C"/>
<path d="M141.41 23.1014C141.404 23.0081 141.376 22.9366 141.335 22.8993C141.292 22.862 141.223 22.8371 141.115 22.8371H140.633C140.542 22.8371 140.477 22.862 140.44 22.8993C140.402 22.9366 140.387 23.0081 140.393 23.1014C140.402 23.3191 140.387 23.4777 140.356 23.5772C140.328 23.6767 140.253 23.7513 140.129 23.798C140.011 23.8508 139.812 23.8726 139.535 23.8726H137.61V23.089C137.61 22.9957 137.585 22.9273 137.545 22.89C137.501 22.8526 137.426 22.834 137.324 22.834H136.898C136.795 22.834 136.717 22.8526 136.68 22.89C136.637 22.9273 136.618 22.9926 136.618 23.089V23.8726H135.781C135.679 23.8726 135.607 23.8882 135.564 23.9255C135.526 23.9628 135.508 24.0343 135.508 24.1338V24.6718C135.508 24.7651 135.526 24.8335 135.564 24.8708C135.607 24.9081 135.676 24.9268 135.781 24.9268H136.618V25.4119C136.618 25.5114 136.637 25.5767 136.68 25.6141C136.717 25.6483 136.792 25.6669 136.898 25.6669H137.324C137.426 25.6669 137.504 25.6483 137.545 25.6141C137.588 25.5767 137.61 25.5114 137.61 25.4119V24.9268H139.591C140.119 24.9268 140.518 24.8646 140.785 24.7371C141.049 24.6158 141.223 24.4262 141.307 24.1649C141.398 23.9099 141.429 23.5523 141.41 23.0983V23.1014Z" fill="#0C1F0C"/>
<path d="M141.234 18.7012C141.172 18.5737 141.107 18.4897 141.035 18.4462C140.964 18.4026 140.855 18.3809 140.715 18.3809H136.893C136.791 18.3809 136.713 18.3995 136.675 18.4368C136.632 18.4741 136.613 18.5395 136.613 18.6359V19.1832C136.613 19.2765 136.632 19.3449 136.675 19.3822C136.713 19.4195 136.787 19.435 136.893 19.435H140.301C140.348 19.435 140.385 19.4444 140.404 19.4537C140.429 19.4693 140.441 19.4879 140.457 19.519C140.531 19.6652 140.569 19.8829 140.569 20.1783C140.569 20.4737 140.494 20.6696 140.348 20.7971C140.196 20.9246 139.966 20.9868 139.648 20.9868H136.893C136.791 20.9868 136.713 21.0054 136.675 21.0428C136.632 21.077 136.613 21.1454 136.613 21.2511V21.786C136.613 21.8855 136.632 21.9508 136.675 21.9881C136.713 22.0223 136.787 22.041 136.893 22.041H139.689C140.289 22.041 140.746 21.8979 141.073 21.6149C141.39 21.332 141.548 20.9028 141.548 20.3275C141.548 19.7056 141.446 19.1614 141.237 18.7043L141.234 18.7012Z" fill="#0C1F0C"/>
<path d="M141.461 14.5997C141.399 14.3416 141.334 14.1239 141.253 13.9528C141.181 13.8253 141.119 13.7445 141.06 13.7072C140.995 13.673 140.889 13.6543 140.743 13.6543H134.844C134.735 13.6543 134.66 13.673 134.617 13.7072C134.58 13.7445 134.555 13.8098 134.555 13.9093V14.4442C134.555 14.5437 134.58 14.609 134.62 14.6463C134.664 14.6898 134.738 14.7085 134.841 14.7085H136.629C136.526 15.0163 136.473 15.3087 136.473 15.5854C136.473 16.1794 136.629 16.6241 136.949 16.9164C137.266 17.2087 137.727 17.3548 138.333 17.3548H139.583C140.889 17.3548 141.542 16.7173 141.542 15.4424C141.542 15.1345 141.514 14.8578 141.458 14.5965L141.461 14.5997ZM140.323 16.0954C140.158 16.2322 139.903 16.3038 139.558 16.3038H138.364C137.761 16.3038 137.453 16.0208 137.453 15.4486C137.453 15.3149 137.472 15.1781 137.5 15.0381C137.534 14.8951 137.571 14.7831 137.612 14.7085H140.348C140.367 14.7085 140.385 14.7085 140.404 14.7178C140.423 14.724 140.438 14.7365 140.451 14.7613C140.488 14.8267 140.516 14.9231 140.535 15.0443C140.553 15.1656 140.563 15.2838 140.563 15.4082C140.563 15.7285 140.479 15.9555 140.317 16.0985L140.323 16.0954Z" fill="#0C1F0C"/>
<path d="M135.773 11.4652C135.701 11.403 135.571 11.375 135.372 11.375H135.235C135.042 11.375 134.909 11.403 134.837 11.4652C134.765 11.5211 134.734 11.6269 134.734 11.7855V12.14C134.734 12.2955 134.769 12.4043 134.837 12.4603C134.909 12.5163 135.039 12.5442 135.235 12.5442H135.372C135.571 12.5442 135.701 12.5163 135.773 12.4603C135.838 12.4043 135.873 12.2955 135.873 12.14V11.7855C135.873 11.6238 135.838 11.5211 135.773 11.4652ZM141.342 11.4932C141.299 11.4496 141.231 11.431 141.122 11.431H136.893C136.79 11.431 136.712 11.4496 136.675 11.4932C136.631 11.5367 136.613 11.6113 136.613 11.7108V12.2022C136.613 12.3048 136.631 12.3763 136.675 12.4199C136.712 12.4634 136.787 12.4852 136.893 12.4852H141.122C141.231 12.4852 141.302 12.4603 141.342 12.4199C141.386 12.3763 141.408 12.3079 141.408 12.2022V11.7108C141.408 11.6113 141.383 11.5367 141.342 11.4932Z" fill="#0C1F0C"/>
<path d="M141.06 7.08038C140.731 6.75075 140.277 6.58594 139.695 6.58594H138.327C137.745 6.58594 137.294 6.75075 136.962 7.08038C136.635 7.41001 136.477 7.88268 136.477 8.50151C136.477 9.12034 136.638 9.57436 136.962 9.90398C137.291 10.2336 137.745 10.3984 138.327 10.3984H139.695C140.277 10.3984 140.728 10.2336 141.06 9.90398C141.387 9.57436 141.545 9.10479 141.545 8.50151C141.545 7.89823 141.384 7.41001 141.06 7.08038ZM140.345 9.12345C140.19 9.2696 139.972 9.34423 139.695 9.34423H138.327C138.044 9.34423 137.826 9.2696 137.677 9.12345C137.525 8.97107 137.45 8.76583 137.45 8.50151C137.45 8.22164 137.525 8.01018 137.677 7.86091C137.829 7.71476 138.044 7.64013 138.327 7.64013H139.695C139.975 7.64013 140.19 7.71476 140.345 7.86091C140.497 8.01329 140.572 8.22475 140.572 8.50151C140.572 8.77827 140.497 8.97418 140.345 9.12345Z" fill="#0C1F0C"/>
<path d="M24.4546 0H14.1336C6.32201 0 0 6.32823 0 14.1367V24.4577C0 32.2693 6.32201 38.5975 14.1336 38.5975H24.4546C32.2631 38.5975 38.5944 32.2693 38.5944 24.4577V14.1367C38.5944 6.32823 32.2631 0 24.4546 0ZM21.5626 30.929H12.843V25.6052C12.843 22.6697 15.2313 20.2876 18.1668 20.2876H21.5626C23.0273 20.2876 24.3613 20.8785 25.3222 21.8456C26.2893 22.8127 26.8802 24.1374 26.8802 25.6052C26.8802 28.5501 24.4982 30.929 21.5626 30.929ZM25.3253 16.7613C24.3644 17.7221 23.0304 18.3192 21.5657 18.3192H18.1699C15.2344 18.3192 12.8461 15.931 12.8461 12.9954V7.67783H21.5657C24.5013 7.67783 26.8833 10.0567 26.8833 12.9954C26.8833 14.4601 26.2925 15.7941 25.3253 16.7613Z" fill="#B8DE19"/>
</svg>
