<svg width="21" height="22" viewBox="0 0 21 22" fill="none" xmlns="http://www.w3.org/2000/svg">
<path d="M9.90149 2.84862C10.2602 2.07147 11.3648 2.07147 11.7235 2.84862V2.84862C12.0044 3.45718 12.7916 3.6245 13.2957 3.1828V3.1828C13.9395 2.61875 14.9486 3.06801 14.9602 3.92388V3.92388C14.9693 4.59409 15.6204 5.0671 16.2606 4.86865V4.86865C17.0781 4.61522 17.8172 5.43607 17.4797 6.22267V6.22267C17.2154 6.83863 17.6178 7.53556 18.2834 7.61467V7.61467C19.1334 7.71568 19.4747 8.76618 18.8464 9.3475V9.3475C18.3545 9.80271 18.4386 10.6031 19.0144 10.946V10.946C19.7498 11.384 19.6344 12.4825 18.824 12.7581V12.7581C18.1894 12.9738 17.9407 13.7392 18.3273 14.2867V14.2867C18.821 14.986 18.2687 15.9426 17.4163 15.8646V15.8646C16.7488 15.8036 16.2103 16.4017 16.3408 17.0591V17.0591C16.5074 17.8987 15.6138 18.548 14.8667 18.1301V18.1301C14.2818 17.8029 13.5466 18.1302 13.3984 18.7838V18.7838C13.2091 19.6186 12.1286 19.8482 11.6162 19.1627V19.1627C11.2149 18.6258 10.4101 18.6258 10.0088 19.1627V19.1627C9.49636 19.8482 8.41594 19.6186 8.22663 18.7838V18.7838C8.07839 18.1302 7.34322 17.8029 6.75826 18.1301V18.1301C6.01124 18.548 5.11764 17.8987 5.28422 17.0591V17.0591C5.41466 16.4017 4.87618 15.8036 4.2087 15.8646V15.8646C3.35631 15.9426 2.80403 14.986 3.2977 14.2867V14.2867C3.68427 13.7392 3.43559 12.9738 2.801 12.7581V12.7581C1.99061 12.4825 1.87515 11.384 2.61055 10.946V10.946C3.18641 10.6031 3.27053 9.80271 2.77856 9.3475V9.3475C2.1503 8.76618 2.49163 7.71568 3.34159 7.61467V7.61467C4.00717 7.53556 4.40955 6.83863 4.14526 6.22267V6.22267C3.80776 5.43607 4.54686 4.61522 5.36443 4.86865V4.86865C6.00464 5.0671 6.65569 4.59409 6.66479 3.92388V3.92388C6.67641 3.06801 7.68547 2.61875 8.32928 3.1828V3.1828C8.83342 3.6245 9.62059 3.45718 9.90149 2.84862V2.84862Z" fill="#0C1F0C"/>
<path d="M11.4553 14.043L14.4553 11.043M14.4553 11.043L11.4553 8.04297M14.4553 11.043L6.56055 11.043" stroke="#B8DE19" stroke-width="0.84375" stroke-linejoin="round"/>
</svg>
