<svg width="42" height="46" viewBox="0 0 42 46" fill="none" xmlns="http://www.w3.org/2000/svg">
<path d="M12 2V8M28 2V8M3 16.18H37M24 36C24 40.4183 27.5817 44 32 44C36.4183 44 40 40.4183 40 36C40 31.5817 36.4183 28 32 28M24 36C24 31.5817 27.5817 28 32 28M24 36C24 37.5 24.42 38.92 25.16 40.12C25.58 40.84 26.12 41.48 26.74 42H12C5 42 2 38 2 32V15C2 9 5 5 12 5H28C35 5 38 9 38 15V30.72C36.54 29.06 34.4 28 32 28M34.14 38.22L29.9 34M34.1 34.04L29.86 38.28M19.991 25.4H20.0089M12.5886 25.4H12.6066M12.5886 31.4H12.6066" stroke="#292D32" stroke-width="3" stroke-linecap="round" stroke-linejoin="round"/>
</svg>
