<svg width="54" height="54" viewBox="0 0 54 54" fill="none" xmlns="http://www.w3.org/2000/svg">
<path d="M24.5707 5.26299C25.5273 3.19059 28.4727 3.19058 29.4293 5.26299C30.1784 6.88582 32.2775 7.33199 33.6219 6.15415C35.3387 4.65 38.0296 5.84804 38.0606 8.13036C38.0848 9.91756 39.821 11.1789 41.5282 10.6497C43.7084 9.97393 45.6793 12.1629 44.7793 14.2605C44.0745 15.903 45.1475 17.7615 46.9224 17.9724C49.189 18.2418 50.0992 21.0432 48.4238 22.5933C47.1119 23.8072 47.3362 25.9415 48.8719 26.8561C50.8329 28.0241 50.525 30.9534 48.364 31.6882C46.6718 32.2635 46.0086 34.3045 47.0395 35.7646C48.3559 37.6293 46.8832 40.1801 44.6101 39.9724C42.8302 39.8097 41.3942 41.4045 41.7421 43.1577C42.1863 45.3966 39.8033 47.1279 37.8113 46.0135C36.2514 45.1409 34.291 46.0138 33.8956 47.7569C33.3908 49.9829 30.5097 50.5953 29.1431 48.7671C28.073 47.3355 25.927 47.3355 24.8569 48.7671C23.4903 50.5953 20.6092 49.9829 20.1044 47.7569C19.7091 46.0138 17.7486 45.1409 16.1887 46.0135C14.1967 47.1279 11.8137 45.3966 12.2579 43.1577C12.6058 41.4045 11.1698 39.8097 9.38987 39.9724C7.11682 40.1801 5.64407 37.6293 6.96052 35.7646C7.99139 34.3045 7.32824 32.2635 5.636 31.6882C3.47496 30.9534 3.16707 28.0241 5.12813 26.8561C6.66377 25.9415 6.88808 23.8072 5.57616 22.5933C3.9008 21.0432 4.81101 18.2418 7.07758 17.9724C8.85246 17.7615 9.92546 15.903 9.2207 14.2605C8.3207 12.1629 10.2916 9.97393 12.4718 10.6497C14.179 11.1789 15.9152 9.91756 15.9394 8.13036C15.9704 5.84804 18.6613 4.65 20.3781 6.15415C21.7225 7.33199 23.8216 6.88582 24.5707 5.26299Z" fill="#0C1F0C"/>
<path d="M34.3818 28.9285L31.4536 18.0003M31.4536 18.0003L20.5254 20.9285M31.4536 18.0003L20.9273 36.2324" stroke="#B8DE19" stroke-width="2" stroke-linejoin="round"/>
</svg>
