<svg width="39" height="41" viewBox="0 0 39 41" fill="none" xmlns="http://www.w3.org/2000/svg">
<path d="M15.976 2.41713C17.9455 0.511862 21.0711 0.511862 23.0406 2.41713C24.1668 3.50665 25.7328 4.01547 27.2844 3.79602C29.9976 3.41225 32.5263 5.24944 32.9997 7.94846C33.2704 9.49188 34.2383 10.824 35.6225 11.5584C38.0431 12.8427 39.009 15.8154 37.8056 18.2772C37.1174 19.685 37.1174 21.3316 37.8056 22.7394C39.009 25.2012 38.0431 28.1739 35.6225 29.4582C34.2383 30.1926 33.2704 31.5247 32.9997 33.0681C32.5263 35.7672 29.9976 37.6044 27.2844 37.2206C25.7328 37.0011 24.1668 37.51 23.0406 38.5995C21.0711 40.5047 17.9455 40.5047 15.976 38.5995C14.8498 37.51 13.2838 37.0011 11.7323 37.2206C9.01903 37.6044 6.49035 35.7672 6.01691 33.0681C5.74617 31.5247 4.77833 30.1926 3.39411 29.4582C0.973492 28.1739 0.00762391 25.2012 1.21104 22.7394C1.89921 21.3316 1.89921 19.685 1.21104 18.2772C0.00762367 15.8154 0.973492 12.8427 3.39411 11.5584C4.77833 10.824 5.74617 9.49188 6.01691 7.94846C6.49035 5.24944 9.01903 3.41225 11.7323 3.79602C13.2838 4.01547 14.8498 3.50665 15.976 2.41713Z" fill="#0C1F0C"/>
</svg>
