<svg width="11" height="12" viewBox="0 0 11 12" fill="none" xmlns="http://www.w3.org/2000/svg">
<rect width="11" height="12" fill="#1E1E1E"/>
<g id="Dev Ready File">
<path d="M-3938 -12198C-3938 -12199.1 -3937.1 -12200 -3936 -12200H2396C2397.1 -12200 2398 -12199.1 2398 -12198V2925C2398 2926.1 2397.1 2927 2396 2927H-3936C-3937.1 2927 -3938 2926.1 -3938 2925V-12198Z" fill="white"/>
<path d="M-3936 -12199H2396V-12201H-3936V-12199ZM2397 -12198V2925H2399V-12198H2397ZM2396 2926H-3936V2928H2396V2926ZM-3937 2925V-12198H-3939V2925H-3937ZM-3936 2926C-3936.55 2926 -3937 2925.55 -3937 2925H-3939C-3939 2926.66 -3937.66 2928 -3936 2928V2926ZM2397 2925C2397 2925.55 2396.55 2926 2396 2926V2928C2397.66 2928 2399 2926.66 2399 2925H2397ZM2396 -12199C2396.55 -12199 2397 -12198.6 2397 -12198H2399C2399 -12199.7 2397.66 -12201 2396 -12201V-12199ZM-3936 -12201C-3937.66 -12201 -3939 -12199.7 -3939 -12198H-3937C-3937 -12198.6 -3936.55 -12199 -3936 -12199V-12201Z" fill="white" fill-opacity="0.1"/>
<g id="Phone" clip-path="url(#clip0_1842_16722)">
<rect width="393" height="12531" transform="translate(-172 -11167)" fill="#0C1F0C"/>
<g id="iPhone 16 - 21">
<rect width="393" height="616" transform="translate(-172 -219)" fill="#0C1F0C"/>
<g id="Frame 427319468">
<rect x="-156" y="-195" width="361" height="564" rx="11.2812" fill="#091609"/>
<g id="Frame 427319641">
<g id="Frame 427319655">
<g id="Btn Logo &#38; Brand Identity">
<rect x="-120.577" y="-7.16289" width="141.024" height="26.5673" rx="13.2837" stroke="#B8DE19" stroke-width="0.846094"/>
<g id="Group 3">
<path id="Star 1" d="M5.11504 1.98239C5.29715 1.58786 5.85789 1.58786 6.04 1.98239V1.98239C6.1826 2.29133 6.58221 2.37627 6.83814 2.15204V2.15204C7.16497 1.86569 7.67723 2.09377 7.68313 2.52825V2.52825C7.68775 2.86849 8.01826 3.10862 8.34327 3.00787V3.00787C8.75831 2.87922 9.13352 3.29592 8.96218 3.69525V3.69525C8.82802 4.00794 9.03229 4.36175 9.37017 4.4019V4.4019C9.80166 4.45318 9.97494 4.98648 9.656 5.28159V5.28159C9.40625 5.51268 9.44895 5.91898 9.74129 6.09309V6.09309C10.1146 6.31544 10.056 6.87311 9.64461 7.01298V7.01298C9.32245 7.12251 9.19621 7.51105 9.39246 7.78902V7.78902C9.64307 8.14399 9.3627 8.62961 8.92998 8.59006V8.59006C8.59113 8.55908 8.31776 8.86269 8.38399 9.19644V9.19644C8.46855 9.62266 8.01491 9.95225 7.63568 9.74012V9.74012C7.33872 9.574 6.96551 9.74017 6.89025 10.072V10.072C6.79415 10.4958 6.24566 10.6124 5.98551 10.2643V10.2643C5.78179 9.99177 5.37325 9.99177 5.16953 10.2643V10.2643C4.90938 10.6124 4.36089 10.4958 4.26479 10.072V10.072C4.18953 9.74017 3.81632 9.574 3.51936 9.74012V9.74012C3.14013 9.95225 2.68649 9.62266 2.77105 9.19644V9.19644C2.83727 8.86269 2.56391 8.55908 2.22506 8.59006V8.59006C1.79234 8.62961 1.51197 8.14399 1.76258 7.78902V7.78902C1.95883 7.51105 1.83259 7.12251 1.51043 7.01298V7.01298C1.09903 6.87311 1.04042 6.31544 1.41375 6.09309V6.09309C1.70609 5.91898 1.74879 5.51268 1.49904 5.28159V5.28159C1.1801 4.98648 1.35338 4.45318 1.78487 4.4019V4.4019C2.12275 4.36175 2.32702 4.00794 2.19285 3.69525V3.69525C2.02152 3.29592 2.39673 2.87922 2.81177 3.00787V3.00787C3.13678 3.10862 3.46729 2.86849 3.47191 2.52825V2.52825C3.47781 2.09377 3.99006 1.86569 4.3169 2.15204V2.15204C4.57283 2.37627 4.97244 2.29133 5.11504 1.98239V1.98239Z" fill="#B8DE19"/>
<path id="Vector 24" d="M5.90281 7.66602L7.42578 6.14305M7.42578 6.14305L5.90281 4.62008M7.42578 6.14305L3.41797 6.14305" stroke="#0C1F0C" stroke-width="0.428335" stroke-linejoin="round"/>
</g>
</g>
</g>
</g>
</g>
</g>
</g>
</g>
<defs>
<clipPath id="clip0_1842_16722">
<rect width="393" height="12531" fill="white" transform="translate(-172 -11167)"/>
</clipPath>
</defs>
</svg>
