<svg width="21" height="22" viewBox="0 0 21 22" fill="none" xmlns="http://www.w3.org/2000/svg">
<path d="M9.75995 0.985628C10.4597 0.912078 11.1653 0.912078 11.8651 0.985628C12.5648 1.05918 13.255 1.20587 13.9242 1.4233C14.5933 1.64074 15.2379 1.92771 15.8473 2.27953C16.4566 2.63134 17.0274 3.04606 17.5503 3.51688C18.0732 3.9877 18.5453 4.51203 18.9589 5.08128C19.3725 5.65052 19.7253 6.26155 20.0115 6.90435C20.2977 7.54715 20.5157 8.21817 20.662 8.90643C20.8083 9.59468 20.882 10.2964 20.882 11C20.882 11.7036 20.8083 12.4053 20.662 13.0936C20.5157 13.7818 20.2977 14.4529 20.0115 15.0956C19.7253 15.7384 19.3725 16.3495 18.9589 16.9187C18.5453 17.488 18.0732 18.0123 17.5503 18.4831C17.0274 18.9539 16.4566 19.3687 15.8473 19.7205C15.2379 20.0723 14.5933 20.3593 13.9241 20.5767C13.255 20.7941 12.5648 20.9408 11.8651 21.0144C11.1653 21.0879 10.4597 21.0879 9.75994 21.0144C9.06017 20.9408 8.37003 20.7941 7.70085 20.5767C7.03165 20.3593 6.38709 20.0723 5.77773 19.7205C5.16837 19.3687 4.59756 18.9539 4.07467 18.4831C3.55177 18.0123 3.07966 17.488 2.66607 16.9187C2.25249 16.3495 1.89971 15.7384 1.61352 15.0956C1.32733 14.4528 1.1093 13.7818 0.963009 13.0936C0.816717 12.4053 0.742966 11.7036 0.742966 11C0.742966 10.2964 0.816717 9.59468 0.963009 8.90642C1.1093 8.21817 1.32733 7.54715 1.61352 6.90435C1.89971 6.26155 2.25249 5.65052 2.66607 5.08128C3.07966 4.51203 3.55177 3.9877 4.07467 3.51688C4.59756 3.04606 5.16837 2.63134 5.77773 2.27953C6.38709 1.92771 7.03165 1.64074 7.70084 1.4233C8.37003 1.20587 9.06017 1.05918 9.75995 0.985628Z" fill="#0C1F0C"/>
<path d="M13.5802 11.7239L12.4821 7.62585M12.4821 7.62585L8.38403 8.72393M12.4821 7.62585L8.53474 14.4629" stroke="#B8DE19" stroke-width="0.84375" stroke-linejoin="round"/>
</svg>
