<svg width="24" height="24" viewBox="0 0 24 24" fill="none" xmlns="http://www.w3.org/2000/svg">
<path d="M23.8267 10C23.4667 9.33333 22.6667 9.33333 22.6667 9.33333H20V8C20 6.66667 18.6667 6.66667 18.6667 6.66667H16V5.33333C16 4 14.6667 4 14.6667 4H13.3333V1.33333C13.3333 0 12 0 12 0C5.37333 0 0 5.37333 0 12C0 18.6267 5.37333 24 12 24C18.6267 24 24 18.6267 24 12C24 11.3333 23.9467 10.6667 23.8267 10ZM4.66667 13.3333C3.56 13.3333 2.66667 12.44 2.66667 11.3333C2.66667 10.2267 3.56 9.33333 4.66667 9.33333C5.77333 9.33333 6.66667 10.2267 6.66667 11.3333C6.66667 12.44 5.77333 13.3333 4.66667 13.3333ZM6.66667 6C6.66667 4.89333 7.56 4 8.66667 4C9.77333 4 10.6667 4.89333 10.6667 6C10.6667 7.10667 9.77333 8 8.66667 8C7.56 8 6.66667 7.10667 6.66667 6ZM10.6667 21.3333C9.56 21.3333 8.66667 20.44 8.66667 19.3333C8.66667 18.2267 9.56 17.3333 10.6667 17.3333C11.7733 17.3333 12.6667 18.2267 12.6667 19.3333C12.6667 20.44 11.7733 21.3333 10.6667 21.3333ZM11.3333 14.6667C10.2267 14.6667 9.33333 13.7733 9.33333 12.6667C9.33333 11.56 10.2267 10.6667 11.3333 10.6667C12.44 10.6667 13.3333 11.56 13.3333 12.6667C13.3333 13.7733 12.44 14.6667 11.3333 14.6667ZM18 17.3333C16.8933 17.3333 16 16.44 16 15.3333C16 14.2267 16.8933 13.3333 18 13.3333C19.1067 13.3333 20 14.2267 20 15.3333C20 16.44 19.1067 17.3333 18 17.3333Z" fill="#B8DE19"/>
</svg>
