<svg width="24" height="24" viewBox="0 0 24 24" fill="none" xmlns="http://www.w3.org/2000/svg">
<path d="M10.0244 1.90558C11.1227 0.843095 12.8657 0.843095 13.964 1.90558C14.592 2.51315 15.4653 2.7969 16.3305 2.67452C17.8436 2.46051 19.2537 3.48502 19.5177 4.99014C19.6687 5.85083 20.2084 6.59369 20.9803 7.00325C22.3302 7.71946 22.8688 9.37716 22.1977 10.75C21.814 11.5351 21.814 12.4533 22.1977 13.2384C22.8688 14.6112 22.3302 16.2689 20.9803 16.9851C20.2084 17.3947 19.6687 18.1375 19.5177 18.9982C19.2537 20.5033 17.8436 21.5279 16.3305 21.3139C15.4653 21.1915 14.592 21.4752 13.964 22.0828C12.8657 23.1453 11.1227 23.1453 10.0244 22.0828C9.39635 21.4752 8.52306 21.1915 7.65784 21.3139C6.1448 21.5279 4.73468 20.5033 4.47066 18.9982C4.31968 18.1375 3.77996 17.3947 3.00805 16.9851C1.65818 16.2689 1.11956 14.6112 1.79065 13.2384C2.17441 12.4533 2.17441 11.5351 1.79065 10.75C1.11956 9.37716 1.65818 7.71946 3.00805 7.00325C3.77996 6.59369 4.31968 5.85084 4.47066 4.99014C4.73468 3.48502 6.1448 2.46051 7.65784 2.67452C8.52306 2.7969 9.39635 2.51315 10.0244 1.90558Z" fill="white" fill-opacity="0.2"/>
</svg>
