<svg width="40" height="40" viewBox="0 0 40 40" fill="none" xmlns="http://www.w3.org/2000/svg">
<path d="M25.2285 0.000976562H14.5811C6.52287 0.000976562 0 6.52862 0 14.5821V25.2294C0 33.2877 6.52287 39.8153 14.5811 39.8153H25.2285C33.2819 39.8153 39.8143 33.2877 39.8143 25.2294V14.5821C39.8143 6.52862 33.2819 0.000976562 25.2285 0.000976562ZM22.2436 31.9049H13.2508V26.4119C13.2508 23.3841 15.7159 20.9238 18.7437 20.9238H22.2483C23.7599 20.9238 25.1379 21.5341 26.1296 22.5306C27.1262 23.5272 27.7365 24.8909 27.7365 26.4119C27.7365 29.4493 25.2809 31.9049 22.2483 31.9049H22.2436ZM26.1249 17.2904C25.1331 18.2822 23.7551 18.8973 22.2436 18.8973H18.739C15.7112 18.8973 13.246 16.4369 13.246 13.4043V7.91616H22.2388C25.2666 7.91616 27.727 10.367 27.727 13.4043C27.727 14.9159 27.1167 16.2939 26.1201 17.2904H26.1249Z" fill="#B8DE19"/>
</svg>
