<svg width="509" height="100" viewBox="0 0 509 100" fill="none" xmlns="http://www.w3.org/2000/svg">
<g clip-path="url(#clip0_2930_1849)">
<path d="M81.8507 100.002C79.2263 100.002 76.6019 99.4398 74.1309 98.3321C67.3483 95.2646 62.9516 88.3117 62.9516 80.6259V71.0315C58.2481 74.4739 53.5617 75.9735 48.8412 75.5646C43.1493 75.0703 38.8718 71.9347 35.2761 68.0492V81.3416C35.2761 87.5107 32.3279 93.1685 27.4029 96.4916C24.0627 98.7411 20.0579 99.7977 16.1384 99.4739C12.6789 99.1842 9.40695 97.872 6.64622 95.6566C2.4199 92.2823 0 87.1017 0 81.4609V61.6586C0 53.9558 3.93661 46.7302 10.2761 42.7936C13.1731 40.9872 16.2236 40.084 19.257 40.084C21.0634 40.084 22.7335 40.4078 24.2672 40.9701C26.0736 41.8904 28.3061 43.2537 30.5896 45.1965C32.6005 46.9006 34.1343 48.6218 35.259 50.0874C35.9237 51.0417 37.0143 52.405 38.2754 54.1262C42.0757 59.341 45.6544 64.266 49.7785 64.6239C53.5958 64.9647 58.6742 61.3007 64.0934 54.3307C65.5419 52.4732 67.9959 51.7404 70.2284 52.5073C72.4608 53.2742 73.9434 55.3703 73.9434 57.722V80.677C73.9434 84.0513 75.7839 87.0676 78.6469 88.3457C79.9932 88.9592 81.4417 89.1808 82.8221 88.9763C82.9925 88.9592 83.18 88.9251 83.3504 88.8911C86.9291 88.1924 89.5024 84.8693 89.4853 81.0179L88.9911 16.9586C88.9911 15.3055 88.4288 13.8229 87.4233 12.7663C87.0484 12.3744 86.6394 12.0506 86.1793 11.795C83.6912 10.3975 80.1125 11.0962 77.454 13.4821L55.9475 34.8011C54.0389 36.6927 51.0736 36.9313 48.8923 35.3805L42.0075 30.4896C39.5365 28.7343 38.94 25.2919 40.7123 22.8209C42.4676 20.3498 45.91 19.7704 48.381 21.5257L51.4997 23.7411L69.8023 5.59182C69.8023 5.59182 69.9046 5.48957 69.9557 5.43844C76.1929 -0.270487 84.8841 -1.58269 91.5985 2.20054C93.0129 3.0015 94.3081 4.00695 95.4329 5.2169C98.347 8.30143 99.9659 12.4425 100 16.8733L100.494 80.9327C100.562 90.084 94.257 97.9742 85.4806 99.6954C85.1057 99.7636 84.7307 99.8318 84.3558 99.8829C83.5208 100.002 82.6858 100.053 81.8337 100.053L81.8507 100.002ZM19.1888 51.0588C18.2345 51.0588 17.212 51.3996 16.0873 52.0983C12.9516 54.0581 11.0089 57.705 11.0089 61.6245V81.4268C11.0089 83.6763 11.9461 85.7725 13.514 87.0335C14.5535 87.8686 15.7805 88.3628 17.0586 88.4821C18.4901 88.6014 20.0068 88.1924 21.2849 87.3403C23.1425 86.0962 24.2843 83.7956 24.2843 81.3416V54.0922C22.5631 52.2858 20.8589 51.0758 19.2229 51.0758H19.2059L19.1888 51.0588Z" fill="white"/>
<path d="M35.4134 15.7803C35.26 14.3488 34.9192 12.9514 34.408 11.6051C33.59 9.47495 32.4141 7.56629 30.8803 5.87917C30.1476 5.07822 29.3296 4.34543 28.4604 3.69785C26.5177 2.19819 24.3193 1.20978 21.9506 0.596284C20.8599 0.306577 19.7351 0.23841 18.6274 0.102078C18.048 -0.000171749 17.4516 -0.000171749 16.8722 0.102078C16.5654 0.102078 16.2587 0.170244 15.969 0.187286C14.5034 0.289535 13.0889 0.647408 11.7086 1.14161C9.47612 1.92553 7.49929 3.13548 5.74401 4.7033C4.70447 5.64059 3.80127 6.71421 3.00031 7.89008C1.90965 9.49199 1.1087 11.2643 0.58041 13.1218C0.239578 14.3829 0.0180376 15.6951 0.000996001 17.0414C-0.0160456 18.3025 0.000995999 19.5636 0.222537 20.8246C0.47816 22.3584 0.921241 23.824 1.56882 25.2384C2.30161 26.7892 3.20481 28.2377 4.36364 29.5329C5.28389 30.5724 6.28934 31.5097 7.41408 32.3107C8.45362 33.0435 9.54428 33.691 10.7372 34.1852C12.0835 34.7476 13.4979 35.1396 14.9465 35.3952C15.3895 35.4804 15.4066 35.2929 15.4577 34.9862C15.594 34.2534 15.9349 33.657 16.5313 33.1798C16.9744 32.839 17.4857 32.6685 17.9969 32.4811H22.9219C23.791 32.7367 24.575 33.1116 25.0692 33.9296C25.1714 34.1 25.2566 33.9637 25.3248 33.9296C25.6997 33.7422 26.0746 33.5206 26.4666 33.3161C27.6595 32.6856 28.7501 31.8846 29.7556 30.9644C30.5906 30.2146 31.3234 29.3795 32.0051 28.4934C32.9935 27.1812 33.7774 25.7326 34.3909 24.1989C34.8851 22.9037 35.2089 21.5574 35.3964 20.16C35.6009 18.6944 35.6009 17.2118 35.4475 15.7462L35.4134 15.7803ZM18.9512 31.7653C18.9512 30.5724 18.9512 29.3795 18.9512 28.1696C19.8544 28.2718 20.7406 28.1696 21.5927 27.8287C21.712 27.7776 21.8142 27.6754 21.9506 27.7435C21.9506 29.0898 21.9506 30.4191 21.9506 31.7653C20.9451 31.8165 19.9226 31.8165 18.9342 31.7653H18.9512ZM24.8987 23.0571C24.4727 23.7558 23.9103 24.3352 23.2457 24.8294C23.1946 24.8805 23.0583 24.8635 23.1094 25.0169C23.2968 25.5452 23.0071 25.9542 22.6833 26.2609C21.6949 27.2152 20.502 27.6072 19.1557 27.4709C18.5422 27.4197 17.8776 27.2493 17.6561 26.6358C17.4686 26.1416 17.1619 26.0734 16.7529 25.9201C15.3214 25.4259 14.1285 24.5738 13.2253 23.3298C12.3391 22.0857 11.896 20.6201 11.1632 19.2909C10.8054 18.6433 10.5497 17.9446 10.243 17.28C10.0044 16.7858 9.79991 16.2916 9.54428 15.8144C9.44203 15.627 9.49316 15.5588 9.66357 15.4906C10.8054 14.9453 11.9301 14.4 13.0889 13.8717C13.3786 13.7353 13.5491 13.4456 13.4638 13.19C13.3446 12.9173 12.9696 12.7128 12.714 12.8151C12.2539 13.0026 11.7767 13.2071 11.3166 13.4286C11.1803 13.4797 11.0951 13.582 10.9928 13.3604C10.5838 12.4402 10.0726 11.5711 10.2089 10.6679C10.1748 9.15116 10.669 7.99233 11.6574 7.07208C13.3786 5.45314 15.8837 5.29976 17.7754 6.71421C18.6956 7.41292 19.2069 8.3502 19.6329 9.35566C19.684 9.50903 19.6329 9.52607 19.5136 9.56016C19.0876 9.76466 18.6615 9.96915 18.2355 10.1737C18.031 10.2759 17.8606 10.3782 17.8606 10.6679C17.8606 11.2132 18.2355 11.4688 18.7467 11.2302C19.8374 10.719 20.9281 10.2077 22.0187 9.66241C22.2573 9.54311 22.3425 9.59424 22.4448 9.81578C23.5013 12.0482 24.5579 14.2977 25.5975 16.5472C25.8872 17.1777 25.9894 17.8594 26.0576 18.5411C26.228 20.1941 25.7508 21.6597 24.9158 23.023L24.8987 23.0571Z" fill="white"/>
<path d="M24.6961 19.1885C24.6961 21.1483 23.861 22.7502 22.2762 23.8749C21.0321 24.7611 19.6006 25.0338 18.0669 24.8122C17.1637 24.6759 16.3627 24.3351 15.6299 23.8238C14.7267 23.1762 14.0621 22.3242 13.619 21.3187C13.3804 20.7563 13.1248 20.211 12.8692 19.6486C12.375 18.6091 11.8808 17.5866 11.3866 16.5471C11.3525 16.4619 11.1991 16.3426 11.4377 16.2403C12.2216 15.9165 12.9544 15.4905 13.7554 15.2178C14.1132 15.0985 14.3859 15.2178 14.5222 15.5416C14.6586 15.8824 14.4711 16.0869 14.1814 16.2233C13.7724 16.4278 13.3804 16.6493 12.9544 16.8197C12.7329 16.9049 12.7158 17.0242 12.767 17.2117C12.767 17.2287 12.801 17.2458 12.8181 17.2798C12.9715 17.5866 13.0396 17.9956 13.2782 18.149C13.5509 18.3194 13.8576 17.9445 14.1644 17.8593C14.4882 17.757 14.7438 17.5184 15.1187 17.5355C15.4595 17.5525 15.6129 17.757 15.664 18.0126C15.7151 18.2342 15.6129 18.4557 15.3573 18.575C14.9142 18.7454 14.5052 19.0351 14.0451 19.1715C13.8747 19.2226 13.8065 19.3419 13.8747 19.4953C14.3859 20.5177 14.7097 21.6425 15.5959 22.4264C16.5672 23.2955 17.7261 23.8579 19.0383 23.7386C21.3218 23.5341 23.0601 22.1026 23.5543 19.7509C23.7758 18.6773 23.5031 17.6548 23.0601 16.6834C22.8726 16.2914 22.6511 15.9336 22.5147 15.5246C22.4466 15.303 22.3273 15.2689 22.0887 15.3882C21.6627 15.5927 21.2707 15.8484 20.8106 15.9676C20.4527 16.0699 20.163 15.9676 20.0437 15.712C19.9074 15.3882 20.0437 15.0815 20.3675 14.9281C20.7935 14.7236 21.2366 14.5021 21.6797 14.3146C21.8672 14.2294 21.8672 14.1442 21.7819 13.9908C21.6456 13.7352 21.5093 13.4966 21.407 13.224C21.2877 12.9342 21.1344 12.9342 20.8958 13.0706C20.6061 13.241 20.2823 13.3603 19.9926 13.5307C19.8051 13.6329 19.6347 13.65 19.4302 13.667C19.1746 13.667 18.9871 13.5307 18.953 13.3262C18.9019 13.0876 18.8338 12.7809 19.1575 12.6275C19.8903 12.2696 20.6061 11.9288 21.3559 11.588C21.4922 11.5198 21.6456 11.4346 21.7479 11.6902C22.6511 13.65 23.6736 15.5586 24.4404 17.5866C24.6449 18.1149 24.6961 18.6432 24.679 19.2055L24.6961 19.1885Z" fill="white"/>
<path d="M159.967 62.5753H153.116L152.179 43.7614L151.736 29.5658H150.56L148.89 43.5228L146.623 62.5924H137.762L135.444 43.182L133.825 29.5828H132.734L132.291 43.7273L131.456 62.5924H124.605L127.213 23.6694H138.784L140.556 38.8534L142.175 56.8153H142.226L143.794 38.9386L145.618 23.6523H157.189L159.95 62.5753H159.967Z" fill="white"/>
<path d="M171.979 23.668V62.5909H164.992V23.668H171.979Z" fill="white"/>
<path d="M185.376 23.668V56.2856H194.101V62.5909H178.389V23.668H185.376Z" fill="white"/>
<path d="M219.459 23.668L221.521 43.4703L222.799 56.6775H224.384L224.93 43.4192L226.31 23.668H233.45L229.752 62.5909H217.84L215.863 40.897L214.977 28.9338L214.04 40.9993L212.063 62.5909H200.151L196.453 23.668H203.542L205.025 43.6748L205.57 56.6775H207.138L208.365 43.6748L210.427 23.668H219.442H219.459Z" fill="white"/>
<path d="M240.572 23.668H253.421L258.108 62.5909H251.121L250.286 54.0531H243.793L242.958 62.5909H235.971L240.606 23.668H240.572ZM249.74 48.2419L248.07 29.5814H246.008L244.338 48.2419H249.757H249.74Z" fill="white"/>
<path d="M262.402 52.0592V23.668H269.389V51.5139C269.389 55.9788 269.986 57.3762 272.491 57.3762C274.996 57.3762 275.593 55.9788 275.593 51.5139V23.668H282.58V52.0592C282.58 59.8472 279.222 63.3237 272.491 63.3237C265.76 63.3237 262.402 59.8472 262.402 52.0592Z" fill="white"/>
<path d="M298.448 48.276H295.636V62.5739H288.734V23.668H295.636V42.141H298.499L302.691 23.668H309.678L304.413 45.1063L310.224 62.5739H302.981L298.448 48.276Z" fill="white"/>
<path d="M331.696 23.668V29.9734H321.301V41.3401H329.719V47.2024H321.301V56.2856H331.696V62.5909H314.416V23.668H331.696Z" fill="white"/>
<path d="M354.393 23.668V29.9734H343.998V41.3401H352.417V47.2024H343.998V56.2856H354.393V62.5909H337.113V23.668H354.393Z" fill="white"/>
<path d="M384.491 23.668V29.9734H374.692V42.2433H382.531V48.2078H374.692V62.608H367.705V23.668H384.508H384.491Z" fill="white"/>
<path d="M395.907 23.668V56.2856H404.632V62.5909H388.92V23.668H395.907Z" fill="white"/>
<path d="M411.875 23.668H424.724L429.41 62.5909H422.423L421.588 54.0531H415.096L414.26 62.5909H407.273L411.909 23.668H411.875ZM421.026 48.2419L419.356 29.5814H417.294L415.624 48.2419H421.043H421.026Z" fill="white"/>
<path d="M454.172 23.668L449.4 62.5909H436.79L431.967 23.668H439.158L441.425 45.0722L442.209 56.6434H444.032L444.97 44.9699L447.032 23.668H454.172Z" fill="white"/>
<path d="M458.107 35.3773C458.107 27.4359 460.817 22.9199 468.656 22.9199C476.495 22.9199 479.154 27.4359 479.154 35.3773V50.8681C479.154 58.8095 476.444 63.3255 468.656 63.3255C460.868 63.3255 458.107 58.8095 458.107 50.8681V35.3773ZM468.605 57.378C471.468 57.378 472.099 55.6909 472.099 50.8681V35.3773C472.099 30.5546 471.451 28.8674 468.605 28.8674C465.759 28.8674 465.163 30.5546 465.163 35.3773V50.8681C465.163 55.6909 465.844 57.378 468.605 57.378Z" fill="white"/>
<path d="M493.232 23.668C501.259 23.668 505.587 26.7525 505.587 36.7729C505.587 42.925 503.713 46.8445 500.373 48.9918L506.184 62.5909H498.89L494.255 50.8322C493.812 50.8834 493.368 50.8834 492.874 50.8834H491.886V62.5909H485.035V23.668H493.215H493.232ZM498.6 36.9093C498.6 31.047 497.373 29.6155 492.994 29.6155H491.903V45.0552H492.636C497.22 45.0552 498.6 42.9761 498.6 36.9093Z" fill="white"/>
<path d="M127.998 69.6484C132.071 69.6484 134.15 71.3015 134.15 76.9422C134.15 82.583 131.816 84.5087 127.743 84.5087H127.044V89.962H123.977V69.6484H127.998ZM131.1 76.9252C131.1 73.1931 130.435 72.358 127.964 72.358H127.061V81.8161H127.76C130.333 81.8161 131.1 80.6743 131.1 76.9082V76.9252Z" fill="white"/>
<path d="M143.488 69.6484C147.578 69.6484 149.759 71.3015 149.759 76.448C149.759 79.7371 148.685 81.8161 146.794 82.8557L149.981 89.962H146.709L143.999 83.6396C143.76 83.6396 143.539 83.6737 143.3 83.6737H142.533V89.979H139.5V69.6655H143.471L143.488 69.6484ZM146.709 76.4992C146.709 73.2272 145.959 72.3751 143.437 72.3751H142.567V80.9811H143.266C145.839 80.9811 146.709 79.7371 146.709 76.4992Z" fill="white"/>
<path d="M164.315 69.6484V72.4433H158.708V79.2428H163.292V81.9184H158.708V87.1331H164.315V89.962H155.641V69.6484H164.315Z" fill="white"/>
<path d="M169.154 74.009C169.154 70.7882 171.08 69.2715 174.045 69.2715C175.409 69.2715 176.227 69.3737 177.437 69.7146L177.13 72.339C176.158 72.1856 175.374 72.0833 174.454 72.0833C172.852 72.0833 172.239 72.782 172.239 74.0602C172.239 78.3376 177.828 79.6839 177.828 85.4439C177.828 88.6137 175.92 90.369 172.716 90.369C171.267 90.369 170.501 90.2667 169.291 89.9259L169.631 87.3015C170.603 87.4548 171.353 87.5571 172.341 87.5571C173.96 87.5571 174.778 87.0459 174.778 85.4099C174.778 81.388 169.171 79.9906 169.171 74.0261L169.154 74.009Z" fill="white"/>
<path d="M191.631 69.6484V72.4433H186.025V79.2428H190.609V81.9184H186.025V87.1331H191.631V89.962H182.957V69.6484H191.631Z" fill="white"/>
<path d="M208.537 69.6484V89.962H204.311L201.192 77.6921L200.272 73.0227H199.88L200.289 80.521V89.962H197.426V69.6484H201.669L204.703 81.3901L205.674 86.5026H206.066L205.657 78.6975V69.6484H208.52H208.537Z" fill="white"/>
<path d="M223.463 69.6484V72.4433H219.935V89.945H216.851V72.4433H213.357V69.6484H223.463Z" fill="white"/>
<path d="M236.944 69.6484V72.4433H231.337V79.2428H235.921V81.9184H231.337V87.1331H236.944V89.962H228.27V69.6484H236.944Z" fill="white"/>
<path d="M246.678 69.6484C251.177 69.6484 253.341 71.6253 253.341 79.6348C253.341 87.6443 251.16 89.962 246.678 89.962H242.775V69.6484H246.678ZM250.223 79.6348C250.223 73.585 249.37 72.3751 246.729 72.3751H245.826V87.2013H246.729C249.37 87.2013 250.223 85.6675 250.223 79.6348Z" fill="white"/>
<path d="M270.192 69.6484C274.333 69.6484 275.986 71.3867 275.986 75.3574C275.986 77.658 275.237 79.2258 273.856 80.112C275.458 80.7936 276.242 82.157 276.242 84.5769C276.242 88.5135 274.316 89.979 270.397 89.979H266V69.6655H270.192V69.6484ZM272.885 75.4596C272.885 72.9886 272.339 72.2388 270.124 72.2388H268.999V79.1065H270.124C272.408 79.1065 272.885 77.9136 272.885 75.4426V75.4596ZM273.192 84.4576C273.192 82.174 272.493 81.5264 270.312 81.5264H268.999V87.3376H270.312C272.493 87.3376 273.192 86.7411 273.192 84.4576Z" fill="white"/>
<path d="M291.546 69.6484L288.921 83.2306H287.626V89.945H284.542V83.2306H283.281L280.656 69.6484H283.775L284.883 76.4139L285.53 80.5551H286.689L287.354 76.4139L288.41 69.6484H291.546Z" fill="white"/>
<path d="M313.497 69.6484L311.009 89.962H304.908L302.42 69.6484H305.59L306.868 81.0322L307.379 87.2524H308.555L309.117 80.947L310.327 69.6484H313.497Z" fill="white"/>
<path d="M321.848 69.6484V89.962H318.764V69.6484H321.848Z" fill="white"/>
<path d="M327.197 74.009C327.197 70.7882 329.123 69.2715 332.088 69.2715C333.452 69.2715 334.27 69.3737 335.479 69.7146L335.173 72.339C334.201 72.1856 333.417 72.0833 332.497 72.0833C330.895 72.0833 330.282 72.782 330.282 74.0602C330.282 78.3376 335.871 79.6839 335.871 85.4439C335.871 88.6137 333.963 90.369 330.759 90.369C329.31 90.369 328.544 90.2667 327.334 89.9259L327.674 87.3015C328.646 87.4548 329.396 87.5571 330.384 87.5571C332.003 87.5571 332.821 87.0459 332.821 85.4099C332.821 81.388 327.214 79.9906 327.214 74.0261L327.197 74.009Z" fill="white"/>
<path d="M344.102 69.6484V89.962H341.018V69.6484H344.102Z" fill="white"/>
<path d="M359.031 69.6484V72.4433H355.504V89.945H352.419V72.4433H348.926V69.6484H359.031Z" fill="white"/>
<path d="M387.355 89.945H384.321L383.776 79.72L383.486 72.2728H382.822L381.919 79.6689L380.658 89.945H376.533L375.272 79.4644L374.403 72.2899H373.739L373.449 79.7371L372.938 89.962H369.904L371.268 69.6484H376.653L377.709 78.1863L378.578 87.3376H378.664L379.516 78.2033L380.589 69.6484H385.992L387.355 89.962V89.945Z" fill="white"/>
<path d="M396.028 69.6484V89.962H392.943V69.6484H396.028Z" fill="white"/>
<path d="M405.452 69.6484V87.1331H410.292V89.962H402.367V69.6484H405.452Z" fill="white"/>
<path d="M425.613 69.6484L426.772 80.3335L427.488 87.2865H428.493L428.834 80.3165L429.635 69.6655H432.754L430.981 89.979H425.187L424.079 78.4078L423.568 72.0854L423.074 78.493L421.949 89.979H416.189L414.383 69.6655H417.501L418.319 80.4869L418.677 87.3035H419.632L420.347 80.5039L421.506 69.6655H425.63L425.613 69.6484Z" fill="white"/>
<path d="M439.571 69.6484H445.621L448.143 89.962H445.058L444.547 85.3267H440.645L440.133 89.962H437.049L439.588 69.6484H439.571ZM444.24 82.6682L443.184 72.324H441.974L440.9 82.6682H444.24Z" fill="white"/>
<path d="M453.322 84.4746V69.6484H456.407V84.3553C456.407 86.8945 456.85 87.6443 458.332 87.6443C459.9 87.6443 460.258 86.8945 460.258 84.3553V69.6484H463.343V84.4746C463.343 88.6498 461.622 90.3369 458.332 90.3369C455.043 90.3369 453.322 88.6498 453.322 84.4746Z" fill="white"/>
<path d="M474.317 82.2416H472.612V89.9444H469.545V69.6309H472.612V79.4809H474.368L476.856 69.6309H479.94L476.975 80.8101L480.213 89.9444H476.992L474.282 82.2416H474.317Z" fill="white"/>
<path d="M493.998 69.6484V72.4433H488.392V79.2428H492.976V81.9184H488.392V87.1331H493.998V89.962H485.324V69.6484H493.998Z" fill="white"/>
<path d="M508.485 69.6484V72.4433H502.878V79.2428H507.462V81.9184H502.878V87.1331H508.485V89.962H499.811V69.6484H508.485Z" fill="white"/>
</g>
<defs>
<clipPath id="clip0_2930_1849">
<rect width="508.487" height="100" fill="white"/>
</clipPath>
</defs>
</svg>
