<svg width="277" height="100" viewBox="0 0 277 100" fill="none" xmlns="http://www.w3.org/2000/svg">
<g clip-path="url(#clip0_2930_1831)">
<path d="M39.0877 98.6356C25.1392 102.702 9.91096 97.4412 3.21396 86.3649C1.08115 82.8244 -0.0279039 79.0991 0.000533423 75.1037V25.0397C-0.0279039 14.1055 8.17628 4.53633 20.4754 1.20916C32.7604 -2.11801 46.1117 1.59307 53.5623 10.494C57.2023 14.8307 59.0507 19.6792 59.0365 25.0397C59.0223 34.1965 59.0365 43.3391 59.0365 52.4675V54.1453H39.5C39.4432 53.6761 39.3578 53.2353 39.3578 52.7945C39.3578 49.5242 39.2725 46.2255 39.3721 42.941C39.4289 40.5096 38.8744 38.3626 37.3815 36.6706C36.8696 36.0876 35.7321 34.9785 33.8552 34.2534C32.3054 33.6562 30.7413 33.514 29.4332 33.5993V25.1108C31.9357 25.1108 34.6372 25.3525 37.4241 25.8928C38.0213 26.0065 38.6327 26.1487 39.2157 26.2767C39.2157 22.5941 39.5285 18.9967 39.1304 15.4421C38.6611 11.0769 33.9832 8.13366 28.6938 8.41803C23.8453 8.64553 19.7787 12.1575 19.7076 16.48C19.5939 22.7931 19.6792 29.1204 19.6792 35.4193C19.6792 51.1452 19.6934 66.8426 19.6508 82.5685C19.6508 86.3791 21.4423 89.2655 25.5515 90.8722C31.8077 93.332 39.0166 89.493 39.3152 83.6064C39.4289 81.5163 39.3436 79.4119 39.3578 77.2933V70.8949H58.809C60.7854 84.1183 52.0409 94.8534 39.0877 98.6356Z" fill="white"/>
<path d="M97.1003 32.8748H88.6829L87.5596 35.619C87.1188 36.7138 86.8913 37.4958 86.8913 37.9935C86.8913 38.7044 87.5596 39.0599 88.8819 39.0599H90.3607V40.3538H81.7441V39.0599H82.5262C83.5499 39.0599 84.2466 38.8893 84.6021 38.5338C84.9576 38.1925 85.3983 37.3821 85.9244 36.1166L95.2945 13.125H96.4463L106.271 39.0599H109.044V40.3538H95.8917V39.0599H99.4606L97.1145 32.8748H97.1003ZM89.2516 31.4955H96.5742L93.048 22.225L89.2374 31.4955H89.2516Z" fill="#F1FFFA"/>
<path d="M110.693 13.623H132.817L132.974 22.3533H131.765C130.784 17.391 128.736 14.9169 125.651 14.9169H125.04V39.0461H129.092V40.34H114.489V39.0461H118.513V14.9169H117.916C114.816 14.9169 112.769 17.391 111.774 22.3533H110.551L110.707 13.623H110.693Z" fill="#F1FFFA"/>
<path d="M153.791 27.2588H144.975V39.0603H148.359V40.3542H135.051V39.0603H138.435V14.9169H135.051V13.623H148.359V14.9169H144.975V25.8511H153.791V14.9169H150.45V13.623H163.716V14.9169H160.332V39.0461H163.716V40.34H150.45V39.0461H153.791V27.2445V27.2588Z" fill="#F1FFFA"/>
<path d="M187.871 40.3542H165.434V39.0603H169.059V14.9169H165.434V13.623H179.581V14.9169H175.6V39.0461H178.131C179.539 39.0461 180.576 38.975 181.245 38.8328C181.913 38.6906 182.652 38.2498 183.477 37.5389C184.288 36.8279 184.984 35.9322 185.553 34.8515C186.122 33.7709 186.619 32.5766 187.06 31.2684H188.297L187.885 40.34L187.871 40.3542Z" fill="#F1FFFA"/>
<path d="M200.173 14.9169V26.2208H201.026C203.798 26.2208 205.405 24.6425 205.846 21.5002H207.14V32.4201H205.846C205.618 29.1498 204.012 27.5147 201.026 27.5147H200.173V39.0603H204.737C208.761 39.0603 211.391 36.572 212.628 31.5812H214.007L213.453 40.3542H190.248V39.0603H193.632V14.9169H190.248V13.623H212.628L212.984 21.0736H211.69C210.851 18.5427 209.813 16.8933 208.562 16.0971C207.31 15.3009 205.675 14.9169 203.642 14.9169H200.173Z" fill="#F1FFFA"/>
<path d="M216.581 13.623H238.705L238.862 22.3533H237.653C236.672 17.391 234.625 14.9169 231.539 14.9169H230.928V39.0461H234.98V40.34H220.377V39.0461H224.401V14.9169H223.804C220.705 14.9169 218.657 17.391 217.662 22.3533H216.453L216.61 13.623H216.581Z" fill="#F1FFFA"/>
<path d="M250.634 14.9169V39.0461H254.26V40.34H240.596V39.0461H244.108V14.9169H240.596V13.623H254.26V14.9169H250.634Z" fill="#F1FFFA"/>
<path d="M275.601 13.9355L275.757 21.4146H274.463C273.255 16.8504 271.065 14.5612 267.88 14.5612C266.43 14.5612 265.392 15.1868 264.766 16.4522C264.141 17.7177 263.828 20.2771 263.828 24.1446C263.828 31.325 264.055 35.6475 264.51 37.112C264.965 38.5623 265.989 39.2875 267.61 39.2875C270.909 39.2875 273.34 36.9272 274.876 32.2066H276.17L275.757 40.4534H274.463C274.065 39.9131 273.568 39.3017 272.985 38.6192C271.25 39.9984 269.302 40.6951 267.141 40.6951C264.354 40.6951 261.866 39.4865 259.69 37.0836C257.515 34.6806 256.42 31.3819 256.42 27.2016C256.42 23.0213 257.501 19.6941 259.676 17.1063C261.851 14.5185 264.539 13.2246 267.752 13.2246C269.672 13.2246 271.406 13.8787 272.97 15.1726C273.553 14.746 274.051 14.3337 274.449 13.9213H275.587L275.601 13.9355Z" fill="#F1FFFA"/>
<path d="M101.663 57.416L101.82 64.895H100.526C99.3173 60.3308 97.1277 58.0416 93.9427 58.0416C92.4924 58.0416 91.4544 58.6673 90.8288 59.9327C90.2032 61.1982 89.8904 63.7575 89.8904 67.625C89.8904 74.8197 90.1179 79.1279 90.5729 80.5925C91.0279 82.0428 92.0516 82.7679 93.6725 82.7679C96.9713 82.7679 99.4027 80.4076 100.938 75.687H102.232L101.82 83.9339H100.526C100.128 83.3935 99.6302 82.7821 99.0472 82.0996C97.3125 83.4789 95.3646 84.1756 93.2033 84.1756C90.4165 84.1756 87.9282 82.967 85.7527 80.564C83.5773 78.1611 82.4824 74.8623 82.4824 70.682C82.4824 66.5017 83.563 63.1746 85.7385 60.5868C87.914 57.999 90.6013 56.7051 93.8147 56.7051C95.7342 56.7051 97.4689 57.3591 99.033 58.653C99.6159 58.2265 100.114 57.8141 100.512 57.4018H101.649L101.663 57.416Z" fill="#F1FFFA"/>
<path d="M126.234 83.8204H103.797V82.5265H107.423V58.3974H103.797V57.1035H117.944V58.3974H113.963V82.5265H116.494C117.902 82.5265 118.94 82.4554 119.608 82.3132C120.276 82.1711 121.03 81.7303 121.84 81.0193C122.651 80.3084 123.348 79.4126 123.916 78.332C124.485 77.2514 124.983 76.057 125.423 74.7489H126.661L126.248 83.8204H126.234Z" fill="#F1FFFA"/>
<path d="M143.481 76.3552H135.064L133.94 79.0994C133.5 80.1943 133.272 80.9763 133.272 81.4739C133.272 82.1849 133.94 82.5403 135.263 82.5403H136.742V83.8342H128.125V82.5403H128.907C129.931 82.5403 130.627 82.3697 130.983 82.0143C131.338 81.6588 131.779 80.8625 132.305 79.5971L141.675 56.6055H142.827L152.652 82.5261H155.425V83.82H142.273V82.5261H145.841L143.495 76.341L143.481 76.3552ZM135.632 74.976H142.955L139.429 65.7054L135.618 74.976H135.632Z" fill="#F1FFFA"/>
<path d="M166.616 70.1984V82.5402H170.099V83.8341H156.705V82.5402H160.089V58.4111H156.705V57.1172H170.099C174.393 57.1172 177.322 57.7713 178.886 59.0936C180.45 60.4159 181.232 61.8236 181.232 63.3165C181.232 64.909 180.521 66.274 179.085 67.4115C177.649 68.549 175.502 69.2884 172.63 69.6438V69.7292C174.791 70.2695 176.412 70.9946 177.479 71.8904C178.545 72.7862 179.213 73.7815 179.498 74.8621C179.768 75.9569 179.91 77.2508 179.938 78.758C179.953 80.2652 180.081 81.2036 180.322 81.5591C180.55 81.9146 180.976 82.0994 181.602 82.0994C182.299 82.0994 183.038 81.8861 183.849 81.4454V82.9668C182.54 83.6493 181.104 83.9763 179.526 83.9763C177.45 83.9763 175.787 83.4644 174.55 82.4264C173.298 81.3885 172.63 79.5116 172.545 76.7816C172.459 74.0516 172.104 72.2885 171.478 71.4638C170.853 70.6392 169.715 70.2268 168.052 70.2268H166.616V70.1984ZM166.616 58.3969V68.9045H169.146C170.895 68.9045 172.118 68.5774 172.786 67.9376C173.469 67.2978 173.796 65.819 173.796 63.5156C173.796 61.2122 173.483 59.9041 172.843 59.3069C172.203 58.7097 171.094 58.4111 169.516 58.4111H166.601L166.616 58.3969Z" fill="#F1FFFA"/>
<path d="M195.365 58.3974V82.5265H198.99V83.8204H185.326V82.5265H188.838V58.3974H185.326V57.1035H198.99V58.3974H195.365Z" fill="#F1FFFA"/>
<path d="M200.868 57.1035H222.992L223.149 65.8338H221.94C220.959 60.8715 218.912 58.3974 215.826 58.3974H215.215V82.5265H219.267V83.8204H204.665V82.5265H208.688V58.3974H208.091C204.992 58.3974 202.944 60.8715 201.949 65.8338H200.74L200.897 57.1035H200.868Z" fill="#F1FFFA"/>
<path d="M224.842 57.1041H237.341V58.398H234.241L240.27 69.6876L244.848 60.6445C244.919 60.545 245.033 60.289 245.204 59.8767C245.374 59.4644 245.459 59.1658 245.459 59.0094C245.459 58.597 245.047 58.3837 244.237 58.3837H243.156V57.0898H249.967V58.3837C248.886 58.3837 248.147 58.5117 247.763 58.7819C247.379 59.0378 246.938 59.6634 246.441 60.6587L240.881 71.3796V82.5271H245.004V83.821H230.217V82.5271H234.34V71.7209L226.748 58.398H224.828V57.1041H224.842Z" fill="#F1FFFA"/>
</g>
<defs>
<clipPath id="clip0_2930_1831">
<rect width="276.184" height="100" fill="white"/>
</clipPath>
</defs>
</svg>
