<svg width="411" height="100" viewBox="0 0 411 100" fill="none" xmlns="http://www.w3.org/2000/svg">
<path d="M0 100.001V18.8672H12.1538C16.2593 18.8672 19.8436 19.584 22.8413 21.0503C25.839 22.5166 28.1525 24.7649 29.7816 27.8603C31.4108 30.9558 32.2254 34.931 32.2254 39.8186C32.2254 43.7287 31.7041 47.1174 30.694 50.0174C29.6839 52.9173 27.7289 55.2959 24.8289 57.1206C27.7614 58.7498 29.8794 61.2914 31.1828 64.8104C32.4861 68.3295 33.1052 72.3699 33.1052 76.9642C33.1052 81.5585 32.3884 85.4686 30.9221 88.9225C29.4558 92.3764 27.3379 95.0808 24.5356 97.0033C21.7334 98.9257 18.247 99.9032 14.1414 99.9032H0V100.001ZM11.9257 52.2982C15.2818 52.2982 17.5953 51.3859 18.8661 49.5286C20.1368 47.7039 20.7559 44.9669 20.7559 41.35C20.7559 37.7332 20.1042 35.0288 18.8009 33.2693C17.4975 31.5097 15.2167 30.6625 11.9257 30.6625V52.2982ZM11.9257 88.173C15.5425 88.173 17.8885 87.0978 19.029 84.9472C20.1694 82.7967 20.7559 79.7012 20.7559 75.6934C20.7559 71.6856 20.1694 68.525 19.029 66.407C17.8885 64.2891 15.5099 63.2464 11.9257 63.2464V88.173Z" fill="white"/>
<path d="M40.1752 100.001V18.8672H52.1009C59.2367 18.8672 64.4827 20.8548 67.8714 24.7974C71.2602 28.7401 72.9545 34.5726 72.9545 42.2624C72.9545 46.8241 72.1399 50.7668 70.5433 54.0903C68.9467 57.4139 66.9917 59.8577 64.7108 61.3891L72.8242 99.9684H60.8985L54.1536 65.7554H52.0683V99.9684H40.1426L40.1752 100.001ZM52.1009 54.742C54.3166 54.742 56.0435 54.2533 57.3469 53.2757C58.6502 52.2982 59.5626 50.8971 60.1165 49.105C60.6704 47.3129 60.9311 45.1624 60.9311 42.7186C60.9311 38.8411 60.312 35.876 59.0412 33.7906C57.7704 31.7052 55.457 30.6625 52.1009 30.6625V54.7094V54.742Z" fill="white"/>
<path d="M77.0951 99.9996L89.3466 18.8984H103.912L116.163 99.9996H104.563L102.348 83.4471H90.8781L88.6624 99.9996H77.0625H77.0951ZM92.5398 70.8371H100.718L97.2971 43.5644L96.9712 39.2633H96.3196L95.9937 43.5644L92.5724 70.8371H92.5398Z" fill="white"/>
<path d="M122.516 100.001V18.8672H133.659L144.705 61.1284L145.683 64.8756H146.334V18.8672H157.25V99.9684H147.214L135.06 57.7071L134.083 53.96H133.431V99.9684H122.516V100.001Z" fill="white"/>
<path d="M166.08 100.001V18.8672H178.234C182.046 18.8672 185.305 19.4863 187.944 20.7571C190.583 21.9952 192.734 24.1458 194.33 27.1435C195.959 30.1738 197.132 34.3119 197.849 39.5579C198.566 44.8039 198.925 51.451 198.925 59.4667C198.925 67.4823 198.566 74.162 197.849 79.408C197.132 84.654 195.959 88.7596 194.33 91.7573C192.701 94.755 190.583 96.8729 187.944 98.1111C185.305 99.3493 182.046 99.9684 178.234 99.9684H166.08V100.001ZM178.006 88.0753C180.938 88.0753 183.024 86.9023 184.229 84.5888C185.435 82.2754 186.184 78.9518 186.445 74.6507C186.706 70.3497 186.836 65.234 186.836 59.3038C186.836 53.3735 186.706 48.1927 186.445 43.9242C186.184 39.6883 185.435 36.4299 184.197 34.149C182.959 31.9007 180.906 30.7603 177.973 30.7603V88.0427L178.006 88.0753Z" fill="white"/>
<path d="M207.135 100.001V18.8672H219.289C223.394 18.8672 226.978 19.584 229.976 21.0503C232.974 22.5166 235.287 24.7649 236.916 27.8603C238.546 30.9558 239.36 34.931 239.36 39.8186C239.36 43.7287 238.839 47.1174 237.829 50.0174C236.819 52.9173 234.864 55.2959 231.964 57.1206C234.896 58.7498 237.014 61.2914 238.318 64.8104C239.621 68.3295 240.24 72.3699 240.24 76.9642C240.24 81.5585 239.523 85.4686 238.057 88.9225C236.591 92.3764 234.473 95.0808 231.67 97.0033C228.868 98.9257 225.382 99.9032 221.276 99.9032H207.135V100.001ZM219.06 52.2982C222.417 52.2982 224.73 51.3859 226.001 49.5286C227.272 47.7039 227.891 44.9669 227.891 41.35C227.891 37.7332 227.239 35.0288 225.936 33.2693C224.632 31.5097 222.351 30.6625 219.06 30.6625V52.2982ZM219.06 88.173C222.677 88.173 225.023 87.0978 226.164 84.9472C227.304 82.7967 227.891 79.7012 227.891 75.6934C227.891 71.6856 227.304 68.525 226.164 66.407C225.023 64.2891 222.645 63.2464 219.06 63.2464V88.173Z" fill="white"/>
<path d="M247.312 100.001V18.8672H259.238C266.373 18.8672 271.619 20.8548 275.008 24.7974C278.397 28.7401 280.091 34.5726 280.091 42.2624C280.091 46.8241 279.277 50.7668 277.68 54.0903C276.083 57.4139 274.128 59.8577 271.848 61.3891L279.961 99.9684H268.035L261.29 65.7554H259.205V99.9684H247.279L247.312 100.001ZM259.238 54.742C261.453 54.742 263.18 54.2533 264.484 53.2757C265.787 52.2982 266.699 50.8971 267.253 49.105C267.807 47.3129 268.068 45.1624 268.068 42.7186C268.068 38.8411 267.449 35.876 266.178 33.7906C264.907 31.7052 262.594 30.6625 259.238 30.6625V54.7094V54.742Z" fill="white"/>
<path d="M286.705 100.001V18.8672H298.631V99.9684H286.705V100.001Z" fill="white"/>
<path d="M383.512 100.001V18.8672H410.752V31.1187H395.405V52.4286H406.451V65.4295H395.405V87.7495H410.752V100.001H383.512Z" fill="white"/>
<path d="M387.162 14.4021L393.092 0H403.812L398.11 14.4021H387.162Z" fill="white"/>
<path d="M370.186 84.8492C367.872 83.2852 365.982 81.4279 364.451 79.3099C367.547 73.8033 369.664 68.3618 370.642 65.527C376.116 49.9519 378.658 30.4667 369.469 22.4837C364.842 18.4759 357.185 17.6939 351.678 20.659C335.777 29.2611 345.422 63.5393 345.846 64.973C347.051 69.1764 348.485 74.1291 350.798 78.9841C350.212 80.0268 349.039 81.7211 346.986 82.9919C343.434 85.175 338.71 85.175 335.158 82.9919C333.105 81.7211 331.932 80.0594 331.346 78.9841C333.659 74.1291 335.093 69.2089 336.299 64.973C336.722 63.5068 346.4 29.2611 330.466 20.659C324.959 17.6613 317.302 18.4759 312.675 22.4837C303.454 30.4993 306.028 49.9519 311.502 65.527C312.48 68.3618 314.598 73.8033 317.693 79.3099C316.129 81.3953 314.272 83.2852 311.926 84.8492C310.264 85.957 308.439 86.8694 306.484 87.5536V99.6748C310.785 98.6322 314.793 96.9378 318.41 94.5266C320.821 92.8974 322.907 91.0727 324.699 89.1177C325.97 90.6165 327.957 92.539 330.825 94.0378C337.113 97.3614 344.998 97.3614 351.287 94.0378C354.155 92.5064 356.142 90.5839 357.413 89.1177C359.205 91.0727 361.258 92.8974 363.702 94.5266C367.286 96.9378 371.294 98.6647 375.595 99.6748V87.5536C373.672 86.8694 371.848 85.9896 370.186 84.8818V84.8492ZM325.122 61.7798C324.764 63.0506 324.373 64.3539 323.982 65.6573C323.461 64.3865 322.939 63.0506 322.483 61.6821C316.879 45.7486 317.661 33.5622 320.333 31.2487C320.919 30.7274 321.962 30.4667 323.004 30.4667C323.721 30.4667 324.438 30.5971 324.959 30.8903C326.328 31.6398 327.99 34.9959 328.022 42.034C328.087 49.0069 326.556 56.7945 325.122 61.7798ZM359.661 61.6821C359.172 63.0506 358.684 64.3865 358.162 65.6573C357.771 64.3539 357.38 63.0506 357.022 61.7472C355.588 56.7945 354.089 49.007 354.122 42.0014C354.187 34.9633 355.816 31.6072 357.217 30.8577C357.739 30.5645 358.456 30.4342 359.172 30.4342C360.215 30.4342 361.258 30.7274 361.844 31.2162C364.516 33.5296 365.266 45.716 359.661 61.6495V61.6821Z" fill="white"/>
</svg>
