<svg width="497" height="100" viewBox="0 0 497 100" fill="none" xmlns="http://www.w3.org/2000/svg">
<g clip-path="url(#clip0_2930_1755)">
<path d="M131.154 88.4618C124.598 88.4618 120.004 85.8112 117.389 80.5276L124.492 76.4809C125.8 79.0962 128.027 80.4216 131.172 80.4216C133.31 80.4216 134.936 79.9091 136.032 78.9019C137.127 77.8946 137.675 76.4633 137.675 74.6432V45.9102H145.839V74.6432C145.839 79.0079 144.461 82.4184 141.722 84.8393C139.018 87.2602 135.501 88.4795 131.172 88.4795L131.154 88.4618Z" fill="white"/>
<path d="M168.777 88.458C164.13 88.458 160.313 87.1504 157.326 84.5174C154.34 81.8844 152.855 78.3679 152.855 73.9678V45.8887H161.019V73.314C161.019 75.5406 161.673 77.2723 162.963 78.5269C164.253 79.7816 166.197 80.4001 168.777 80.4001C171.357 80.4001 173.301 79.7816 174.591 78.5269C175.881 77.2723 176.535 75.5406 176.535 73.314V45.8887H184.769V73.9678C184.769 78.3856 183.285 81.9021 180.298 84.5174C177.312 87.1327 173.477 88.458 168.795 88.458H168.777Z" fill="white"/>
<path d="M206.397 88.4603C202.297 88.4603 198.851 87.5414 196.024 85.7213C193.196 83.9011 191.2 81.3742 189.998 78.1581L197.031 74.0408C198.657 78.2995 201.855 80.42 206.626 80.42C208.853 80.42 210.514 80.0312 211.627 79.236C212.741 78.4408 213.288 77.3629 213.288 76.0199C213.288 74.5532 212.635 73.4223 211.327 72.6271C210.019 71.7965 207.669 70.8953 204.294 69.9411C200.636 68.8278 197.756 67.5378 195.653 66.0711C193.037 64.1273 191.712 61.2646 191.712 57.483C191.712 53.7015 193.037 50.6621 195.706 48.4885C198.374 46.2266 201.608 45.0957 205.425 45.0957C208.765 45.0957 211.716 45.9086 214.313 47.5343C216.893 49.16 218.908 51.4749 220.339 54.4436L213.43 58.4373C211.769 54.8677 209.1 53.0653 205.442 53.0653C203.781 53.0653 202.438 53.4541 201.449 54.2316C200.459 55.0091 199.964 56.0164 199.964 57.2357C199.964 58.5433 200.495 59.6212 201.573 60.4518C202.756 61.2823 204.877 62.1659 207.899 63.0671L210.761 64.0213C211.274 64.1803 212.175 64.5161 213.447 65.0286C214.631 65.4703 215.515 65.8768 216.063 66.2832C218.007 67.4671 219.314 68.7041 220.003 69.9764C221.028 71.6375 221.558 73.6166 221.558 75.8785C221.558 79.7308 220.145 82.7879 217.317 85.0674C214.49 87.3293 210.85 88.4603 206.414 88.4603H206.397Z" fill="white"/>
<path d="M222.32 45.8887H253.032V53.7523H241.758V87.6098H233.524V53.7523H222.32V45.8887Z" fill="white"/>
<path d="M293.02 87.6294H282.824L268.811 45.8906H277.752L287.948 77.9634L298.091 45.8906H307.086L293.02 87.6294Z" fill="white"/>
<path d="M311.098 87.6294V45.8906H319.332V87.6294H311.098Z" fill="white"/>
<path d="M358.847 87.6294H349.958L341.547 73.1393H335.291V87.6294H327.057V45.8906H343.756C347.608 45.8906 350.895 47.2513 353.598 49.9373C356.302 52.6409 357.645 55.8924 357.645 59.7093C357.645 62.2893 356.903 64.6925 355.436 66.9014C353.97 69.1103 352.026 70.7713 349.587 71.8846L358.829 87.6294H358.847ZM343.756 53.5775H335.291V65.9118H343.756C345.311 65.9118 346.636 65.311 347.749 64.0917C348.863 62.8724 349.41 61.4234 349.41 59.7093C349.41 57.9952 348.845 56.5462 347.749 55.3623C346.636 54.1783 345.311 53.5775 343.756 53.5775Z" fill="white"/>
<path d="M359.674 45.8906H390.386V53.7542H379.112V87.6118H370.877V53.7542H359.674V45.8906Z" fill="white"/>
<path d="M410.535 88.46C405.887 88.46 402.07 87.1523 399.084 84.5194C396.098 81.8864 394.613 78.3699 394.613 73.9698V45.8906H402.777V73.316C402.777 75.5425 403.431 77.2743 404.721 78.5289C406.011 79.7835 407.955 80.402 410.535 80.402C413.115 80.402 415.059 79.7835 416.349 78.5289C417.639 77.2743 418.292 75.5425 418.292 73.316V45.8906H426.527V73.9698C426.527 78.3875 425.043 81.9041 422.056 84.5194C419.07 87.1347 415.235 88.46 410.553 88.46H410.535Z" fill="white"/>
<path d="M468.493 87.6294H459.551L457.042 80.1193H440.413L437.904 87.6294H429.016L443.63 45.8906H453.826L468.493 87.6294ZM448.754 55.3623L443.029 72.4147H454.479L448.754 55.3623Z" fill="white"/>
<path d="M480.776 45.8907V79.7483H496.697V87.6119H472.559V45.873H480.793L480.776 45.8907Z" fill="white"/>
<path d="M21.7735 0.724L69.9446 99.9995L95.9916 46.2974C95.9916 46.2974 85.9015 39.7945 82.9681 25.4634L70.5984 50.3617C64.3252 38.1511 58.0697 25.9405 51.7965 13.7475C50.5772 11.7153 45.6823 4.08148 35.8396 1.13043C29.7078 -0.707349 24.4065 0.105516 21.7559 0.724H21.7735Z" fill="white"/>
<path d="M0.124741 68.26H19.5805C19.3508 76.2826 23.3267 82.3967 28.2039 83.404C31.9678 84.1815 35.2546 81.6899 35.5374 81.4779C36.8804 80.4353 39.2836 77.979 40.3262 65.7507C40.6619 61.8101 40.8917 56.4381 40.4852 50.0059C45.8042 61.0325 51.1231 72.0592 56.4421 83.0859C55.3288 85.2948 50.8404 93.5648 40.821 97.4877C30.8369 101.393 22.0367 98.389 18.856 97.2404C15.9049 96.1801 10.5683 94.1833 6.16821 88.935C-0.776478 80.665 -0.104981 70.6809 0.124741 68.26Z" fill="white"/>
<path d="M98.8512 29.4739C94.4511 28.0249 90.4575 23.4304 90.6872 17.4576C90.9346 11.1844 95.8294 6.23655 101.926 5.75944C108.252 5.24698 113.889 9.62938 114.967 15.8672C115.974 21.7517 112.635 26.7879 108.588 28.7847C108.57 28.4666 108.535 28.1486 108.517 27.8481C108.464 26.9116 108.393 25.975 108.393 25.0385C108.393 24.1903 108.447 23.3597 108.464 22.5115C108.5 21.2215 108.535 19.9139 108.57 18.6239C108.606 16.309 108.641 14.0118 108.659 11.6969C108.659 11.3611 108.659 11.0077 108.659 10.672C108.659 10.4599 108.553 10.3009 108.376 10.2302C108.199 10.1595 108.022 10.2302 107.881 10.3716C106.821 11.5378 106.096 12.8985 105.725 14.4359C105.548 15.1604 105.46 15.9202 105.372 16.6624C105.177 18.3235 105.107 19.9846 105.142 21.6456C105.142 22.3525 105.177 23.0416 105.283 23.7485C105.336 24.0666 105.442 24.367 105.637 24.6497C105.743 24.8087 105.884 24.9501 106.061 25.0208C106.414 25.1268 106.591 25.3919 106.697 25.71C106.803 26.0104 106.874 26.3284 106.856 26.6642C106.821 27.3887 106.785 28.1132 106.75 28.82C106.75 29.0498 106.715 29.2795 106.697 29.5092C106.697 29.5799 106.679 29.6152 106.591 29.6506C105.195 30.0747 103.764 30.2691 102.315 30.1807C101.767 30.1454 101.219 30.057 100.671 29.9863C100.601 29.9863 100.548 29.951 100.548 29.8626C100.389 28.4136 100.247 26.9469 100.283 25.4802C100.283 24.7734 100.353 24.0666 100.512 23.3774C100.671 22.6705 101.007 22.0697 101.572 21.6103C101.802 21.4159 102.014 21.2039 102.226 20.9918C102.491 20.7267 102.597 20.391 102.597 20.0376C102.597 18.7299 102.65 17.4046 102.633 16.097C102.633 14.6126 102.58 13.1106 102.544 11.6262C102.544 11.4318 102.491 11.2728 102.297 11.2021C102.05 11.0961 101.767 11.2728 101.749 11.5378C101.749 11.5909 101.749 11.6439 101.749 11.6969C101.749 13.6937 101.749 15.6728 101.749 17.6697C101.749 17.811 101.749 17.9524 101.643 18.0584C101.537 18.1821 101.396 18.2175 101.237 18.1821C101.078 18.1291 100.972 18.0231 100.954 17.864C100.954 17.7934 100.954 17.7404 100.954 17.6697C100.954 15.6905 100.954 13.6937 100.954 11.7146C100.954 11.6615 100.954 11.6085 100.954 11.5555C100.954 11.3258 100.777 11.1844 100.53 11.1844C100.3 11.1844 100.123 11.3435 100.123 11.5732C100.123 11.6262 100.123 11.6615 100.123 11.7146C100.123 13.7114 100.123 15.7082 100.123 17.6873C100.123 17.811 100.088 17.9347 100.035 18.0408C99.9468 18.1821 99.8054 18.2351 99.6287 18.1998C99.452 18.1645 99.346 18.0584 99.3106 17.8817C99.3106 17.811 99.3106 17.7404 99.3106 17.6697C99.3106 15.6905 99.3106 13.7114 99.3106 11.7499C99.3106 11.6969 99.3106 11.6439 99.3106 11.5909C99.3106 11.3611 99.1339 11.2198 98.9042 11.2198C98.6745 11.2198 98.4978 11.3788 98.4801 11.5909C98.4801 11.6439 98.4801 11.6792 98.4801 11.7322C98.4801 13.7467 98.4801 15.7612 98.4801 17.758C98.4801 17.864 98.4624 17.9701 98.4094 18.0584C98.321 18.2175 98.1443 18.2882 97.9676 18.2528C97.8086 18.2175 97.6849 18.0761 97.6672 17.8994C97.6672 17.8464 97.6672 17.7934 97.6672 17.7404C97.6672 15.7259 97.6672 13.729 97.6672 11.7146C97.6672 11.6439 97.6672 11.5909 97.6672 11.5202C97.6319 11.3081 97.4552 11.1844 97.2431 11.1844C97.0487 11.1844 96.8897 11.3611 96.872 11.5555C96.8544 12.0856 96.8367 12.5981 96.819 13.1282C96.766 15.2664 96.713 17.4046 96.766 19.5428C96.766 19.7195 96.8013 19.9139 96.7837 20.0906C96.7837 20.55 96.9957 20.9035 97.3138 21.2039C97.4905 21.3629 97.6672 21.5219 97.8439 21.681C98.4624 22.1758 98.7628 22.8473 98.9219 23.6071C99.0986 24.579 99.1516 25.5686 99.0986 26.5582C99.0456 27.5301 98.9572 28.4843 98.8865 29.4562C98.8865 29.4562 98.8865 29.4915 98.8865 29.5092L98.8512 29.4739Z" fill="white"/>
</g>
<defs>
<clipPath id="clip0_2930_1755">
<rect width="496.678" height="100" fill="white"/>
</clipPath>
</defs>
</svg>
