<svg width="386" height="100" viewBox="0 0 386 100" fill="none" xmlns="http://www.w3.org/2000/svg">
<g clip-path="url(#clip0_2930_1738)">
<path d="M160.827 71.5286H149.634V36.3789H138.803V31.3145H171.77V36.3789H160.827V71.5286Z" fill="white"/>
<path d="M206.104 71.5288H196.674V67.6664C195.645 69.1248 194.257 70.2916 192.645 71.0512C191.026 71.8109 189.257 72.1956 187.469 72.1699C185.199 72.2052 182.946 71.7564 180.866 70.8557C178.984 69.9935 177.314 68.7338 175.968 67.1632C174.602 65.6022 173.554 63.7848 172.891 61.8167C172.176 59.6883 171.817 57.4574 171.827 55.2137C171.814 52.9764 172.173 50.7551 172.891 48.6364C173.551 46.6683 174.596 44.8509 175.968 43.2899C177.327 41.7609 178.997 40.5397 180.866 39.7063C182.962 38.8248 185.225 38.4145 187.497 38.5043C188.706 38.4883 189.908 38.6806 191.052 39.0652C192.161 39.4274 193.209 39.9563 194.158 40.6326C195.107 41.3154 195.937 42.1455 196.62 43.0943C197.351 44.0623 197.928 45.1393 198.328 46.2836L202.469 39.1742H206.108V71.5224L206.104 71.5288ZM196.62 55.3259C196.62 54.4861 196.62 53.6174 196.479 52.6687C196.399 51.7295 196.258 50.7935 196.059 49.8704C195.854 48.9697 195.575 48.0914 195.219 47.2388C194.863 46.4471 194.392 45.7099 193.818 45.056C193.241 44.4053 192.536 43.8796 191.748 43.5174C190.866 43.1296 189.911 42.9373 188.949 42.9565C187.985 42.9277 187.023 43.1296 186.151 43.5431C185.379 43.9085 184.693 44.431 184.135 45.0816C183.564 45.7419 183.103 46.4888 182.763 47.2933C182.385 48.1395 182.096 49.021 181.894 49.9249C181.696 50.848 181.555 51.784 181.475 52.7232C181.475 53.6463 181.334 54.5149 181.334 55.3259C181.334 56.1368 181.334 57.0343 181.475 57.9575C181.558 58.8966 181.699 59.8326 181.894 60.7557C182.096 61.65 182.385 62.5219 182.763 63.3584C183.103 64.1694 183.564 64.9259 184.135 65.5958C184.699 66.2368 185.382 66.7593 186.151 67.1343C187.033 67.5254 187.988 67.7177 188.949 67.6953C189.844 67.7081 190.725 67.5061 191.523 67.1087C192.277 66.6888 192.95 66.1407 193.511 65.4868C194.081 64.7944 194.562 64.0348 194.937 63.2206C195.703 61.5058 196.203 59.6851 196.421 57.8196C196.54 56.9959 196.604 56.1625 196.617 55.3291L196.62 55.3259Z" fill="white"/>
<path d="M248.249 55.4372C248.268 57.6809 247.919 59.9118 247.214 62.0402C246.537 64.0018 245.493 65.8161 244.137 67.3867C242.768 68.9188 241.088 70.1368 239.21 70.9702C237.136 71.8709 234.896 72.3197 232.633 72.2844C231.424 72.2844 230.225 72.0985 229.078 71.7235C227.963 71.3613 226.914 70.8228 225.972 70.1272C225.023 69.4477 224.183 68.6271 223.481 67.6912C222.747 66.7296 222.18 65.6494 221.802 64.5019L217.603 71.5248H213.965V27.4258H223.424V43.1255C224.437 41.6543 225.831 40.4843 227.453 39.7407C229.078 39.0002 230.844 38.6284 232.629 38.6509C234.892 38.6028 237.136 39.0515 239.207 39.965C241.082 40.7856 242.762 41.9972 244.133 43.5198C245.496 45.084 246.541 46.9014 247.211 48.8663C247.919 50.985 248.268 53.2095 248.246 55.4436L248.249 55.4372ZM238.681 55.4372V52.8345C238.604 51.8921 238.457 50.9561 238.232 50.0362C238.04 49.1323 237.761 48.2508 237.393 47.4046C237.05 46.6033 236.588 45.8564 236.021 45.1929C235.466 44.5423 234.78 44.0198 234.005 43.6544C233.133 43.2409 232.171 43.039 231.206 43.0678C230.309 43.0454 229.421 43.2569 228.632 43.6832C227.87 44.0775 227.193 44.6192 226.645 45.2795C226.059 45.975 225.568 46.7475 225.19 47.5745C224.796 48.4271 224.485 49.3182 224.267 50.2317C224.017 51.1485 223.84 52.0844 223.735 53.03C223.629 53.8473 223.571 54.6679 223.568 55.4917V58.2899C223.648 59.2323 223.796 60.1683 224.017 61.0882C224.209 61.9921 224.488 62.8736 224.857 63.7198C225.206 64.5243 225.677 65.2712 226.257 65.9314C226.818 66.5789 227.517 67.095 228.299 67.4412C229.181 67.829 230.136 68.0213 231.097 68.0021C232.059 68.0245 233.017 67.8354 233.896 67.4412C234.671 67.0661 235.367 66.5437 235.937 65.9026C236.498 65.2231 236.96 64.4698 237.309 63.6653C237.671 62.8159 237.954 61.9376 238.149 61.0337C238.367 60.1138 238.518 59.1778 238.598 58.2354C238.652 57.1456 238.681 56.2481 238.681 55.4372Z" fill="white"/>
<path d="M283.818 71.5286H254.967V31.3145H266.16V66.4064H283.93L283.818 71.5286Z" fill="white"/>
<path d="M318.099 49.8674C318.157 52.1785 317.301 54.419 315.721 56.1082C314.981 56.8999 314.122 57.5699 313.176 58.0955C312.186 58.6372 311.147 59.0764 310.07 59.4097C308.964 59.7591 307.833 60.0123 306.685 60.1662C305.563 60.3072 304.432 60.3809 303.3 60.3906C301.916 60.3873 300.531 60.2848 299.159 60.0828C297.794 59.8809 296.447 59.5732 295.13 59.1597C295.338 60.3553 295.665 61.5284 296.111 62.6567C296.55 63.6824 297.156 64.628 297.903 65.455C298.691 66.2916 299.643 66.9583 300.701 67.4134C301.935 67.9231 303.259 68.1699 304.592 68.141C307.438 68.1378 310.115 66.7884 311.811 64.503C312.394 63.7562 312.865 62.926 313.211 62.0413L317.298 63.5254C316.702 64.9549 315.836 66.2563 314.753 67.3589C313.692 68.4167 312.474 69.3046 311.144 69.9905C309.778 70.6925 308.333 71.2214 306.833 71.5579C305.355 71.8881 303.842 72.058 302.326 72.0612C299.989 72.0836 297.672 71.6573 295.499 70.8015C293.492 70.0226 291.662 68.8398 290.126 67.3301C288.601 65.8108 287.392 64.003 286.572 62.0124C284.854 57.65 284.854 52.8003 286.572 48.4411C287.386 46.4377 288.594 44.6203 290.126 43.0946C291.671 41.5945 293.498 40.4149 295.499 39.6232C297.675 38.777 299.992 38.3603 302.326 38.3923C303.544 38.3923 304.759 38.4789 305.964 38.6456C307.198 38.8026 308.413 39.0655 309.602 39.4277C310.756 39.7835 311.871 40.2546 312.932 40.8284C313.984 41.3797 314.929 42.1073 315.731 42.9824C316.51 43.7965 317.135 44.7453 317.577 45.7806C318.032 47.0916 318.212 48.4827 318.109 49.8674H318.099ZM294.845 56.2204C296.021 56.4736 297.169 56.6948 298.316 56.8358C299.476 56.9801 300.643 57.057 301.813 57.0602C302.961 57.0666 304.105 56.9544 305.227 56.7236C306.224 56.5121 307.176 56.1114 308.025 55.5473C308.804 54.9703 309.429 54.2107 309.842 53.3356C310.323 52.2746 310.554 51.1143 310.516 49.9508C310.535 48.9251 310.384 47.9058 310.067 46.9281C309.801 46.0595 309.352 45.2582 308.753 44.5786C308.144 43.9215 307.4 43.4055 306.57 43.0689C305.631 42.6811 304.621 42.492 303.605 42.508C302.64 42.508 301.688 42.7067 300.807 43.0946C299.976 43.4824 299.226 44.0241 298.595 44.6908C297.931 45.3671 297.374 46.1396 296.944 46.9858C296.473 47.8801 296.088 48.8161 295.797 49.7841C295.518 50.7008 295.303 51.6368 295.152 52.5824C295.034 53.5119 294.97 54.4447 294.957 55.3806V55.8294C294.816 55.9704 294.845 55.9704 294.845 56.2204Z" fill="white"/>
<path d="M351.764 61.2302C351.774 62.506 351.565 63.7753 351.149 64.9805C350.758 66.003 350.187 66.9518 349.469 67.7787C348.754 68.5929 347.902 69.2724 346.95 69.7949C345.966 70.3558 344.924 70.8078 343.844 71.1379C342.706 71.4681 341.549 71.7117 340.372 71.8655C339.174 72.0066 337.968 72.0835 336.763 72.0899C335.34 72.0995 333.917 71.9969 332.51 71.7822C331.308 71.5835 330.135 71.2437 329.013 70.7757C327.839 70.2981 326.714 69.7083 325.653 69.0128C324.564 68.2852 323.33 67.3909 321.961 66.2145L327.557 61.7367C328.07 62.7015 328.74 63.5733 329.545 64.3106C330.343 65.0478 331.205 65.7113 332.119 66.2979C332.939 66.8171 333.811 67.2466 334.721 67.5864C335.372 67.8525 336.061 68.0031 336.763 68.0352H338.218L339.869 67.8685C340.42 67.7819 340.962 67.6505 341.491 67.4774C342.007 67.3268 342.498 67.1024 342.946 66.8043C343.353 66.5126 343.693 66.1408 343.953 65.7145C344.132 65.2914 344.219 64.833 344.206 64.3715C344.212 63.7849 344.046 63.2111 343.732 62.7207C343.389 62.2303 342.949 61.8104 342.443 61.4899C341.895 61.102 341.289 60.8007 340.651 60.5956C339.994 60.3392 339.321 60.1244 338.635 59.9513L336.677 59.4481L335.026 59.057L332.228 58.3006C331.276 58.0473 330.352 57.7685 329.429 57.4319C328.465 57.1306 327.529 56.7492 326.631 56.2844C325.817 55.8581 325.064 55.3196 324.394 54.6881C323.015 53.3227 322.259 51.4508 322.294 49.5115C322.233 47.6877 322.656 45.8831 323.525 44.2772C324.326 42.8893 325.461 41.7258 326.827 40.8924C328.243 40.0141 329.808 39.4083 331.446 39.1006C333.186 38.7416 334.959 38.5621 336.734 38.5685C338.029 38.5685 339.324 38.6903 340.597 38.9307C343.276 39.3859 345.847 40.3347 348.181 41.729C349.229 42.3989 350.171 43.2195 350.979 44.165L345.382 48.6974C344.998 47.6877 344.459 46.7453 343.786 45.8991C343.167 45.1459 342.44 44.4856 341.632 43.9407C340.901 43.4406 340.1 43.056 339.254 42.7932C338.526 42.5752 337.773 42.4534 337.016 42.431H334.75C333.949 42.4822 333.157 42.6425 332.401 42.9053C331.689 43.1554 331.048 43.5656 330.526 44.1073C329.612 45.21 329.487 46.7646 330.218 47.9986C330.529 48.489 330.939 48.9057 331.42 49.2295C331.952 49.6013 332.539 49.893 333.154 50.0981C333.798 50.3225 334.442 50.5469 335.112 50.7135L337.071 51.1879C337.686 51.1879 338.273 51.4411 338.779 51.579L341.578 52.3354C342.53 52.5887 343.482 52.8675 344.376 53.2041C345.337 53.5118 346.273 53.8964 347.174 54.3516C348.014 54.7683 348.786 55.3068 349.469 55.9478C350.117 56.5857 350.649 57.3358 351.037 58.1595C351.505 59.1179 351.755 60.1693 351.764 61.2366V61.2302Z" fill="white"/>
<path d="M385.456 61.2295C385.465 62.5053 385.257 63.7746 384.84 64.9798C384.449 66.0023 383.878 66.9511 383.16 67.778C382.452 68.5986 381.596 69.2813 380.641 69.7942C379.657 70.3551 378.615 70.8071 377.535 71.1372C376.397 71.4674 375.24 71.711 374.064 71.8648C372.865 72.0059 371.66 72.0828 370.455 72.0892C369.031 72.0988 367.608 71.9963 366.201 71.7815C365.002 71.5764 363.829 71.2398 362.704 70.775C361.531 70.2974 360.406 69.7077 359.345 69.0121C358.255 68.2845 357.021 67.3902 355.652 66.2138L361.249 61.736C361.762 62.7008 362.432 63.5726 363.236 64.3099C364.034 65.0471 364.897 65.7106 365.81 66.2972C366.631 66.8164 367.502 67.246 368.413 67.5857C369.063 67.8518 369.753 68.0024 370.455 68.0345H371.91L373.561 67.8678C374.118 67.778 374.673 67.6466 375.211 67.4767C375.718 67.3229 376.195 67.0953 376.638 66.8036C377.045 66.5119 377.385 66.1401 377.644 65.7138C377.901 65.2234 378.029 64.6721 378.01 64.1176C378.016 63.531 377.849 62.9572 377.535 62.4668C377.192 61.9764 376.753 61.5565 376.247 61.236C375.708 60.8481 375.112 60.5468 374.484 60.3417C373.817 60.0852 373.134 59.8705 372.442 59.6974L370.483 59.1942L368.833 58.8031L366.034 58.0467C365.082 57.7934 364.159 57.5146 363.236 57.178C362.271 56.8767 361.335 56.4921 360.438 56.0305C359.624 55.6042 358.87 55.0657 358.201 54.4342C357.569 53.7932 357.056 53.0431 356.691 52.2226C356.281 51.2866 356.082 50.2769 356.104 49.2576C356.037 47.4306 356.473 45.6196 357.364 44.0233C358.146 42.6322 359.274 41.4655 360.637 40.6385C362.053 39.7666 363.618 39.1608 365.256 38.8467C366.996 38.4877 368.769 38.3082 370.544 38.3146C371.849 38.3146 373.15 38.4396 374.436 38.6768C377.106 39.1384 379.667 40.0872 381.991 41.4751C383.039 42.145 383.981 42.9656 384.789 43.9111L379.192 48.4435C378.817 47.4306 378.279 46.485 377.596 45.6452C376.984 44.8856 376.256 44.222 375.442 43.6868C374.711 43.1867 373.91 42.8021 373.064 42.5392C372.336 42.3213 371.583 42.1995 370.826 42.177H368.56C367.759 42.2283 366.967 42.3886 366.211 42.6514C365.502 42.9079 364.864 43.3181 364.336 43.8534C363.451 44.9657 363.329 46.5042 364.028 47.7447C364.339 48.2351 364.749 48.6518 365.23 48.9756C365.762 49.3474 366.349 49.6391 366.964 49.8442C367.608 50.0686 368.252 50.2929 368.922 50.4596L370.881 50.934C371.496 50.934 372.083 51.1872 372.589 51.3251L375.388 52.0815C376.34 52.3348 377.292 52.6136 378.186 52.9502C379.147 53.2579 380.083 53.6425 380.984 54.0977C381.882 54.5881 382.696 55.2228 383.391 55.9728C384.039 56.6107 384.571 57.3607 384.959 58.1845C385.347 59.1525 385.516 60.1942 385.462 61.236L385.456 61.2295Z" fill="white"/>
<path d="M92.9951 34.7285L43.0432 63.0476C41.245 64.0733 40.6167 66.3619 41.6392 68.1633C41.6392 68.1633 41.6392 68.1665 41.6424 68.1697L47.7422 78.9717C48.7775 80.7571 51.0533 81.3917 52.8643 80.3981L61.82 75.3336C62.7528 74.7567 63.9772 75.0452 64.5542 75.9779C64.5766 76.0132 64.599 76.0516 64.6183 76.0901C67.0191 80.2891 65.5606 85.642 61.3617 88.0428C61.3456 88.0524 61.3328 88.0588 61.3168 88.0684L42.12 99.0659C38.4627 101.076 33.8695 99.739 31.8598 96.0818C31.2604 94.9887 30.9398 93.7643 30.927 92.5174V34.1707C30.927 32.1001 29.2474 30.4205 27.1768 30.4205H14.7241C12.6534 30.4045 10.961 32.0712 10.945 34.1419C10.945 34.1515 10.945 34.1611 10.945 34.1707V44.4406C10.945 45.5529 10.0443 46.4568 8.92881 46.4568C4.05991 46.5177 0.0660598 42.62 0.00195312 37.7511C0.00195312 37.7222 0.00195312 37.6934 0.00195312 37.6678V17.2658C0.0179798 13.1085 3.39961 9.7493 7.55692 9.76533C8.83265 9.76853 10.0827 10.0987 11.195 10.7173L61.3424 39.1775C63.1406 40.2064 65.4324 39.5813 66.4581 37.7864C66.4581 37.7864 66.4581 37.7832 66.4613 37.7799L72.5899 26.978C73.6124 25.1766 72.981 22.888 71.1796 21.8655C71.1732 21.8655 71.17 21.8591 71.1636 21.8558L62.2367 16.7914C61.2879 16.2401 60.9642 15.0253 61.5155 14.0765C61.5315 14.0477 61.5476 14.022 61.5668 13.9932C63.942 9.77815 69.2852 8.29087 73.497 10.666C73.5131 10.6756 73.5259 10.6821 73.5419 10.6917L93.1297 21.8847C96.6524 24.0932 97.7198 28.7377 95.5145 32.2604C94.8798 33.2732 94.0144 34.1195 92.9919 34.7285H92.9951Z" fill="white"/>
<path d="M26.5877 32.5449H15.2536C14.064 32.5449 13.0996 33.5093 13.0996 34.6989V46.033C13.0996 47.2226 14.064 48.1869 15.2536 48.1869H26.5877C27.7773 48.1869 28.7416 47.2226 28.7416 46.033V34.6989C28.7416 33.5093 27.7773 32.5449 26.5877 32.5449Z" fill="white"/>
<path d="M15.2536 50.3723H26.5877C27.7768 50.3723 28.7416 51.3372 28.7416 52.5263V90.8653C28.7416 91.6538 28.1038 92.2917 27.3153 92.2917H26.5877C19.1385 92.2917 13.0996 86.2529 13.0996 78.8037V52.4975C13.1156 51.3179 14.074 50.3691 15.2536 50.3691V50.3723Z" fill="white"/>
<path d="M54.4179 59.0578L44.5493 64.632C43.5135 65.2171 43.1481 66.5311 43.7332 67.5669L49.3075 77.4354C49.8925 78.4712 51.2065 78.8366 52.2423 78.2515L62.1109 72.6773C63.1467 72.0922 63.512 70.7782 62.927 69.7424L57.3527 59.8739C56.7676 58.8381 55.4537 58.4727 54.4179 59.0578Z" fill="white"/>
<path d="M64.8031 68.6945L59.229 58.8253C58.6425 57.79 59.0079 56.4758 60.0464 55.8892L93.4268 37.0322C94.1127 36.6444 94.9845 36.888 95.3724 37.5739L95.7314 38.2086C99.3951 44.6962 97.1065 52.9243 90.6221 56.588L67.7424 69.5119C66.7071 70.0984 65.3929 69.733 64.8063 68.6945H64.8031Z" fill="white"/>
<path d="M56.8191 18.6279L51.2465 28.4974C50.6616 29.5333 51.0273 30.8472 52.0632 31.4321L61.9327 37.0046C62.9686 37.5895 64.2825 37.2239 64.8674 36.188L70.4399 26.3185C71.0248 25.2826 70.6592 23.9687 69.6233 23.3838L59.7538 17.8112C58.7179 17.2263 57.404 17.592 56.8191 18.6279Z" fill="white"/>
<path d="M54.9676 17.5989L49.3968 27.4682C48.8102 28.5035 47.496 28.8689 46.4607 28.2855L13.0739 9.43496C12.388 9.04711 12.1444 8.17526 12.5322 7.48932L12.8912 6.85466C16.5517 0.370273 24.7798 -1.91834 31.2674 1.74216C31.2994 1.76139 31.3315 1.78062 31.3635 1.79665L54.1471 14.6597C55.1824 15.2462 55.5478 16.5604 54.9644 17.5957L54.9676 17.5989Z" fill="white"/>
</g>
<defs>
<clipPath id="clip0_2930_1738">
<rect width="385.464" height="100" fill="white"/>
</clipPath>
</defs>
</svg>
