<svg width="235" height="100" viewBox="0 0 235 100" fill="none" xmlns="http://www.w3.org/2000/svg">
<g clip-path="url(#clip0_2930_1772)">
<path d="M225.183 1.55284C210.777 15.531 196.377 29.5145 181.972 43.4927C177.016 48.2963 184.671 55.7939 189.621 50.9794C204.026 37.0013 218.426 23.0177 232.832 9.03959C237.787 4.23596 230.132 -3.26161 225.183 1.55284Z" fill="white"/>
<path d="M189.225 51.554C199.319 41.1948 216.002 46.1337 220.557 59.203C225.301 72.8241 214.309 86.8672 200.542 89.1013C185.293 91.5735 173.3 80.511 170.519 66.5437C167.474 51.3051 170.806 34.6872 176.421 20.4061C178.931 14.0445 168.464 11.2803 165.975 17.5931C155.659 43.813 151.483 90.2481 187.748 99.0007C202.327 102.517 218.09 96.5285 226.513 84.4113C234.936 72.2994 234.216 56.0276 224.344 44.9869C213.238 32.5721 193.19 32.1393 181.565 44.0672C176.762 49.0061 184.4 56.5037 189.214 51.554H189.225Z" fill="white"/>
<path d="M178.633 65.7316C179.044 75.4254 187.105 83.2908 197.215 82.8148C205.416 82.4307 212.172 76.8535 214.763 69.3722C216.651 63.9411 207.861 61.5987 205.984 67.0028C202.873 75.9501 188.181 76.3342 187.732 65.7262C187.489 60.0138 178.384 59.9813 178.628 65.7262L178.639 65.737L178.633 65.7316Z" fill="white"/>
<path d="M16.771 51.4062L17.9827 47.5871C21.0553 47.5871 23.5869 47.4789 25.5776 47.2625C27.5629 47.0137 29.1046 46.6404 30.1919 46.1427C31.3117 45.6126 32.069 44.9472 32.4747 44.1412C32.9075 43.3028 33.0968 42.2912 33.0319 41.1119L32.1447 17.1695H35.9206L36.851 40.6954C36.9105 42.3399 36.7104 43.8329 36.2452 45.169C35.7799 46.4727 34.8495 47.5925 33.4484 48.5229C32.0528 49.4534 30.0188 50.1674 27.3465 50.6651C24.6742 51.1628 21.1526 51.4116 16.771 51.4116V51.4062ZM15.5592 40.9226L14.6721 37.9852C15.9758 37.6444 17.0306 37.3469 17.842 37.0981C18.648 36.8492 19.2215 36.6166 19.5677 36.4002C19.9409 36.1514 20.1248 35.9026 20.1248 35.6537C20.1248 35.3129 19.9409 34.9992 19.5677 34.7233C19.2269 34.415 18.8212 34.1012 18.3559 33.7929C17.9232 33.4521 17.5175 33.0626 17.1442 32.6298C16.8034 32.1971 16.6303 31.6669 16.6303 31.0448C16.6303 30.4877 16.7872 29.9088 17.0955 29.3192C17.4363 28.6971 18.026 28.0588 18.8644 27.4097C19.7029 26.7281 20.8822 26.014 22.4022 25.2675L23.8466 27.9236C22.4185 28.6052 21.3636 29.1948 20.6766 29.6925C20.0221 30.1577 19.6975 30.5796 19.6975 30.9529C19.6975 31.2342 19.8706 31.5263 20.2114 31.84C20.5846 32.1484 20.9904 32.4946 21.4231 32.8624C21.8883 33.2357 22.2941 33.6684 22.6348 34.1661C23.0081 34.6313 23.192 35.1885 23.192 35.8431C23.192 36.2758 23.1001 36.714 22.9107 37.1467C22.7268 37.5525 22.3536 37.969 21.791 38.4072C21.2608 38.8129 20.5035 39.2294 19.5082 39.6676C18.5128 40.0733 17.1929 40.4898 15.5484 40.928L15.5592 40.9226ZM16.771 51.4062C14.0067 51.4062 11.567 51.2223 9.45731 50.849C7.37465 50.5082 5.6382 49.9619 4.23714 49.2208C2.84149 48.4742 1.78123 47.5114 1.06717 46.3321C0.353121 45.1204 -0.00390625 43.6598 -0.00390625 41.9558C-0.00390625 41.1768 0.0555982 40.387 0.180017 39.581C0.304435 38.7426 0.461311 37.9041 0.645234 37.0656C0.861614 36.2271 1.07799 35.4211 1.29978 34.6422L4.79432 35.5293C4.6699 35.9945 4.52925 36.5517 4.37238 37.2063C4.2155 37.8283 4.07486 38.4667 3.95044 39.1158C3.85848 39.7704 3.80979 40.36 3.80979 40.8847C3.80979 42.5022 4.2155 43.8058 5.02152 44.7958C5.85999 45.7587 7.30433 46.4727 9.35453 46.9379C11.4047 47.3707 14.2772 47.5925 17.9719 47.5925L18.9023 49.924L16.7601 51.417L16.771 51.4062ZM38.6902 61.2352L37.3379 57.6974C39.6044 56.9509 41.4815 56.0962 42.9746 55.1333C44.4946 54.1704 45.6901 53.148 46.5611 52.0607C47.459 50.9734 48.0974 49.8699 48.4706 48.7555C48.8439 47.6087 49.0278 46.5052 49.0278 45.4503C49.0278 43.9303 48.687 42.3886 48.0054 40.836C47.3509 39.251 46.626 37.7634 45.8146 36.3624L49.2171 34.6367C49.8068 35.7241 50.3207 36.7951 50.7534 37.85C51.2186 38.9048 51.6244 39.9002 51.9652 40.8306C52.3384 41.7611 52.6305 42.6158 52.8523 43.3947C53.2851 44.7309 53.8477 45.6451 54.5293 46.1427C55.2433 46.608 56.2062 46.8406 57.4179 46.8406C58.0725 46.8406 58.5377 47.0245 58.8136 47.3978C59.1219 47.7386 59.2788 48.1605 59.2788 48.6582C59.2788 49.1558 59.0624 49.6211 58.6243 50.0538C58.1915 50.4595 57.6289 50.6597 56.9473 50.6597C55.5787 50.6597 54.4643 50.4271 53.5934 49.9619C52.7549 49.4642 52.1166 48.8259 51.6839 48.0523C51.2511 47.2463 50.9536 46.4078 50.7967 45.5369L52.2897 46.3754C52.2897 48.4256 51.8245 50.2864 50.8941 51.9634C49.9961 53.6728 48.8276 55.1441 47.3995 56.3883C45.9714 57.6596 44.4784 58.7036 42.9259 59.5096C41.3734 60.3156 39.9615 60.889 38.6848 61.2352H38.6902ZM56.9744 50.6597L57.4396 46.8406C58.9921 46.8406 60.2038 46.7324 61.0748 46.516C61.9457 46.2672 62.5948 45.8182 63.033 45.1636C63.4982 44.482 63.8715 43.5029 64.1528 42.2263C64.4341 40.955 64.7748 39.2889 65.1752 37.2441L68.8103 37.9419C68.6859 38.4991 68.5453 39.1212 68.3884 39.8028C68.2315 40.4844 68.0909 41.1714 67.9665 41.853C67.8745 42.5076 67.8258 43.081 67.8258 43.5786C67.8258 44.0439 67.8583 44.4766 67.9178 44.8823C67.9773 45.288 68.2153 45.6288 68.6156 45.9047C69.0213 46.186 69.7029 46.4186 70.6658 46.6026C71.6287 46.7594 73.0081 46.8352 74.8095 46.8352C75.464 46.8352 75.9292 47.0191 76.2051 47.3923C76.5135 47.7331 76.6703 48.1551 76.6703 48.6528C76.6703 49.1504 76.454 49.6156 76.0158 50.0484C75.583 50.4541 75.0204 50.6543 74.3388 50.6543C72.4455 50.6543 70.9363 50.5623 69.8219 50.373C68.7021 50.1566 67.8475 49.8428 67.2578 49.4425C66.7006 49.0368 66.2949 48.5446 66.0461 47.9495C65.8297 47.3274 65.6566 46.6134 65.5322 45.8074L66.9278 45.8993C66.4302 46.8947 65.8892 47.7007 65.2996 48.3228C64.7424 48.9449 64.0878 49.4263 63.3413 49.7671C62.5948 50.1079 61.6968 50.3405 60.642 50.4649C59.6196 50.5894 58.3916 50.6489 56.9635 50.6489L56.9744 50.6597ZM68.713 59.4609C68.0584 59.4609 67.5012 59.2283 67.036 58.7631C66.6033 58.3303 66.3815 57.8002 66.3815 57.1781C66.3815 56.556 66.5978 56.0151 67.036 55.5499C67.5012 55.0847 68.0584 54.852 68.713 54.852C69.3675 54.852 69.8598 55.0847 70.2979 55.5499C70.7632 56.0151 70.9958 56.5614 70.9958 57.1781C70.9958 57.7948 70.7632 58.3249 70.2979 58.7631C69.8652 59.2283 69.3351 59.4609 68.713 59.4609ZM62.3298 59.4609C61.6752 59.4609 61.118 59.2283 60.6528 58.7631C60.2201 58.3303 59.9983 57.8002 59.9983 57.1781C59.9983 56.556 60.2146 56.0151 60.6528 55.5499C61.118 55.0847 61.6752 54.852 62.3298 54.852C62.9843 54.852 63.4766 55.0847 63.9147 55.5499C64.38 56.0151 64.6126 56.5614 64.6126 57.1781C64.6126 57.7948 64.38 58.3249 63.9147 58.7631C63.482 59.2283 62.9519 59.4609 62.3298 59.4609ZM74.3497 50.6597L74.8149 46.8406C75.8102 46.8406 76.6162 46.7811 77.2383 46.6567C77.8604 46.4998 78.3743 46.1427 78.7746 45.5856C79.2074 44.9959 79.6131 44.0817 79.9864 42.8375C80.3596 41.5934 80.7924 39.8569 81.29 37.6174L84.7846 38.5965C84.6602 39.1266 84.5195 39.7325 84.3626 40.4141C84.2058 41.0686 84.0651 41.7502 83.9407 42.4643C83.8163 43.1459 83.7568 43.7842 83.7568 44.3738C83.7568 45.1528 84.0543 45.7533 84.6439 46.1914C85.2336 46.6242 86.3047 46.846 87.8572 46.846C88.7876 46.846 89.5504 46.7702 90.14 46.6134C90.7296 46.4565 91.2111 46.0832 91.5843 45.4936C91.99 44.904 92.3471 43.9573 92.6554 42.6536C92.9637 41.3499 93.2937 39.5648 93.6345 37.2982L97.1723 37.9528C97.0804 38.5099 96.9722 39.1969 96.8478 40.003C96.7234 40.809 96.5989 41.6204 96.4745 42.4264C96.3825 43.2054 96.3339 43.8545 96.3339 44.3847C96.3339 44.8174 96.4258 45.2394 96.6152 45.6451C96.8315 46.0183 97.2373 46.3104 97.8269 46.5322C98.449 46.7486 99.3632 46.8568 100.575 46.8568C101.473 46.8568 102.252 46.7486 102.906 46.5322C103.588 46.3158 104.102 45.9101 104.443 45.3205C104.816 44.7309 105 43.9086 105 42.8538C105 41.6745 104.719 40.1977 104.161 38.4288C103.631 36.6274 103.025 34.8423 102.344 33.0734L106.12 31.6777C106.525 32.6731 106.899 33.8037 107.239 35.0803C107.613 36.3516 107.921 37.612 108.17 38.8562C108.419 40.1003 108.543 41.1876 108.543 42.1181C108.543 43.5462 108.359 44.8066 107.986 45.8939C107.613 46.9812 107.088 47.8792 106.401 48.5933C105.719 49.2748 104.881 49.805 103.886 50.1782C102.89 50.519 101.776 50.6921 100.532 50.6921C99.0711 50.6921 97.8756 50.519 96.9451 50.1782C96.0147 49.8374 95.3007 49.3235 94.803 48.6419C94.3053 47.9279 93.9807 47.0245 93.8239 45.9426H95.4088C94.8192 47.2787 94.1971 48.2849 93.548 48.9719C92.8934 49.6535 92.0874 50.1187 91.1245 50.3676C90.1616 50.5839 88.8904 50.6921 87.3054 50.6921C86.5264 50.6921 85.688 50.5677 84.79 50.3189C83.9191 50.07 83.1617 49.5886 82.5072 48.8745C81.8526 48.128 81.4686 47.0245 81.3441 45.5693L82.7398 45.288C82.2097 46.873 81.5605 48.0523 80.7816 48.8259C80.035 49.5724 79.1371 50.07 78.0822 50.3189C77.0274 50.5677 75.7832 50.6921 74.3551 50.6921L74.3497 50.6597ZM94.4297 25.0349C93.7752 25.0349 93.218 24.8185 92.7528 24.3803C92.32 23.9151 92.0982 23.3688 92.0982 22.7521C92.0982 22.1354 92.3146 21.589 92.7528 21.1238C93.218 20.6586 93.7752 20.426 94.4297 20.426C95.0843 20.426 95.5765 20.6586 96.0147 21.1238C96.4799 21.589 96.7125 22.1354 96.7125 22.7521C96.7125 23.3688 96.4799 23.9151 96.0147 24.3803C95.5819 24.8131 95.0518 25.0349 94.4297 25.0349ZM91.2598 30.1631C90.6052 30.1631 90.048 29.9467 89.5828 29.5085C89.1501 29.0433 88.9283 28.497 88.9283 27.8803C88.9283 27.2636 89.1446 26.7172 89.5828 26.252C90.048 25.7868 90.6052 25.5542 91.2598 25.5542C91.9143 25.5542 92.4066 25.7868 92.8447 26.252C93.31 26.7172 93.5426 27.2636 93.5426 27.8803C93.5426 28.497 93.31 29.0433 92.8447 29.5085C92.412 29.9413 91.8818 30.1631 91.2598 30.1631ZM97.5943 30.1631C96.9397 30.1631 96.3826 29.9467 95.9173 29.5085C95.4846 29.0433 95.2628 28.497 95.2628 27.8803C95.2628 27.2636 95.4792 26.7172 95.9173 26.252C96.3826 25.7868 96.9397 25.5542 97.5943 25.5542C98.2488 25.5542 98.7411 25.7868 99.1793 26.252C99.6445 26.7172 99.8771 27.2636 99.8771 27.8803C99.8771 28.497 99.6445 29.0433 99.1793 29.5085C98.7465 29.9413 98.2164 30.1631 97.5943 30.1631ZM124.436 50.6597C121.953 50.6597 120.044 50.3784 118.708 49.8212C117.404 49.264 116.5 48.3931 116.008 47.2138C115.511 46.0346 115.229 44.5145 115.17 42.6482L114.239 17.1641H118.058L118.989 41.1552C119.048 42.6753 119.189 43.8545 119.411 44.693C119.66 45.499 120.19 46.0616 120.996 46.3699C121.834 46.6783 123.138 46.8352 124.907 46.8352C125.561 46.8352 126.027 47.0191 126.302 47.3923C126.611 47.7331 126.768 48.1551 126.768 48.6528C126.768 49.1504 126.551 49.6156 126.113 50.0484C125.68 50.4541 125.118 50.6543 124.436 50.6543V50.6597ZM124.436 50.6597L124.901 46.8406H129.278C131.112 46.8406 132.556 46.7486 133.611 46.5593C134.698 46.3429 135.488 46.0778 135.986 45.7695C136.516 45.4287 136.856 45.0717 137.008 44.6984C137.192 44.2927 137.289 43.8924 137.289 43.4867C137.289 42.7726 137.008 41.8855 136.451 40.8306C135.921 39.7758 134.822 38.4072 133.146 36.7302C132.275 35.8593 131.404 35.0695 130.538 34.3554C129.667 33.6089 128.861 32.9598 128.115 32.3972C127.401 31.8076 126.827 31.3099 126.389 30.9042C125.956 30.4985 125.734 30.1901 125.734 29.9738C125.734 29.5085 125.767 29.0596 125.826 28.6214C125.918 28.1886 126.027 27.7829 126.151 27.4097C126.308 27.0364 126.492 26.7443 126.708 26.5225C127.33 25.8679 128.12 25.2188 129.083 24.5643C130.078 23.9097 131.225 23.2281 132.529 22.5141C133.865 21.8 135.353 21.0373 137.002 20.2312C138.679 19.3928 140.513 18.4786 142.499 17.4832L144.084 20.9291C141.601 22.1083 139.518 23.1199 137.841 23.9584C136.196 24.7644 134.795 25.4947 133.649 26.1492C132.502 26.7713 131.49 27.361 130.619 27.9181C129.748 28.4753 128.867 29.0974 127.963 29.779L128.661 28.0101C130.619 29.5626 132.339 31.0232 133.833 32.3864C135.353 33.755 136.629 35.0749 137.652 36.3461C138.674 37.5903 139.453 38.8129 139.983 40.0246C140.513 41.2363 140.773 42.4643 140.773 43.7031C140.773 44.3847 140.648 45.1312 140.4 45.9372C140.151 46.7432 139.621 47.5059 138.815 48.22C138.009 48.934 136.797 49.5237 135.179 49.9889C133.562 50.4217 131.393 50.6435 128.656 50.6435H124.415L124.436 50.6597Z" fill="white"/>
<path d="M8.93704 90.5007C6.15115 90.5007 4.01981 89.8515 2.54842 88.5587C1.07704 87.2658 0.335938 85.3725 0.335938 82.8841V76.4955C0.335938 74.0071 1.06081 72.1138 2.51597 70.8209C3.97112 69.528 6.07001 68.8789 8.81803 68.8789C10.7114 68.8789 12.2747 69.1872 13.5081 69.8039C14.7414 70.4206 15.7368 71.3565 16.4941 72.6115L13.9841 74.375C13.3458 73.4175 12.6425 72.7305 11.8636 72.3139C11.1063 71.8758 10.1001 71.6594 8.84508 71.6594C5.51824 71.6594 3.85752 73.2714 3.85752 76.4955V82.8841C3.85752 86.1082 5.53988 87.7202 8.90458 87.7202C10.2407 87.7202 11.3118 87.493 12.1286 87.0332C12.9455 86.5734 13.6487 85.8593 14.2492 84.8856L16.7592 86.7357C15.8233 88.0502 14.7685 89.0022 13.5946 89.6027C12.4208 90.1977 10.8682 90.5007 8.93704 90.5007ZM31.9815 84.6476H23.4129L21.7684 90.1436H18.2468L23.4724 73.2119C23.8078 72.0976 24.1594 71.232 24.5164 70.6154C24.8951 69.9987 25.3332 69.5605 25.8309 69.3008C26.3286 69.025 26.9561 68.8843 27.7134 68.8843C28.4707 68.8843 29.0658 69.025 29.5635 69.3008C30.0611 69.5605 30.4993 69.9987 30.878 70.6154C31.2566 71.232 31.6137 72.0976 31.9545 73.2119L37.153 90.1436H33.6314L31.9869 84.6476H31.9815ZM31.208 82.0186L28.6114 73.2714C28.4924 72.8711 28.3626 72.5844 28.2219 72.4059C28.1029 72.2274 27.9352 72.1354 27.7134 72.1354C27.4916 72.1354 27.3131 72.2274 27.1779 72.4059C27.0372 72.5844 26.9074 72.8711 26.7884 73.2714L24.1918 82.0186H31.208ZM45.7703 90.5007C44.3963 90.5007 43.2333 90.36 42.2758 90.0841C41.3399 89.7866 40.5339 89.3593 39.8577 88.8021C39.1816 88.2449 38.4945 87.5092 37.7967 86.5896L40.1877 84.5881C41.0046 85.7241 41.8214 86.5301 42.6382 87.0061C43.4713 87.4822 44.5099 87.7202 45.7433 87.7202C47.4148 87.7202 48.659 87.4497 49.4758 86.9142C50.2927 86.3786 50.6984 85.551 50.6984 84.4366C50.6984 83.8199 50.5199 83.3223 50.1628 82.9436C49.822 82.5433 49.2162 82.2079 48.3398 81.9266C47.4851 81.6291 46.1977 81.2991 44.4883 80.9421C42.5354 80.5418 41.0857 79.8494 40.1282 78.854C39.1707 77.8587 38.6947 76.5333 38.6947 74.8834C38.6947 73.6717 39.003 72.6169 39.6197 71.7189C40.2364 70.8047 41.1127 70.1069 42.2487 69.6308C43.3847 69.1332 44.7155 68.8843 46.2518 68.8843C48.1235 68.8843 49.6435 69.171 50.8228 69.7498C52.0183 70.3287 52.965 71.1834 53.6574 72.3193L51.3259 74.2289C50.5469 73.3309 49.7842 72.6872 49.0268 72.2869C48.2911 71.8704 47.3553 71.6594 46.2193 71.6594C44.9427 71.6594 43.9581 71.9461 43.2657 72.5249C42.5679 73.0821 42.2217 73.8773 42.2217 74.9159C42.2217 75.8518 42.6112 76.5712 43.3847 77.0635C44.1637 77.5395 45.2348 77.929 46.6088 78.2265C48.3831 78.5835 49.795 78.9839 50.8498 79.422C51.9047 79.8386 52.7323 80.4498 53.3274 81.245C53.9278 82.0402 54.2254 83.1059 54.2254 84.442C54.2254 88.4829 51.407 90.5061 45.7757 90.5061L45.7703 90.5007ZM58.0661 69.2413H61.5877V78.2914H70.8434V69.2413H74.3649V90.1436H70.8434V81.0341H61.5877V90.1436H58.0661V69.2413ZM79.65 69.2413H83.1716V90.1436H79.65V69.2413ZM94.7533 90.1436C92.2271 90.1436 90.3825 89.6081 89.2302 88.5316C88.078 87.4389 87.4992 85.8323 87.4992 83.7226V75.657C87.4992 73.5473 88.078 71.9569 89.2302 70.8804C90.3825 69.7877 92.2271 69.2359 94.7533 69.2359H101.802V72.011H94.7533C93.4767 72.011 92.5354 72.3085 91.9188 72.909C91.3237 73.4878 91.0208 74.402 91.0208 75.657V78.3131H100.428V81.0611H91.0208V83.7172C91.0208 84.9722 91.3183 85.8972 91.9188 86.4922C92.5354 87.071 93.4821 87.3578 94.7533 87.3578H101.921V90.1328H94.7533V90.1436ZM122.234 90.1436H118.501L117.1 85.2751C116.824 84.3014 116.532 83.5441 116.234 83.0085C115.937 82.4513 115.515 82.0348 114.979 81.7535C114.46 81.4776 113.757 81.337 112.859 81.337H109.213V90.1491H105.691V69.2467H114.32C116.667 69.2467 118.42 69.7444 119.578 70.7398C120.73 71.7351 121.309 73.239 121.309 75.2513C121.309 76.6632 120.952 77.7992 120.232 78.6539C119.513 79.5086 118.512 80.0495 117.214 80.2659C118.187 80.6013 118.934 81.1801 119.453 81.9969C119.972 82.8138 120.427 83.9065 120.827 85.2805L122.228 90.1491L122.234 90.1436ZM114.32 78.5565C115.353 78.5565 116.191 78.2806 116.83 77.718C117.468 77.1608 117.787 76.3548 117.787 75.3C117.787 74.2451 117.468 73.4067 116.83 72.8495C116.191 72.2923 115.358 72.011 114.32 72.011H109.213V78.5511H114.32V78.5565ZM135.395 77.453C136.331 77.6531 137.099 77.9723 137.694 78.4104C138.289 78.8486 138.797 79.4437 139.214 80.201C139.652 80.9583 140.09 81.9645 140.529 83.2195L142.828 90.1491H139.274L137.061 83.5495C136.785 82.7164 136.504 82.0673 136.223 81.6075C135.947 81.1476 135.568 80.7798 135.087 80.5039C134.611 80.228 133.94 80.0387 133.085 79.9359L129.38 83.966V90.1491H125.858V69.2467H129.38V79.6114L138.754 69.2467H142.963L135.379 77.4584L135.395 77.453Z" fill="white"/>
</g>
<defs>
<clipPath id="clip0_2930_1772">
<rect width="234.437" height="100" fill="white"/>
</clipPath>
</defs>
</svg>
