<svg width="387" height="100" viewBox="0 0 387 100" fill="none" xmlns="http://www.w3.org/2000/svg">
<g clip-path="url(#clip0_2930_1989)">
<path d="M156.888 42.8955C153.602 42.8955 150.875 41.7905 148.694 39.5947C146.541 37.4133 145.465 34.7009 145.465 31.4575C145.465 28.2141 146.541 25.473 148.694 23.3203C150.875 21.1246 153.602 20.0195 156.888 20.0195C158.883 20.0195 160.72 20.4788 162.399 21.4116C164.079 22.3444 165.399 23.6074 166.346 25.2004L162.615 27.3674C162.069 26.3772 161.294 25.6165 160.29 25.0568C159.285 24.4971 158.151 24.2245 156.903 24.2245C154.765 24.2245 153.042 24.899 151.722 26.2337C150.416 27.597 149.77 29.3335 149.77 31.4432C149.77 33.5528 150.416 35.2606 151.722 36.624C153.042 37.9587 154.765 38.6332 156.903 38.6332C158.166 38.6332 159.3 38.3605 160.304 37.8008C161.323 37.2411 162.084 36.4805 162.615 35.519L166.346 37.686C165.399 39.279 164.093 40.5419 162.399 41.4748C160.72 42.4076 158.883 42.8668 156.888 42.8668V42.8955Z" fill="white"/>
<path d="M188.103 42.4511H183.396L182.075 38.4901H173.321L172.001 42.4511H167.322L175.015 20.4648H180.382L188.103 42.4511ZM177.713 25.4735L174.699 34.4574H180.726L177.713 25.4735Z" fill="white"/>
<path d="M206.974 42.4511H202.295L197.875 34.8162H194.574V42.4511H190.24V20.4648H199.038C201.075 20.4648 202.798 21.1824 204.218 22.6032C205.639 24.024 206.357 25.7461 206.357 27.7553C206.357 29.1187 205.969 30.3816 205.194 31.5441C204.419 32.7065 203.4 33.5819 202.123 34.1704L206.988 42.4654L206.974 42.4511ZM199.023 24.5263H194.56V31.0274H199.023C199.841 31.0274 200.544 30.7117 201.133 30.0659C201.721 29.4201 202.008 28.6594 202.008 27.7553C202.008 26.8512 201.707 26.0906 201.133 25.4591C200.544 24.8276 199.841 24.5119 199.023 24.5119V24.5263Z" fill="white"/>
<path d="M213.85 33.381V38.3035H223.106V42.4511H209.516V20.4648H222.948V24.6124H213.85V29.2909H222.173V33.3667H213.85V33.381Z" fill="white"/>
<path d="M224.525 20.4785H240.699V24.626H234.772V42.4647H230.438V24.626H224.54V20.4785H224.525Z" fill="white"/>
<path d="M261.511 30.6532H272.532V32.3466C272.532 35.4896 271.528 38.0298 269.519 39.9815C267.509 41.9333 264.912 42.8949 261.726 42.8949C258.339 42.8949 255.512 41.7898 253.273 39.5941C251.048 37.3696 249.943 34.6716 249.943 31.4999C249.943 28.3283 251.048 25.5872 253.244 23.3627C255.469 21.1383 258.21 20.0332 261.467 20.0332C263.505 20.0332 265.357 20.4924 267.05 21.4109C268.744 22.3294 270.078 23.578 271.04 25.1423L267.337 27.2806C266.806 26.3765 266.017 25.6446 264.955 25.0849C263.893 24.5252 262.716 24.2381 261.439 24.2381C259.329 24.2381 257.593 24.927 256.258 26.3047C254.923 27.6394 254.249 29.3759 254.249 31.4856C254.249 33.5952 254.923 35.2743 256.287 36.6377C257.65 37.9724 259.473 38.6469 261.754 38.6469C263.405 38.6469 264.783 38.2881 265.902 37.5418C267.021 36.7955 267.768 35.7766 268.17 34.4706H261.511V30.6388V30.6532Z" fill="white"/>
<path d="M292.335 42.4511H287.657L283.236 34.8162H279.936V42.4511H275.602V20.4648H284.399C286.437 20.4648 288.159 21.1824 289.58 22.6032C291.001 24.024 291.718 25.7461 291.718 27.7553C291.718 29.1187 291.331 30.3816 290.556 31.5441C289.781 32.7065 288.762 33.5819 287.484 34.1704L292.35 42.4654L292.335 42.4511ZM284.399 24.5263H279.936V31.0274H284.399C285.217 31.0274 285.92 30.7117 286.509 30.0659C287.097 29.4201 287.384 28.6594 287.384 27.7553C287.384 26.8512 287.083 26.0906 286.509 25.4591C285.92 24.8276 285.217 24.5119 284.399 24.5119V24.5263Z" fill="white"/>
<path d="M313.376 39.5947C311.151 41.7905 308.453 42.8955 305.282 42.8955C302.11 42.8955 299.398 41.7905 297.188 39.5947C294.992 37.3559 293.887 34.6435 293.887 31.4575C293.887 28.2715 294.992 25.5591 297.188 23.349C299.383 21.1389 302.11 20.0195 305.282 20.0195C308.453 20.0195 311.166 21.1246 313.376 23.349C315.6 25.5448 316.705 28.2428 316.705 31.4575C316.705 34.6722 315.6 37.3703 313.376 39.5947ZM300.23 36.6384C301.565 37.973 303.258 38.6475 305.282 38.6475C307.305 38.6475 308.999 37.973 310.333 36.6384C311.697 35.275 312.371 33.5528 312.371 31.4575C312.371 29.3622 311.697 27.6401 310.333 26.2767C308.97 24.9133 307.291 24.2388 305.282 24.2388C303.272 24.2388 301.593 24.9133 300.23 26.2767C298.867 27.6401 298.192 29.3622 298.192 31.4575C298.192 33.5528 298.867 35.275 300.23 36.6384Z" fill="white"/>
<path d="M329.261 42.4511H324.338L318.182 20.4648H322.731L326.936 36.7679L331.514 20.4648H335.217L339.838 36.7679L344.043 20.4648H348.592L342.435 42.4511H337.513L333.365 27.9419L329.246 42.4511H329.261Z" fill="white"/>
<path d="M349.484 20.4785H365.658V24.626H359.731V42.4647H355.397V24.626H349.499V20.4785H349.484Z" fill="white"/>
<path d="M380.566 29.2041V20.4785H384.872V42.4647H380.566V33.366H372.4V42.4647H368.066V20.4785H372.4V29.2041H380.566Z" fill="white"/>
<path d="M156.976 74.195C154.751 74.195 152.886 73.6927 151.35 72.7024C149.815 71.7122 148.724 70.3488 148.078 68.5979L151.896 66.3735C152.785 68.6841 154.522 69.8322 157.105 69.8322C158.311 69.8322 159.215 69.6169 159.818 69.1864C160.42 68.7558 160.722 68.1674 160.722 67.4355C160.722 66.6462 160.363 66.0291 159.66 65.5985C158.942 65.1393 157.679 64.6657 155.842 64.149C153.862 63.5463 152.297 62.8431 151.149 62.0537C149.729 60.9918 149.011 59.4418 149.011 57.4039C149.011 55.366 149.729 53.7013 151.178 52.5245C152.627 51.2903 154.378 50.6875 156.445 50.6875C158.253 50.6875 159.861 51.1324 161.267 52.0078C162.673 52.8976 163.75 54.1462 164.539 55.7535L160.793 57.9206C159.889 55.9831 158.44 55.0073 156.459 55.0073C155.555 55.0073 154.838 55.2225 154.292 55.6387C153.747 56.0549 153.489 56.6002 153.489 57.2748C153.489 57.9923 153.776 58.5664 154.364 59.0256C155.01 59.4849 156.158 59.9585 157.794 60.4464L159.344 60.963C159.631 61.0492 160.105 61.2357 160.793 61.5084C161.439 61.7524 161.913 61.9676 162.214 62.1829C163.276 62.8287 163.979 63.5032 164.353 64.1921C164.912 65.0962 165.185 66.1726 165.185 67.3924C165.185 69.4877 164.424 71.1381 162.889 72.3723C161.353 73.6066 159.387 74.2093 156.976 74.2093V74.195Z" fill="white"/>
<path d="M172.891 51.1191H189.539V55.3815H183.425V73.7512H178.962V55.3815H172.877V51.1191H172.891Z" fill="white"/>
<path d="M215.729 73.7375H210.907L206.343 65.8873H202.942V73.7375H198.479V51.1055H207.534C209.629 51.1055 211.409 51.8374 212.873 53.3012C214.337 54.7651 215.069 56.5303 215.069 58.6112C215.069 60.0176 214.667 61.3093 213.877 62.5004C213.074 63.6916 212.026 64.5957 210.706 65.1985L215.714 73.7375H215.729ZM207.549 55.2817H202.956V61.9694H207.549C208.381 61.9694 209.113 61.6393 209.716 60.9792C210.318 60.319 210.62 59.5297 210.62 58.5969C210.62 57.664 210.318 56.889 209.716 56.2432C209.113 55.5974 208.395 55.2673 207.549 55.2673V55.2817Z" fill="white"/>
<path d="M244.204 73.7375H239.353L237.99 69.6617H228.963L227.599 73.7375H222.777L230.699 51.1055H236.225L244.175 73.7375H244.204ZM233.512 56.2576L230.412 65.4998H236.626L233.526 56.2576H233.512Z" fill="white"/>
<path d="M251.192 51.1191H267.84V55.3815H261.726V73.7512H257.263V55.3815H251.178V51.1191H251.192Z" fill="white"/>
<path d="M281.257 64.3948V69.4752H290.801V73.7375H276.809V51.1055H290.643V55.3678H281.272V60.1899H289.84V64.3948H281.272H281.257Z" fill="white"/>
<path d="M311.266 61.5815H322.618V63.3324C322.618 66.5614 321.585 69.1877 319.518 71.1825C317.452 73.1917 314.782 74.1963 311.496 74.1963C308.009 74.1963 305.11 73.0626 302.799 70.7951C300.517 68.5132 299.369 65.729 299.369 62.4569C299.369 59.1848 300.503 56.372 302.77 54.0901C305.052 51.8083 307.879 50.6602 311.238 50.6602C313.333 50.6602 315.242 51.1338 316.993 52.0809C318.743 53.0281 320.107 54.3054 321.097 55.9271L317.28 58.1228C316.734 57.19 315.916 56.4437 314.825 55.8553C313.735 55.2669 312.515 54.9799 311.209 54.9799C309.028 54.9799 307.248 55.6975 305.87 57.1183C304.493 58.496 303.804 60.2755 303.804 62.4569C303.804 64.6383 304.507 66.3605 305.899 67.7526C307.305 69.1303 309.171 69.8192 311.525 69.8192C313.233 69.8192 314.653 69.446 315.787 68.6854C316.935 67.9248 317.71 66.8772 318.112 65.5138H311.252V61.5672L311.266 61.5815Z" fill="white"/>
<path d="M332.248 73.7375V51.1055H336.711V73.7375H332.248Z" fill="white"/>
<path d="M351.84 64.3948V69.4752H361.383V73.7375H347.391V51.1055H361.225V55.3678H351.854V60.1899H360.422V64.3948H351.854H351.84Z" fill="white"/>
<path d="M378.704 74.195C376.48 74.195 374.614 73.6927 373.079 72.7024C371.543 71.7122 370.452 70.3488 369.807 68.5979L373.624 66.3735C374.514 68.6841 376.25 69.8322 378.834 69.8322C380.039 69.8322 380.943 69.6169 381.546 69.1864C382.149 68.7558 382.45 68.1674 382.45 67.4355C382.45 66.6462 382.091 66.0291 381.388 65.5985C380.671 65.1393 379.408 64.6657 377.571 64.149C375.59 63.5463 374.026 62.8431 372.878 62.0537C371.457 60.9918 370.739 59.4418 370.739 57.4039C370.739 55.366 371.457 53.7013 372.907 52.5245C374.356 51.2903 376.107 50.6875 378.173 50.6875C379.982 50.6875 381.589 51.1324 382.996 52.0078C384.402 52.8976 385.478 54.1462 386.268 55.7535L382.522 57.9206C381.618 55.9831 380.168 55.0073 378.188 55.0073C377.284 55.0073 376.566 55.2225 376.021 55.6387C375.475 56.0549 375.217 56.6002 375.217 57.2748C375.217 57.9923 375.504 58.5664 376.093 59.0256C376.738 59.4849 377.886 59.9585 379.523 60.4464L381.072 60.963C381.359 61.0492 381.833 61.2357 382.522 61.5084C383.168 61.7524 383.641 61.9676 383.943 62.1829C385.005 62.8287 385.708 63.5032 386.081 64.1921C386.641 65.0962 386.913 66.1726 386.913 67.3924C386.913 69.4877 386.153 71.1381 384.617 72.3723C383.082 73.6066 381.115 74.2093 378.704 74.2093V74.195Z" fill="white"/>
<path d="M134.186 100H101.781C100.46 100 99.2404 99.254 98.6377 98.0628C94.9638 90.8441 91.2898 83.6397 87.6159 76.4067C87.4293 76.0192 87.2284 75.6317 87.0275 75.2442C86.683 74.5841 86.3386 73.8952 85.9942 73.2207C80.2823 62.0266 74.5849 50.8183 68.873 39.6242L86.4534 5.26718L88.2043 1.85156C89.2376 2.51172 90.1704 3.32975 90.9597 4.30564C91.462 4.9371 91.9069 5.61161 92.2801 6.35788L102.527 26.4784L103.402 28.1862L107.808 36.8257L109.315 39.7965L126.336 73.2207L127.369 75.2442L137.343 94.8481C138.534 97.2017 136.841 100 134.186 100Z" fill="#DDDDDD"/>
<path opacity="0.6" d="M107.808 36.8248L104.163 43.9287C98.6377 54.7496 93.1268 65.5848 87.6159 76.4057C87.4293 76.0182 87.2284 75.6308 87.0275 75.2433C86.683 74.5831 86.3386 73.8942 85.9942 73.2197C80.2823 62.0257 74.5849 50.8173 68.873 39.6233L86.4534 5.26623C87.8598 4.66347 89.3811 4.33339 90.9597 4.30469C91.462 4.93615 91.9069 5.61066 92.2801 6.35693L102.527 26.4775L103.402 28.1853L107.808 36.8248Z" fill="#DDDDDD"/>
<path d="M93.7415 9.24225C91.9763 6.85993 89.551 5.55396 87.7714 6.12801C86.1497 6.67336 84.772 8.88347 84.7002 8.99828C84.4849 9.35706 83.8965 10.4047 83.7387 10.6774C83.3799 11.3088 83.0929 11.8255 82.9063 12.1986L68.8707 39.624C63.1589 50.818 57.4614 62.0264 51.7496 73.2204C51.4195 73.895 51.0607 74.5838 50.7163 75.244C46.8558 82.8645 42.9809 90.4564 39.1061 98.0626C38.5033 99.2537 37.2835 100 35.9488 100H3.5435C0.902853 100 -0.804954 97.2015 0.386206 94.8479L10.3604 75.244L11.3937 73.2204L28.4287 39.7962L34.3414 28.186L35.2025 26.4782L45.4494 6.35763C47.4442 2.45408 51.4482 0 55.8254 0H81.9017C82.935 0 83.9396 0.129162 84.9155 0.401837C85.102 0.459242 85.2743 0.502296 85.4465 0.559701C85.7766 0.674512 86.1066 0.803674 86.3937 0.918484C86.5515 0.990241 86.695 1.04765 86.8242 1.10505C86.9677 1.17681 87.0969 1.23421 87.226 1.30597C87.3552 1.36338 87.47 1.42078 87.5848 1.49254C87.8144 1.6217 88.0154 1.73651 88.2019 1.85132C89.0343 2.36797 90.0246 2.98507 90.9287 4.13318C91.474 4.8364 91.8759 5.58266 92.3208 6.44374C92.4643 6.71642 92.5504 6.90299 93.2679 8.32377C93.4689 8.71125 93.6411 9.02698 93.7415 9.24225Z" fill="white"/>
</g>
<defs>
<clipPath id="clip0_2930_1989">
<rect width="386.912" height="100" fill="white"/>
</clipPath>
</defs>
</svg>
