<svg width="454" height="100" viewBox="0 0 454 100" fill="none" xmlns="http://www.w3.org/2000/svg">
<g clip-path="url(#clip0_2930_1928)">
<path d="M212.831 85.4703C209.841 87.0324 203.203 89.1197 194.746 89.1197C175.758 89.1197 163.396 76.246 163.396 56.9893C163.396 37.7326 176.661 23.5527 197.224 23.5527C203.984 23.5527 209.976 25.2495 213.1 26.8116L210.501 35.6588C207.768 34.0968 203.472 32.6694 197.237 32.6694C182.801 32.6694 174.991 43.3346 174.991 56.4776C174.991 71.048 184.363 80.03 196.847 80.03C203.351 80.03 207.646 78.3332 210.892 76.9058L212.844 85.4973L212.831 85.4703Z" fill="white"/>
<path d="M226.23 44.4945C226.23 37.0746 226.096 30.7051 225.705 24.8473H235.724L236.114 37.2093H236.64C239.508 28.7525 246.403 23.4199 254.065 23.4199C255.371 23.4199 256.273 23.5546 257.324 23.8104V34.6103C256.152 34.3545 254.981 34.2198 253.419 34.2198C245.352 34.2198 239.629 40.3335 238.067 48.9249C237.811 50.487 237.542 52.3049 237.542 54.2575V87.8153H226.23V44.4945Z" fill="white"/>
<path d="M285.682 6.75977V24.8449H302.07V33.5575H285.682V67.5058C285.682 75.3162 287.89 79.7331 294.273 79.7331C297.263 79.7331 299.471 79.3426 300.912 78.9521L301.437 87.5435C299.229 88.4592 295.714 89.1056 291.284 89.1056C285.951 89.1056 281.656 87.4088 278.922 84.2981C275.663 80.9181 274.492 75.3162 274.492 67.9098V33.571H264.729V24.8583H274.492V9.76273L285.682 6.77323V6.75977Z" fill="white"/>
<path d="M320.548 24.8418L332.91 60.231C334.997 65.9541 336.68 71.1521 337.987 76.3635H338.377C339.804 71.1655 341.636 65.9541 343.71 60.231L355.937 24.8418H367.908L343.198 87.8097H332.277L308.334 24.8418H320.561H320.548Z" fill="white"/>
<path d="M413.034 87.8135L412.119 79.882H411.728C408.214 84.824 401.453 89.2544 392.472 89.2544C379.719 89.2544 373.215 80.2725 373.215 71.1693C373.215 55.9525 386.748 47.6169 411.068 47.7516V46.4454C411.068 41.2474 409.641 31.8749 396.754 31.8749C390.896 31.8749 384.782 33.6929 380.365 36.5612L377.766 29.0201C382.964 25.6401 390.519 23.4316 398.451 23.4316C417.707 23.4316 422.393 36.5747 422.393 49.1925V72.7449C422.393 78.2122 422.649 83.5448 423.43 87.8405H413.021L413.034 87.8135ZM411.338 55.6832C398.854 55.4273 384.675 57.6358 384.675 69.8631C384.675 77.283 389.617 80.7842 395.474 80.7842C403.675 80.7842 408.873 75.5862 410.691 70.2536C411.082 69.0821 411.338 67.7758 411.338 66.6043V55.6697V55.6832Z" fill="white"/>
<path d="M453.621 7.15055C453.756 11.0557 450.888 14.1799 446.336 14.1799C442.296 14.1799 439.441 11.0557 439.441 7.15055C439.441 3.24535 442.431 0 446.592 0C450.753 0 453.621 3.12416 453.621 7.15055ZM440.869 87.8131V24.8451H452.315V87.8131H440.869Z" fill="white"/>
<path d="M42.8641 8.875C34.9595 9.38672 27.5935 11.7433 20.8469 16.1063C6.53234 25.3711 -2.00523 42.2038 0.405218 60.4371C1.50945 68.7727 4.68747 76.2868 10.0066 82.8179C18.3691 93.0791 29.196 98.7215 42.4602 99.8392C41.8003 99.8931 41.1943 99.9469 40.5884 100.001H49.4222C49.0047 99.9334 48.5873 99.8526 48.1698 99.7853C47.9678 99.7988 47.7658 99.8257 47.5639 99.8392V99.6776C47.7658 99.718 47.9678 99.7449 48.1698 99.7853C49.7454 99.6506 51.3344 99.5564 52.8965 99.2736C59.4545 98.102 65.5143 95.6243 71.0758 91.948C74.6444 89.5914 77.782 86.7635 80.354 83.3296C80.6503 82.9256 80.7715 82.6159 80.4887 82.1177C76.9875 75.8963 73.5132 69.6614 70.0389 63.4266C69.9043 63.1976 69.7696 62.9822 69.5946 62.6994C69.3522 63.1977 69.1771 63.6151 68.9751 64.0056C66.6859 68.5437 63.4136 72.22 59.1852 75.0344C54.2296 78.3337 48.8027 79.8957 42.8372 79.1955C37.8682 78.6299 33.4109 76.812 29.6403 73.5262C22.207 67.0759 19.204 58.8885 21.224 49.2871C23.2708 39.4837 29.4787 33.1546 39.0936 30.2728C43.0661 29.0743 47.1733 29.3167 51.2671 29.4648C51.8596 29.4783 52.4521 29.5591 53.1119 29.6264C49.6915 22.7048 46.2846 15.7966 42.8641 8.875Z" fill="white"/>
<path d="M114.989 28.6318C112.794 32.739 110.626 36.7923 108.458 40.8456C106.29 44.899 104.122 48.9523 101.9 53.0864C101.523 52.3458 101.159 51.6725 100.823 50.9857C98.0351 45.3164 95.2611 39.6471 92.4736 33.9644C89.1205 27.1236 85.7674 20.2827 82.4143 13.4284C81.741 12.0414 81.0812 10.6544 80.3809 9.28086C80.2867 9.09233 79.9904 8.86341 79.7884 8.86341C72.4359 8.84994 65.0833 8.86341 57.7173 8.86341C57.65 8.86341 57.5692 8.89034 57.3672 8.91727C71.8568 38.4352 86.3195 67.9127 100.836 97.5114C111.946 77.339 123.082 57.3283 133.694 37.0212C132.98 37.0212 132.347 36.9943 131.728 37.0212C128.98 37.1424 126.301 36.8327 123.715 35.8362C120.106 34.4357 117.198 32.1599 115.164 28.8338C115.137 28.7934 115.097 28.753 114.976 28.6318H114.989Z" fill="white"/>
<path d="M119.875 19.1352C119.875 24.8314 124.534 29.4907 130.271 29.5042C136.034 29.5042 140.68 24.8449 140.707 19.0544C140.734 13.7757 136.6 8.79319 130.379 8.65853C124.561 8.53733 119.888 13.264 119.875 19.1352Z" fill="white"/>
</g>
<defs>
<clipPath id="clip0_2930_1928">
<rect width="453.622" height="100" fill="white"/>
</clipPath>
</defs>
</svg>
