<svg width="24" height="24" viewBox="0 0 24 24" fill="none" xmlns="http://www.w3.org/2000/svg">
<g opacity="0.5">
<path d="M10.9203 2.33911C11.3454 1.41804 12.6546 1.41804 13.0797 2.33911C13.4126 3.06036 14.3456 3.25866 14.9431 2.73518C15.7061 2.06667 16.902 2.59913 16.9158 3.61349C16.9266 4.40781 17.6982 4.96842 18.457 4.73322C19.4259 4.43286 20.3019 5.40571 19.9019 6.33798C19.5887 7.06801 20.0656 7.894 20.8544 7.98775C21.8618 8.10748 22.2663 9.35251 21.5217 10.0415C20.9386 10.581 21.0383 11.5295 21.7208 11.936C22.5924 12.4551 22.4556 13.7571 21.4951 14.0836C20.743 14.3393 20.4483 15.2464 20.9064 15.8954C21.4915 16.7241 20.837 17.8578 19.8267 17.7655C19.0356 17.6932 18.3974 18.402 18.552 19.1812C18.7495 20.1763 17.6904 20.9457 16.805 20.4505C16.1117 20.0626 15.2404 20.4506 15.0647 21.2253C14.8404 22.2146 13.5599 22.4868 12.9525 21.6743C12.4769 21.038 11.5231 21.038 11.0475 21.6743C10.4401 22.4868 9.15964 22.2146 8.93527 21.2253C8.75958 20.4506 7.88826 20.0626 7.19497 20.4505C6.30962 20.9457 5.25053 20.1763 5.44796 19.1812C5.60257 18.402 4.96437 17.6932 4.17328 17.7655C3.16303 17.8578 2.50848 16.7241 3.09357 15.8954C3.55173 15.2464 3.257 14.3393 2.50489 14.0836C1.54443 13.7571 1.40759 12.4551 2.27917 11.936C2.96167 11.5295 3.06137 10.581 2.47829 10.0415C1.73369 9.35251 2.13823 8.10748 3.14559 7.98775C3.93443 7.894 4.41132 7.06801 4.09809 6.33798C3.69809 5.40571 4.57405 4.43286 5.54302 4.73322C6.30179 4.96842 7.07341 4.40781 7.0842 3.61349C7.09796 2.59913 8.29389 2.06667 9.05692 2.73518C9.65443 3.25866 10.5874 3.06036 10.9203 2.33911Z" fill="#B8DE19"/>
<path d="M15.2795 12.8569L13.9781 7.99992M13.9781 7.99992L9.12109 9.30134M13.9781 7.99992L9.2997 16.1031" stroke="#0C1F0C" stroke-linejoin="round"/>
</g>
</svg>
