<svg width="40" height="42" viewBox="0 0 40 42" fill="none" xmlns="http://www.w3.org/2000/svg">
<path d="M32.0209 15.98L26.0209 9.98M3.00086 39C4.66086 40.66 7.34086 40.66 9.00086 39L35.0009 13C36.6609 11.34 36.6609 8.66 35.0009 7C33.3409 5.34 30.6609 5.34 29.0009 7L3.00086 33C1.34086 34.66 1.34086 37.34 3.00086 39ZM13.0009 2.88L16.0009 2L15.1209 5L16.0009 8L13.0009 7.12L10.0009 8L10.8809 5L10.0009 2L13.0009 2.88ZM5.00086 14.88L8.00086 14L7.12086 17L8.00086 20L5.00086 19.12L2.00086 20L2.88086 17L2.00086 14L5.00086 14.88ZM35.0009 24.88L38.0009 24L37.1209 27L38.0009 30L35.0009 29.12L32.0009 30L32.8809 27L32.0009 24L35.0009 24.88Z" stroke="#292D32" stroke-width="3" stroke-linecap="round" stroke-linejoin="round"/>
</svg>
