<svg width="135" height="40" viewBox="0 0 135 40" fill="none" xmlns="http://www.w3.org/2000/svg">
<path d="M25.2285 0.000976562H14.5811C6.52287 0.000976562 0 6.52862 0 14.5821V25.2294C0 33.2877 6.52287 39.8153 14.5811 39.8153H25.2285C33.2819 39.8153 39.8143 33.2877 39.8143 25.2294V14.5821C39.8143 6.52862 33.2819 0.000976562 25.2285 0.000976562ZM22.2436 31.9049H13.2508V26.4119C13.2508 23.3841 15.7159 20.9238 18.7437 20.9238H22.2483C23.7599 20.9238 25.1379 21.5341 26.1296 22.5306C27.1262 23.5272 27.7365 24.8909 27.7365 26.4119C27.7365 29.4493 25.2809 31.9049 22.2483 31.9049H22.2436ZM26.1249 17.2904C25.1331 18.2822 23.7551 18.8973 22.2436 18.8973H18.739C15.7112 18.8973 13.246 16.4369 13.246 13.4043V7.91616H22.2388C25.2666 7.91616 27.727 10.367 27.727 13.4043C27.727 14.9159 27.1167 16.2939 26.1201 17.2904H26.1249Z" fill="#B8DE19"/>
<path d="M49.6953 7.19141H59.6513C62.6219 7.19141 64.882 7.78285 66.4269 8.97049C67.9718 10.1581 68.7442 11.7751 68.7442 13.826C68.7442 16.1536 67.7429 17.8707 65.7355 18.9773C67.0706 19.5305 68.0814 20.3223 68.7585 21.3478C69.4403 22.3733 69.7789 23.5561 69.7789 24.8917C69.7789 27.1716 69.0112 28.9411 67.4806 30.2003C65.95 31.4547 63.6852 32.0843 60.6907 32.0843H49.7001V7.19141H49.6953ZM59.7848 17.5273C61.2343 17.5273 62.3262 17.2506 63.051 16.6974C63.7758 16.1441 64.1381 15.3475 64.1381 14.3125C64.1381 13.2775 63.7758 12.481 63.051 11.9277C62.3262 11.3744 61.2391 11.0978 59.7848 11.0978H54.3252V17.5273H59.7848ZM60.686 28.1732C63.566 28.1732 65.0059 27.0332 65.0059 24.7486C65.0059 22.4639 63.566 21.2906 60.686 21.2906H54.3252V28.1684H60.686V28.1732Z" fill="white"/>
<path d="M83.7724 30.0085C83.0334 30.9051 82.1989 31.5443 81.2644 31.9259C80.3298 32.3074 79.2665 32.4982 78.0697 32.4982C76.0861 32.4982 74.4983 32.0213 73.3015 31.0625C72.1047 30.1038 71.5039 28.7779 71.5039 27.0703C71.5039 25.5011 72.0618 24.2896 73.1823 23.4215C74.2981 22.5582 76.0432 21.9191 78.4178 21.5041L83.6389 20.5693V19.5295C83.6389 18.6996 83.3719 18.0795 82.8426 17.6645C82.3134 17.2496 81.4837 17.0445 80.3537 17.0445C79.2951 17.0445 78.4178 17.2734 77.7264 17.7361C77.035 18.1987 76.6678 18.8999 76.6202 19.8443H72.3336C72.3574 17.8172 73.1156 16.2813 74.6128 15.2463C76.11 14.2113 78.0125 13.6914 80.3155 13.6914C82.8283 13.6914 84.7165 14.1636 85.9849 15.108C87.2532 16.0524 87.8874 17.3688 87.8874 19.0477V32.0833H83.7724V30.0085ZM76.7394 28.6586C77.2591 29.0736 78.022 29.2787 79.0376 29.2787C80.306 29.2787 81.3883 28.9257 82.2848 28.2246C83.1812 27.5235 83.6342 26.4789 83.6342 25.0957V23.5074L79.2093 24.4041C78.0792 24.633 77.2543 24.924 76.7394 25.2674C76.2196 25.6108 75.9622 26.1641 75.9622 26.9272C75.9622 27.6904 76.2196 28.2389 76.7394 28.6539V28.6586Z" fill="white"/>
<path d="M90.3003 35.4316H93.1326C93.9861 35.4316 94.5773 35.2886 94.9111 35.0024C95.2449 34.7114 95.5643 34.1438 95.86 33.2901L96.2748 32.255L89.4658 14.1064H94.1339L98.5587 27.7954L102.95 14.1064H107.652L100.256 34.1248C99.6554 35.7369 98.945 36.9532 98.1153 37.7736C97.2856 38.5939 96.0745 38.9994 94.4867 38.9994H90.305V35.4364L90.3003 35.4316Z" fill="white"/>
<path d="M109.969 7.19043H127.525V11.3734H114.599V17.2831H126.867V21.2943H114.599V32.0786H109.969V7.19043Z" fill="white"/>
<path d="M129.833 7.19032H134.344V8.62599C134.344 10.1475 133.114 11.3781 131.592 11.3781H129.833V7.18555V7.19032Z" fill="#B8DE19"/>
<path d="M134.249 14.1016H129.929V32.0785H134.249V14.1016Z" fill="white"/>
</svg>
