<svg width="40" height="40" viewBox="0 0 40 40" fill="none" xmlns="http://www.w3.org/2000/svg">
<rect width="40" height="40" fill="#1E1E1E"/>
<g id="Prototype Ready Mobile">
<path d="M-1591 -811C-1591 -812.105 -1590.1 -813 -1589 -813H829C830.104 -813 831 -812.105 831 -811V14486C831 14487.1 830.104 14488 829 14488H-1589C-1590.1 14488 -1591 14487.1 -1591 14486V-811Z" fill="#444444"/>
<path d="M-1589 -813V-812H829V-813V-814H-1589V-813ZM831 -811H830V14486H831H832V-811H831ZM829 14488V14487H-1589V14488V14489H829V14488ZM-1591 14486H-1590V-811H-1591H-1592V14486H-1591ZM-1589 14488V14487C-1589.55 14487 -1590 14486.6 -1590 14486H-1591H-1592C-1592 14487.7 -1590.66 14489 -1589 14489V14488ZM831 14486H830C830 14486.6 829.552 14487 829 14487V14488V14489C830.657 14489 832 14487.7 832 14486H831ZM829 -813V-812C829.552 -812 830 -811.552 830 -811H831H832C832 -812.657 830.657 -814 829 -814V-813ZM-1589 -813V-814C-1590.66 -814 -1592 -812.657 -1592 -811H-1591H-1590C-1590 -811.552 -1589.55 -812 -1589 -812V-813Z" fill="white" fill-opacity="0.1"/>
<g id="iPhone 16 - 24" clip-path="url(#clip0_0_1)">
<rect width="393" height="10195.9" transform="translate(-320 -23)" fill="#F3F3F3"/>
<g id="Frame 1984078328">
<g id="Nav Bar">
<g id="Nav" opacity="0.05">
<rect x="-298" y="-5" width="349" height="52.205" rx="26.1025" fill="#0C1F0C"/>
</g>
<g id="Menu">
<path id="Vector 50" d="M13.2969 25.4512H21.5143" stroke="#0C1F0C" stroke-width="0.966759"/>
<path id="Vector 51" d="M18.1289 15.3008L27.7965 15.3008" stroke="#0C1F0C" stroke-width="0.966759"/>
<path id="Vector 52" d="M13.2969 20.1348L27.7983 20.1348" stroke="#0C1F0C" stroke-width="0.966759"/>
<circle id="Ellipse 76" cx="20.0656" cy="20.134" r="18.8518" fill="#D9D9D9" fill-opacity="0.1" stroke="#0C1F0C" stroke-width="0.966759"/>
</g>
</g>
</g>
</g>
</g>
<defs>
<clipPath id="clip0_0_1">
<rect width="393" height="10195.9" fill="white" transform="translate(-320 -23)"/>
</clipPath>
</defs>
</svg>
