<svg width="87" height="24" viewBox="0 0 87 24" fill="none" xmlns="http://www.w3.org/2000/svg">
<path d="M83.5804 9.42522C83.5693 9.35143 83.5527 9.29608 83.5305 9.25734C83.5213 9.24258 83.514 9.23337 83.501 9.23152C83.49 9.22599 83.4789 9.22598 83.4678 9.22598H81.8444C81.8186 9.27026 81.7965 9.33851 81.7762 9.42153C81.7596 9.50639 81.7485 9.58756 81.7485 9.66504C81.7485 10.0045 81.9311 10.1724 82.289 10.1724H82.9974C83.2022 10.1724 83.3535 10.1299 83.4512 10.0488C83.5472 9.96575 83.597 9.83107 83.597 9.64106C83.597 9.56727 83.5914 9.49717 83.5804 9.42522ZM83.5804 9.42522C83.5693 9.35143 83.5527 9.29608 83.5305 9.25734C83.5213 9.24258 83.514 9.23337 83.501 9.23152C83.49 9.22599 83.4789 9.22598 83.4678 9.22598H81.8444C81.8186 9.27026 81.7965 9.33851 81.7762 9.42153C81.7596 9.50639 81.7485 9.58756 81.7485 9.66504C81.7485 10.0045 81.9311 10.1724 82.289 10.1724H82.9974C83.2022 10.1724 83.3535 10.1299 83.4512 10.0488C83.5472 9.96575 83.597 9.83107 83.597 9.64106C83.597 9.56727 83.5914 9.49717 83.5804 9.42522ZM83.5804 9.42522C83.5693 9.35143 83.5527 9.29608 83.5305 9.25734C83.5213 9.24258 83.514 9.23337 83.501 9.23152C83.49 9.22599 83.4789 9.22598 83.4678 9.22598H81.8444C81.8186 9.27026 81.7965 9.33851 81.7762 9.42153C81.7596 9.50639 81.7485 9.58756 81.7485 9.66504C81.7485 10.0045 81.9311 10.1724 82.289 10.1724H82.9974C83.2022 10.1724 83.3535 10.1299 83.4512 10.0488C83.5472 9.96575 83.597 9.83107 83.597 9.64106C83.597 9.56727 83.5914 9.49717 83.5804 9.42522ZM83.5804 9.42522C83.5693 9.35143 83.5527 9.29608 83.5305 9.25734C83.5213 9.24258 83.514 9.23337 83.501 9.23152C83.49 9.22599 83.4789 9.22598 83.4678 9.22598H81.8444C81.8186 9.27026 81.7965 9.33851 81.7762 9.42153C81.7596 9.50639 81.7485 9.58756 81.7485 9.66504C81.7485 10.0045 81.9311 10.1724 82.289 10.1724H82.9974C83.2022 10.1724 83.3535 10.1299 83.4512 10.0488C83.5472 9.96575 83.597 9.83107 83.597 9.64106C83.597 9.56727 83.5914 9.49717 83.5804 9.42522ZM83.3313 2.63086H80.8777C79.3613 2.63086 78.1309 3.85949 78.1309 5.37775V17.843C78.1309 19.3594 79.3613 20.5899 80.8777 20.5899H83.3313C84.8477 20.5899 86.0782 19.3594 86.0782 17.843V5.37775C86.0782 3.85949 84.8477 2.63086 83.3313 2.63086ZM80.1361 7.49189C80.1361 7.3978 80.1564 7.33507 80.197 7.30187C80.2394 7.26497 80.3188 7.24837 80.4332 7.24837H80.5143C80.6324 7.24837 80.7099 7.26497 80.7523 7.30187C80.791 7.33507 80.8113 7.3978 80.8113 7.49189V7.70218C80.8113 7.79442 80.791 7.859 80.7523 7.8922C80.7099 7.92725 80.6324 7.94385 80.5143 7.94385H80.4332C80.3188 7.94385 80.2394 7.92725 80.197 7.8922C80.1564 7.859 80.1361 7.79442 80.1361 7.70218V7.49189ZM83.2612 18.7967C83.2188 18.8078 83.1874 18.8134 83.169 18.8134C83.0989 18.8134 83.0509 18.7709 83.0251 18.6897L82.9144 18.3706C82.8996 18.3282 82.8922 18.3005 82.8922 18.2876C82.8922 18.2525 82.9033 18.2286 82.9255 18.2083C82.9476 18.1898 82.9845 18.1695 83.0306 18.1492C83.193 18.0902 83.3202 17.998 83.407 17.8725C83.4937 17.7489 83.5361 17.6013 83.5361 17.4242C83.5361 17.1807 83.4881 16.9962 83.3959 16.8726C83.3036 16.749 83.1579 16.6882 82.9642 16.6882C82.7908 16.6882 82.6709 16.749 82.6008 16.8782C82.527 17.0055 82.4772 17.1918 82.4495 17.4353C82.4144 17.6936 82.3683 17.9168 82.3093 18.1031C82.2466 18.2894 82.1377 18.4499 81.9754 18.5791C81.8131 18.71 81.5861 18.7765 81.2947 18.7765C81.0604 18.7765 80.8538 18.723 80.6767 18.6178C80.4996 18.5108 80.3594 18.354 80.2616 18.1474C80.1638 17.9426 80.114 17.6936 80.114 17.4021C80.114 17.0663 80.1841 16.797 80.3243 16.5959C80.4608 16.3948 80.6711 16.2325 80.9478 16.1052C80.9958 16.0868 81.0327 16.0775 81.0567 16.0775C81.1213 16.0775 81.1692 16.1163 81.2006 16.1974L81.3205 16.4981C81.3371 16.5313 81.3426 16.5627 81.3426 16.5904C81.3426 16.6162 81.3352 16.6384 81.3168 16.6568C81.2983 16.6771 81.267 16.6974 81.2227 16.714C80.922 16.8487 80.7726 17.0774 80.7726 17.4021C80.7726 17.6401 80.8132 17.8135 80.8944 17.926C80.9792 18.0349 81.1046 18.0902 81.2781 18.0902C81.4515 18.0902 81.5843 18.0201 81.6562 17.8817C81.73 17.7415 81.7817 17.5368 81.8112 17.2619C81.8573 16.8929 81.9643 16.5904 82.1304 16.3524C82.2945 16.1163 82.5805 15.9964 82.9863 15.9964C83.3534 15.9964 83.6412 16.1218 83.8571 16.3708C84.0711 16.6217 84.1762 16.9704 84.1762 17.4242C84.1762 18.1418 83.8718 18.6012 83.2612 18.7967ZM82.9808 14.6644C83.1468 14.6644 83.2631 14.6497 83.3332 14.6183C83.4069 14.5906 83.4512 14.5464 83.4678 14.4873C83.4881 14.4283 83.4955 14.3324 83.49 14.2051C83.4881 14.1479 83.4955 14.1073 83.5195 14.0833C83.5416 14.0612 83.5804 14.0483 83.6339 14.0483H83.9198C83.9844 14.0483 84.025 14.0612 84.0508 14.0833C84.0766 14.1073 84.0932 14.1479 84.0951 14.2051C84.1061 14.4726 84.0877 14.6866 84.0342 14.8378C83.9844 14.9909 83.8792 15.1035 83.7224 15.1754C83.5638 15.2511 83.3276 15.288 83.014 15.288H81.8389V15.5757C81.8389 15.6348 81.8241 15.6754 81.8001 15.6975C81.7743 15.716 81.73 15.727 81.6673 15.727H81.4164C81.3537 15.727 81.3094 15.716 81.2873 15.6975C81.2615 15.6754 81.2504 15.6348 81.2504 15.5757V15.288H80.7541C80.6933 15.288 80.6508 15.2769 80.6268 15.2548C80.6029 15.2326 80.5918 15.192 80.5918 15.1367V14.8175C80.5918 14.7585 80.6029 14.7161 80.6268 14.6939C80.6508 14.6718 80.6933 14.6644 80.7541 14.6644H81.2504V14.1995C81.2504 14.1423 81.2615 14.1036 81.2873 14.0815C81.3094 14.0593 81.3537 14.0483 81.4164 14.0483H81.6673C81.73 14.0483 81.7743 14.0593 81.8001 14.0815C81.8241 14.1036 81.8389 14.1423 81.8389 14.1995V14.6644H82.9808ZM83.894 13.3233C83.7003 13.4911 83.4291 13.5742 83.073 13.5742H81.4164C81.3537 13.5742 81.3094 13.5631 81.2873 13.5428C81.2615 13.5207 81.2504 13.4819 81.2504 13.4229V13.1074C81.2504 13.0447 81.2615 13.0023 81.2873 12.9838C81.3094 12.9617 81.3537 12.9506 81.4164 12.9506H83.0509C83.2391 12.9506 83.3756 12.9137 83.466 12.8381C83.5527 12.7624 83.597 12.6388 83.597 12.471C83.597 12.2939 83.5748 12.1666 83.5305 12.0799C83.5213 12.0596 83.514 12.0485 83.4992 12.0393C83.4881 12.0338 83.466 12.0282 83.4383 12.0282H81.4164C81.3537 12.0282 81.3094 12.0208 81.2873 11.9987C81.2615 11.9747 81.2504 11.936 81.2504 11.8806V11.556C81.2504 11.4988 81.2615 11.46 81.2873 11.4379C81.3094 11.4157 81.3537 11.4047 81.4164 11.4047H83.6837C83.7685 11.4047 83.8331 11.4176 83.8737 11.4434C83.9161 11.4692 83.9548 11.5191 83.9917 11.5947C84.1153 11.8659 84.1762 12.1887 84.1762 12.5577C84.1762 12.899 84.0821 13.1535 83.894 13.3233ZM83.014 10.7959H82.2724C81.9145 10.7959 81.6396 10.7092 81.4515 10.5358C81.2615 10.3624 81.1692 10.0986 81.1692 9.74621C81.1692 9.58203 81.2006 9.40862 81.2615 9.22598H80.2007C80.138 9.22598 80.0937 9.21491 80.0697 9.18908C80.0439 9.16695 80.0291 9.12821 80.0291 9.06918V8.75187C80.0291 8.69284 80.0439 8.6541 80.066 8.63196C80.0919 8.61167 80.1361 8.6006 80.2007 8.6006H83.7003C83.787 8.6006 83.8497 8.61167 83.8884 8.63196C83.9253 8.6541 83.9604 8.70206 84.0028 8.7777C84.0508 8.87916 84.0895 9.00646 84.1264 9.16142C84.1596 9.31454 84.1762 9.48056 84.1762 9.6632C84.1762 10.4177 83.7907 10.7959 83.014 10.7959ZM81.2504 7.73908V7.4476C81.2504 7.38857 81.2615 7.3443 81.2873 7.31848C81.3094 7.29449 81.3537 7.28158 81.4164 7.28158H83.9253C83.9899 7.28158 84.0305 7.29449 84.0563 7.31848C84.0821 7.3443 84.0951 7.38857 84.0951 7.4476V7.73908C84.0951 7.79996 84.0821 7.84239 84.0563 7.86822C84.0305 7.8922 83.9899 7.90696 83.9253 7.90696H81.4164C81.3537 7.90696 81.3094 7.8922 81.2873 7.86822C81.2615 7.84239 81.2504 7.79996 81.2504 7.73908ZM83.8884 6.37579C83.6929 6.57133 83.4236 6.66911 83.0786 6.66911H82.2669C81.9219 6.66911 81.6544 6.57133 81.457 6.37579C81.2651 6.17839 81.1692 5.90167 81.1692 5.54378C81.1692 5.18589 81.2651 4.89626 81.457 4.70071C81.6544 4.50517 81.9219 4.40739 82.2669 4.40739H83.0786C83.4236 4.40739 83.6929 4.50517 83.8884 4.70071C84.0821 4.89626 84.1762 5.17667 84.1762 5.54378C84.1762 5.9109 84.0821 6.17839 83.8884 6.37579ZM83.5305 9.25734C83.5213 9.24258 83.514 9.23337 83.501 9.23152C83.49 9.22599 83.4789 9.22598 83.4678 9.22598H81.8444C81.8186 9.27026 81.7965 9.33851 81.7762 9.42153C81.7596 9.50639 81.7485 9.58756 81.7485 9.66504C81.7485 10.0045 81.9311 10.1724 82.289 10.1724H82.9974C83.2022 10.1724 83.3535 10.1299 83.4512 10.0488C83.5472 9.96575 83.597 9.83107 83.597 9.64106C83.597 9.56727 83.5914 9.49717 83.5804 9.42522C83.5693 9.35143 83.5527 9.29608 83.5305 9.25734ZM83.0786 5.03093H82.2669C82.099 5.03093 81.9699 5.07521 81.8813 5.16191C81.7909 5.25231 81.7466 5.37775 81.7466 5.54378C81.7466 5.70059 81.7909 5.82419 81.8813 5.91274C81.9699 5.99945 82.099 6.04557 82.2669 6.04557H83.0786C83.2446 6.04557 83.3737 5.99945 83.466 5.91274C83.5545 5.82419 83.6006 5.70059 83.6006 5.54378C83.6006 5.37775 83.5545 5.25231 83.466 5.16191C83.3737 5.07521 83.2446 5.03093 83.0786 5.03093ZM83.5804 9.42522C83.5693 9.35143 83.5527 9.29608 83.5305 9.25734C83.5213 9.24258 83.514 9.23337 83.501 9.23152C83.49 9.22599 83.4789 9.22598 83.4678 9.22598H81.8444C81.8186 9.27026 81.7965 9.33851 81.7762 9.42153C81.7596 9.50639 81.7485 9.58756 81.7485 9.66504C81.7485 10.0045 81.9311 10.1724 82.289 10.1724H82.9974C83.2022 10.1724 83.3535 10.1299 83.4512 10.0488C83.5472 9.96575 83.597 9.83107 83.597 9.64106C83.597 9.56727 83.5914 9.49717 83.5804 9.42522ZM83.5804 9.42522C83.5693 9.35143 83.5527 9.29608 83.5305 9.25734C83.5213 9.24258 83.514 9.23337 83.501 9.23152C83.49 9.22599 83.4789 9.22598 83.4678 9.22598H81.8444C81.8186 9.27026 81.7965 9.33851 81.7762 9.42153C81.7596 9.50639 81.7485 9.58756 81.7485 9.66504C81.7485 10.0045 81.9311 10.1724 82.289 10.1724H82.9974C83.2022 10.1724 83.3535 10.1299 83.4512 10.0488C83.5472 9.96575 83.597 9.83107 83.597 9.64106C83.597 9.56727 83.5914 9.49717 83.5804 9.42522Z" fill="#B8DE19"/>
<path d="M36.354 11.5284V11.4657C36.8041 11.1244 37.1325 10.7296 37.3299 10.2795C37.5328 9.8312 37.6325 9.26484 37.6325 8.57858C37.6325 7.4053 37.2635 6.47922 36.5274 5.79849C35.7895 5.12145 34.821 4.77832 33.6182 4.77832H28.8088C28.5376 4.77832 28.3476 4.84104 28.2388 4.95911C28.1263 5.07533 28.0728 5.28933 28.0728 5.59187V18.035C28.0728 18.3265 28.1263 18.5312 28.2388 18.6474C28.3476 18.7655 28.5376 18.8282 28.8088 18.8282H33.9078C35.2158 18.8282 36.2433 18.4851 36.9923 17.8081C37.7413 17.1273 38.1176 16.1699 38.1176 14.9302C38.1176 13.2809 37.5291 12.1464 36.354 11.5284ZM31.0982 7.5289H33.4042C33.7935 7.5289 34.0997 7.65251 34.3266 7.89602C34.5535 8.13953 34.6642 8.5011 34.6642 8.97337C34.6642 9.44564 34.5535 9.82567 34.3266 10.0636C34.0997 10.3016 33.7935 10.4178 33.4042 10.4178H31.0982V7.5289ZM34.7435 15.6718C34.4963 15.9301 34.1606 16.0574 33.7344 16.0574H31.0982V13.0098H33.7344C34.1606 13.0098 34.4963 13.1371 34.7435 13.3953C34.9889 13.6536 35.1125 14.0392 35.1125 14.5539C35.1125 15.0409 34.9889 15.4135 34.7435 15.6718Z" fill="#0C1F0C"/>
<path d="M46.5704 9.26236C45.9635 8.58163 44.9489 8.24219 43.5265 8.24219C41.7574 8.24219 40.5416 8.93953 39.8812 10.3397C39.8037 10.5113 39.7668 10.6626 39.7668 10.7935C39.7668 11.0315 39.9255 11.2215 40.2502 11.3673L41.2002 11.7823C41.3534 11.8635 41.4917 11.9023 41.6098 11.9023C41.7094 11.9023 41.8017 11.869 41.8773 11.8045C41.9566 11.7362 42.0396 11.6255 42.13 11.465C42.4012 10.9522 42.855 10.6958 43.4878 10.6958C43.9268 10.6958 44.2386 10.7935 44.4212 10.9928C44.6002 11.1883 44.6924 11.5462 44.6924 12.0591V12.714C44.2644 12.6715 43.877 12.6531 43.5265 12.6531C42.0654 12.6531 41.0231 12.9021 40.3959 13.3947C39.7687 13.8909 39.4551 14.71 39.4551 15.8593C39.4551 17.0086 39.7724 17.8351 40.4051 18.3516C41.0379 18.8663 42.0655 19.1246 43.4878 19.1246C45.0134 19.1246 46.1314 18.9493 46.8416 18.6081C47.1036 18.49 47.2733 18.3535 47.3581 18.2022C47.4412 18.0509 47.4836 17.8056 47.4836 17.4606V12.2177C47.4836 10.9245 47.1792 9.9394 46.5704 9.26236ZM44.6924 16.6083C44.6924 16.7024 44.6592 16.7541 44.5947 16.7688C44.3364 16.8223 43.9268 16.8481 43.3734 16.8481C42.9731 16.8481 42.6816 16.7688 42.499 16.6083C42.3182 16.4515 42.2278 16.2006 42.2278 15.8593C42.2278 15.518 42.3237 15.2432 42.51 15.0771C42.6964 14.913 42.9971 14.8281 43.4121 14.8281C43.7995 14.8281 44.2239 14.8429 44.6924 14.8705V16.6083Z" fill="#0C1F0C"/>
<path d="M57.4213 8.69684C57.3235 8.59353 57.1519 8.54004 56.9066 8.54004H55.3938C55.1485 8.54004 54.9787 8.59353 54.8902 8.69684C54.7998 8.80384 54.7555 8.98832 54.7555 9.25213V15.7808C54.4198 15.8731 54.0361 15.9192 53.6099 15.9192C53.1211 15.9192 52.7669 15.7974 52.5547 15.5521C52.3389 15.3086 52.2319 14.9156 52.2319 14.3751V9.25213C52.2319 8.98832 52.1857 8.80384 52.0861 8.69684C51.992 8.59353 51.8205 8.54004 51.5751 8.54004H50.0624C49.8152 8.54004 49.6473 8.59353 49.5588 8.69684C49.4665 8.80384 49.4204 8.98832 49.4204 9.25213V14.4729C49.4204 15.7808 49.7377 16.7844 50.3742 17.4817C51.0069 18.1809 51.9607 18.5314 53.241 18.5314C53.7981 18.5314 54.3017 18.4834 54.7555 18.3912V19.2822C54.7555 19.8357 54.6522 20.2415 54.4456 20.4998C54.2372 20.7562 53.9069 20.8835 53.4568 20.8835C53.145 20.8835 52.8683 20.8245 52.6211 20.7064C52.3758 20.5865 52.1931 20.4094 52.0787 20.1714C51.9883 20.0146 51.9053 19.9039 51.826 19.8357C51.7485 19.7693 51.6581 19.7379 51.5548 19.7379C51.4257 19.7379 51.2689 19.7822 51.0899 19.8744L50.0033 20.4297C49.6934 20.5865 49.5385 20.7857 49.5385 21.0237C49.5385 21.1805 49.5975 21.3595 49.7119 21.5587C50.424 22.7837 51.6895 23.398 53.5121 23.398C54.9086 23.398 55.9344 23.0087 56.5874 22.2302C57.2386 21.4517 57.567 20.3817 57.567 19.024V9.25213C57.567 8.98832 57.5172 8.80384 57.4213 8.69684Z" fill="#0C1F0C"/>
<path d="M68.2334 4.94804C68.1283 4.83551 67.9327 4.77832 67.6505 4.77832H60.6882C60.417 4.77832 60.227 4.84104 60.1145 4.95911C60.0056 5.07533 59.9521 5.2801 59.9521 5.57158V18.035C59.9521 18.3265 60.0056 18.5312 60.1145 18.6474C60.227 18.7655 60.417 18.8282 60.6882 18.8282H62.2397C62.5127 18.8282 62.7027 18.7655 62.8116 18.6474C62.9204 18.5312 62.9758 18.3265 62.9758 18.035V13.3861H66.7576C67.0288 13.3861 67.2188 13.3289 67.3313 13.2072C67.4401 13.0909 67.4955 12.8769 67.4955 12.5744V11.3292C67.4955 11.0377 67.4401 10.8329 67.3313 10.7149C67.2188 10.5986 67.0288 10.5359 66.7576 10.5359H62.9758V7.63037H67.6505C67.9327 7.63037 68.1283 7.57133 68.2334 7.45142C68.3367 7.33335 68.3865 7.11936 68.3865 6.81866V5.57158C68.3865 5.26903 68.3367 5.05873 68.2334 4.94804Z" fill="#0C1F0C"/>
<path d="M72.5946 8.69636C72.4913 8.59305 72.3031 8.53956 72.0319 8.53956H70.6354C70.3772 8.53956 70.1964 8.59305 70.0912 8.69636C69.9879 8.80336 69.9381 8.98784 69.9381 9.25164V18.114C69.9381 18.3797 69.9879 18.5604 70.0912 18.6674C70.1964 18.7744 70.3772 18.8279 70.6354 18.8279H72.0319C72.3031 18.8279 72.4913 18.7744 72.5946 18.6674C72.6979 18.5604 72.7496 18.3797 72.7496 18.114V9.25164C72.7496 8.98784 72.6979 8.80336 72.5946 8.69636ZM72.6241 4.69132C72.4747 4.51238 72.1998 4.42383 71.7995 4.42383H70.8679C70.4676 4.42383 70.1927 4.51238 70.0451 4.69132C69.8957 4.86842 69.8237 5.20233 69.8237 5.68936V6.00481C69.8237 6.5066 69.8938 6.84051 70.0359 7.00469C70.1761 7.17072 70.4565 7.25373 70.8679 7.25373H71.7995C72.2146 7.25373 72.4913 7.17072 72.6352 7.00469C72.7735 6.84051 72.8473 6.5066 72.8473 6.00481V5.68936C72.8473 5.20233 72.7717 4.86842 72.6241 4.69132Z" fill="#0C1F0C"/>
<path d="M14.7163 0.5H8.59344C3.95748 0.5 0.207031 4.25415 0.207031 8.88642V15.0093C0.207031 19.6434 3.95748 23.3975 8.59344 23.3975H14.7163C19.3467 23.3975 23.1046 19.6434 23.1046 15.0093V8.88642C23.1046 4.25415 19.3467 0.5 14.7163 0.5ZM13.0006 18.8483H7.82785V15.6918C7.82785 13.9485 9.2428 12.5354 10.9843 12.5354H13.0006C13.8695 12.5354 14.6609 12.8878 15.231 13.4596C15.8047 14.0334 16.1552 14.8193 16.1552 15.6918C16.1552 17.4389 14.7421 18.8483 13.0006 18.8483ZM15.231 10.4434C14.6609 11.0135 13.8695 11.3677 13.0006 11.3677H10.9843C9.2428 11.3677 7.82785 9.95085 7.82785 8.20937V5.05479H13.0006C14.7421 5.05479 16.1552 6.4642 16.1552 8.20937C16.1552 9.07827 15.8047 9.86969 15.231 10.4434Z" fill="#B8DE19"/>
</svg>
