<svg width="88" height="88" viewBox="0 0 88 88" fill="none" xmlns="http://www.w3.org/2000/svg">
<g clip-path="url(#clip0_1544_2386)">
<path d="M36.7561 6.98711C40.7831 3.09135 47.1742 3.09135 51.2012 6.98711C53.5041 9.21488 56.7061 10.2553 59.8786 9.80656C65.4264 9.02185 70.5969 12.7784 71.5649 18.2972C72.1185 21.4531 74.0975 24.1769 76.9278 25.6786C81.8774 28.3047 83.8523 34.3829 81.3916 39.4167C79.9845 42.2953 79.9845 45.6621 81.3916 48.5406C83.8523 53.5744 81.8773 59.6527 76.9278 62.2787C74.0975 63.7805 72.1185 66.5043 71.5649 69.6601C70.5969 75.1789 65.4264 78.9355 59.8786 78.1508C56.7061 77.702 53.5041 78.7424 51.2012 80.9702C47.1742 84.866 40.7831 84.866 36.7561 80.9702C34.4533 78.7424 31.2512 77.702 28.0787 78.1508C22.5309 78.9355 17.3605 75.1789 16.3924 69.6601C15.8388 66.5043 13.8599 63.7805 11.0295 62.2787C6.07999 59.6527 4.10505 53.5744 6.56572 48.5406C7.97283 45.6621 7.97283 42.2953 6.56572 39.4167C4.10505 34.3829 6.07999 28.3047 11.0295 25.6786C13.8599 24.1769 15.8388 21.4531 16.3924 18.2972C17.3605 12.7784 22.5309 9.02185 28.0787 9.80656C31.2512 10.2553 34.4533 9.21488 36.7561 6.98711Z" fill="#B8DE19"/>
</g>
<defs>
<clipPath id="clip0_1544_2386">
<rect width="88" height="88" fill="white"/>
</clipPath>
</defs>
</svg>
