<svg width="22" height="22" viewBox="0 0 22 22" fill="none" xmlns="http://www.w3.org/2000/svg">
<path d="M9.92029 1.33911C10.3454 0.418038 11.6546 0.418038 12.0797 1.33911C12.4126 2.06036 13.3456 2.25866 13.9431 1.73518C14.7061 1.06667 15.902 1.59913 15.9158 2.61349C15.9266 3.40781 16.6982 3.96842 17.457 3.73322C18.4259 3.43286 19.3019 4.40571 18.9019 5.33798C18.5887 6.06801 19.0656 6.894 19.8544 6.98775C20.8618 7.10748 21.2663 8.35251 20.5217 9.04149C19.9386 9.581 20.0383 10.5295 20.7208 10.936C21.5924 11.4551 21.4556 12.7571 20.4951 13.0836C19.743 13.3393 19.4483 14.2464 19.9064 14.8954C20.4915 15.7241 19.837 16.8578 18.8267 16.7655C18.0356 16.6932 17.3974 17.402 17.552 18.1812C17.7495 19.1763 16.6904 19.9457 15.805 19.4505C15.1117 19.0626 14.2404 19.4506 14.0647 20.2253C13.8404 21.2146 12.5599 21.4868 11.9525 20.6743C11.4769 20.038 10.5231 20.038 10.0475 20.6743C9.44014 21.4868 8.15964 21.2146 7.93527 20.2253C7.75958 19.4506 6.88826 19.0626 6.19497 19.4505C5.30962 19.9457 4.25053 19.1763 4.44796 18.1812C4.60257 17.402 3.96437 16.6932 3.17328 16.7655C2.16303 16.8578 1.50848 15.7241 2.09357 14.8954C2.55173 14.2464 2.257 13.3393 1.50489 13.0836C0.544427 12.7571 0.407588 11.4551 1.27917 10.936C1.96167 10.5295 2.06137 9.581 1.47829 9.04148C0.733688 8.35251 1.13823 7.10748 2.14559 6.98775C2.93443 6.894 3.41132 6.06801 3.09809 5.33798C2.69809 4.40571 3.57405 3.43286 4.54302 3.73322C5.30179 3.96842 6.07341 3.40781 6.0842 2.61349C6.09796 1.59913 7.29389 1.06667 8.05692 1.73518C8.65443 2.25866 9.58736 2.06036 9.92029 1.33911Z" fill="#B8DE19"/>
</svg>
