<svg width="110" height="110" viewBox="0 0 110 110" fill="none" xmlns="http://www.w3.org/2000/svg">
<path d="M45.9451 8.73389C50.9789 3.86419 58.9677 3.86419 64.0015 8.73389C66.8801 11.5186 70.8826 12.8191 74.8482 12.2582C81.783 11.2773 88.2461 15.973 89.4562 22.8715C90.1481 26.8163 92.6219 30.2211 96.1598 32.0982C102.347 35.3808 104.815 42.9786 101.74 49.2709C99.9806 52.8691 99.9806 57.0776 101.74 60.6758C104.815 66.968 102.347 74.5658 96.1598 77.8484C92.6219 79.7256 90.1481 83.1303 89.4562 87.0752C88.2461 93.9737 81.783 98.6693 74.8482 97.6885C70.8826 97.1276 66.8801 98.4281 64.0015 101.213C58.9677 106.082 50.9789 106.082 45.9451 101.213C43.0666 98.4281 39.064 97.1276 35.0984 97.6885C28.1637 98.6693 21.7006 93.9737 20.4905 87.0752C19.7985 83.1303 17.3248 79.7256 13.7869 77.8484C7.59999 74.5658 5.13131 66.968 8.20715 60.6758C9.96605 57.0776 9.96604 52.8691 8.20715 49.2709C5.13131 42.9786 7.59998 35.3808 13.7869 32.0982C17.3248 30.2211 19.7985 26.8163 20.4905 22.8715C21.7006 15.973 28.1637 11.2773 35.0984 12.2582C39.064 12.8191 43.0666 11.5186 45.9451 8.73389Z" fill="#B8DE19"/>
</svg>
