<svg width="48" height="48" viewBox="0 0 48 48" fill="none" xmlns="http://www.w3.org/2000/svg">
<g id="Truck Tick">
<path id="icon" d="M29.9984 24.0015V4.00146H15.2784M29.9984 24.0015C29.9984 26.2015 28.1984 28.0015 25.9984 28.0015H3.99841M29.9984 24.0015V10.0015H33.6785C35.1185 10.0015 36.4384 10.7815 37.1584 12.0215L40.5784 18.0015M3.99841 28.0015V15.2415M3.99841 28.0015V34.0015C3.99841 37.3215 6.67841 40.0015 9.99841 40.0015H11.9984M3.99841 15.2415C5.45841 16.9815 7.69847 18.0615 10.1785 18.0015C12.1985 17.9615 14.0184 17.1815 15.3784 15.8815C15.9984 15.3615 16.5185 14.7014 16.9185 13.9814C17.6385 12.7614 18.0384 11.3214 17.9984 9.82141C17.9384 7.48141 16.8984 5.42146 15.2784 4.00146M3.99841 15.2415C3.71841 14.9415 3.4784 14.6015 3.2584 14.2615C2.4784 13.0815 2.03839 11.6816 1.99839 10.1816C1.93839 7.66156 3.05838 5.36149 4.85838 3.86149C6.21838 2.74149 7.93834 2.0415 9.81834 2.0015C11.9183 1.9615 13.8384 2.72146 15.2784 4.00146M43.9984 28.0015V34.0015C43.9984 37.3215 41.3184 40.0015 37.9984 40.0015H35.9984M43.9984 28.0015H37.9984C36.8984 28.0015 35.9984 27.1015 35.9984 26.0015V20.0015C35.9984 18.9015 36.8984 18.0015 37.9984 18.0015H40.5784M43.9984 28.0015V24.0015L40.5784 18.0015M35.9984 40.0015C35.9984 37.8015 34.1984 36.0015 31.9984 36.0015M35.9984 40.0015C35.9984 42.2106 34.2076 44.0015 31.9984 44.0015C29.7893 44.0015 27.9984 42.2106 27.9984 40.0015M35.9984 40.0015C35.9984 37.7923 34.2076 36.0015 31.9984 36.0015M31.9984 36.0015C29.7984 36.0015 27.9984 37.8015 27.9984 40.0015M31.9984 36.0015C29.7893 36.0015 27.9984 37.7923 27.9984 40.0015M27.9984 40.0015H19.9984M19.9984 40.0015C19.9984 37.8015 18.1984 36.0015 15.9984 36.0015M19.9984 40.0015C19.9984 42.2106 18.2076 44.0015 15.9984 44.0015C13.7893 44.0015 11.9984 42.2106 11.9984 40.0015M19.9984 40.0015C19.9984 37.7923 18.2076 36.0015 15.9984 36.0015M15.9984 36.0015C13.7984 36.0015 11.9984 37.8015 11.9984 40.0015M15.9984 36.0015C13.7893 36.0015 11.9984 37.7923 11.9984 40.0015M6.87842 10.0615L8.89844 11.9814L13.0784 7.94141" stroke="#292D32" stroke-width="3" stroke-linecap="round" stroke-linejoin="round"/>
</g>
</svg>
