<svg width="86" height="40" viewBox="0 0 86 40" fill="none" xmlns="http://www.w3.org/2000/svg">
<path d="M0.695312 7.19141H10.6513C13.6219 7.19141 15.882 7.78285 17.4269 8.97049C18.9718 10.1581 19.7442 11.7751 19.7442 13.826C19.7442 16.1536 18.7429 17.8707 16.7355 18.9773C18.0706 19.5305 19.0814 20.3223 19.7585 21.3478C20.4403 22.3733 20.7789 23.5561 20.7789 24.8917C20.7789 27.1716 20.0112 28.9411 18.4806 30.2003C16.95 31.4547 14.6852 32.0843 11.6907 32.0843H0.700082V7.19141H0.695312ZM10.7848 17.5273C12.2343 17.5273 13.3262 17.2506 14.051 16.6974C14.7758 16.1441 15.1381 15.3475 15.1381 14.3125C15.1381 13.2775 14.7758 12.481 14.051 11.9277C13.3262 11.3744 12.2391 11.0978 10.7848 11.0978H5.32522V17.5273H10.7848ZM11.686 28.1732C14.566 28.1732 16.0059 27.0332 16.0059 24.7486C16.0059 22.4639 14.566 21.2906 11.686 21.2906H5.32522V28.1684H11.686V28.1732Z" fill="white"/>
<path d="M34.7724 30.0085C34.0334 30.9051 33.1989 31.5443 32.2644 31.9259C31.3298 32.3074 30.2665 32.4982 29.0697 32.4982C27.0861 32.4982 25.4983 32.0213 24.3015 31.0625C23.1047 30.1038 22.5039 28.7779 22.5039 27.0703C22.5039 25.5011 23.0618 24.2896 24.1823 23.4215C25.2981 22.5582 27.0432 21.9191 29.4178 21.5041L34.6389 20.5693V19.5295C34.6389 18.6996 34.3719 18.0795 33.8426 17.6645C33.3134 17.2496 32.4837 17.0445 31.3537 17.0445C30.2951 17.0445 29.4178 17.2734 28.7264 17.7361C28.035 18.1987 27.6678 18.8999 27.6202 19.8443H23.3336C23.3574 17.8172 24.1156 16.2813 25.6128 15.2463C27.11 14.2113 29.0125 13.6914 31.3155 13.6914C33.8283 13.6914 35.7165 14.1636 36.9849 15.108C38.2532 16.0524 38.8874 17.3688 38.8874 19.0477V32.0833H34.7724V30.0085ZM27.7394 28.6586C28.2591 29.0736 29.022 29.2787 30.0376 29.2787C31.306 29.2787 32.3883 28.9257 33.2848 28.2246C34.1812 27.5235 34.6342 26.4789 34.6342 25.0957V23.5074L30.2093 24.4041C29.0792 24.633 28.2543 24.924 27.7394 25.2674C27.2196 25.6108 26.9622 26.1641 26.9622 26.9272C26.9622 27.6904 27.2196 28.2389 27.7394 28.6539V28.6586Z" fill="white"/>
<path d="M41.3003 35.4316H44.1326C44.9861 35.4316 45.5773 35.2886 45.9111 35.0024C46.2449 34.7114 46.5643 34.1438 46.86 33.2901L47.2748 32.255L40.4658 14.1064H45.1339L49.5587 27.7954L53.9502 14.1064H58.6517L51.2562 34.1248C50.6554 35.7369 49.945 36.9532 49.1153 37.7736C48.2856 38.5939 47.0745 38.9994 45.4867 38.9994H41.305V35.4364L41.3003 35.4316Z" fill="white"/>
<path d="M60.9688 7.19043H78.5252V11.3734H65.5987V17.2831H77.8672V21.2943H65.5987V32.0786H60.9688V7.19043Z" fill="white"/>
<path d="M80.833 7.19032H85.3437V8.62599C85.3437 10.1475 84.1135 11.3781 82.5925 11.3781H80.833V7.18555V7.19032Z" fill="#B8DE19"/>
<path d="M85.2487 14.1016H80.9287V32.0785H85.2487V14.1016Z" fill="white"/>
</svg>
