<svg width="98" height="100" viewBox="0 0 98 100" fill="none" xmlns="http://www.w3.org/2000/svg">
<path d="M39.9674 3.73813C45.0037 -1.13394 52.9963 -1.13394 58.0326 3.73813C60.9125 6.52419 64.917 7.82533 68.8845 7.26414C75.8227 6.28279 82.2889 10.9808 83.4995 17.8826C84.1919 21.8293 86.6668 25.2358 90.2064 27.1138C96.3963 30.398 98.8662 37.9995 95.7889 44.2948C94.0291 47.8947 94.0291 52.1053 95.7889 55.7052C98.8662 62.0005 96.3963 69.602 90.2064 72.8862C86.6668 74.7642 84.1919 78.1707 83.4995 82.1174C82.2889 89.0192 75.8227 93.7172 68.8845 92.7359C64.917 92.1747 60.9125 93.4758 58.0326 96.2619C52.9963 101.134 45.0037 101.134 39.9674 96.2619C37.0875 93.4758 33.083 92.1747 29.1155 92.7359C22.1773 93.7172 15.7111 89.0192 14.5004 82.1174C13.8081 78.1707 11.3332 74.7642 7.79356 72.8862C1.60367 69.602 -0.866202 62.0005 2.21113 55.7052C3.97088 52.1053 3.97088 47.8947 2.21113 44.2948C-0.866202 37.9995 1.60367 30.398 7.79357 27.1138C11.3332 25.2358 13.8081 21.8293 14.5004 17.8826C15.7111 10.9808 22.1773 6.28279 29.1155 7.26414C33.083 7.82533 37.0875 6.52419 39.9674 3.73813Z" fill="#0C1F0C"/>
</svg>
